%TF.GenerationSoftware,KiCad,Pcbnew,9.0.5*%
%TF.CreationDate,2026-05-30T13:24:32+05:30*%
%TF.ProjectId,vga-breakout,7667612d-6272-4656-916b-6f75742e6b69,rev?*%
%TF.SameCoordinates,Original*%
%TF.FileFunction,Legend,Bot*%
%TF.FilePolarity,Positive*%
%FSLAX46Y46*%
G04 Gerber Fmt 4.6, Leading zero omitted, Abs format (unit mm)*
G04 Created by KiCad (PCBNEW 9.0.5) date 2026-05-30 13:24:32*
%MOMM*%
%LPD*%
G01*
G04 APERTURE LIST*
%ADD10C,0.100000*%
%ADD11C,0.125000*%
G04 APERTURE END LIST*
D10*
X93217998Y-93445001D02*
X93789426Y-93445001D01*
X93503712Y-93445001D02*
X93503712Y-92445001D01*
X93503712Y-92445001D02*
X93598950Y-92587858D01*
X93598950Y-92587858D02*
X93694188Y-92683096D01*
X93694188Y-92683096D02*
X93789426Y-92730715D01*
X92265617Y-93445001D02*
X92837045Y-93445001D01*
X92551331Y-93445001D02*
X92551331Y-92445001D01*
X92551331Y-92445001D02*
X92646569Y-92587858D01*
X92646569Y-92587858D02*
X92741807Y-92683096D01*
X92741807Y-92683096D02*
X92837045Y-92730715D01*
X100795734Y-93525952D02*
X101367162Y-93525952D01*
X101081448Y-93525952D02*
X101081448Y-92525952D01*
X101081448Y-92525952D02*
X101176686Y-92668809D01*
X101176686Y-92668809D02*
X101271924Y-92764047D01*
X101271924Y-92764047D02*
X101367162Y-92811666D01*
X100462400Y-92525952D02*
X99843353Y-92525952D01*
X99843353Y-92525952D02*
X100176686Y-92906904D01*
X100176686Y-92906904D02*
X100033829Y-92906904D01*
X100033829Y-92906904D02*
X99938591Y-92954523D01*
X99938591Y-92954523D02*
X99890972Y-93002142D01*
X99890972Y-93002142D02*
X99843353Y-93097380D01*
X99843353Y-93097380D02*
X99843353Y-93335475D01*
X99843353Y-93335475D02*
X99890972Y-93430713D01*
X99890972Y-93430713D02*
X99938591Y-93478333D01*
X99938591Y-93478333D02*
X100033829Y-93525952D01*
X100033829Y-93525952D02*
X100319543Y-93525952D01*
X100319543Y-93525952D02*
X100414781Y-93478333D01*
X100414781Y-93478333D02*
X100462400Y-93430713D01*
X108420385Y-92556379D02*
X108372766Y-92508760D01*
X108372766Y-92508760D02*
X108277528Y-92461141D01*
X108277528Y-92461141D02*
X108039433Y-92461141D01*
X108039433Y-92461141D02*
X107944195Y-92508760D01*
X107944195Y-92508760D02*
X107896576Y-92556379D01*
X107896576Y-92556379D02*
X107848957Y-92651617D01*
X107848957Y-92651617D02*
X107848957Y-92746855D01*
X107848957Y-92746855D02*
X107896576Y-92889712D01*
X107896576Y-92889712D02*
X108468004Y-93461141D01*
X108468004Y-93461141D02*
X107848957Y-93461141D01*
X102150978Y-111341331D02*
X102722406Y-111341331D01*
X102436692Y-111341331D02*
X102436692Y-110341331D01*
X102436692Y-110341331D02*
X102531930Y-110484188D01*
X102531930Y-110484188D02*
X102627168Y-110579426D01*
X102627168Y-110579426D02*
X102722406Y-110627045D01*
X101198597Y-111341331D02*
X101770025Y-111341331D01*
X101484311Y-111341331D02*
X101484311Y-110341331D01*
X101484311Y-110341331D02*
X101579549Y-110484188D01*
X101579549Y-110484188D02*
X101674787Y-110579426D01*
X101674787Y-110579426D02*
X101770025Y-110627045D01*
X100055740Y-111341331D02*
X100627168Y-111341331D01*
X100341454Y-111341331D02*
X100341454Y-110341331D01*
X100341454Y-110341331D02*
X100436692Y-110484188D01*
X100436692Y-110484188D02*
X100531930Y-110579426D01*
X100531930Y-110579426D02*
X100627168Y-110627045D01*
X99674787Y-110436569D02*
X99627168Y-110388950D01*
X99627168Y-110388950D02*
X99531930Y-110341331D01*
X99531930Y-110341331D02*
X99293835Y-110341331D01*
X99293835Y-110341331D02*
X99198597Y-110388950D01*
X99198597Y-110388950D02*
X99150978Y-110436569D01*
X99150978Y-110436569D02*
X99103359Y-110531807D01*
X99103359Y-110531807D02*
X99103359Y-110627045D01*
X99103359Y-110627045D02*
X99150978Y-110769902D01*
X99150978Y-110769902D02*
X99722406Y-111341331D01*
X99722406Y-111341331D02*
X99103359Y-111341331D01*
X97674788Y-111341331D02*
X98246216Y-111341331D01*
X97960502Y-111341331D02*
X97960502Y-110341331D01*
X97960502Y-110341331D02*
X98055740Y-110484188D01*
X98055740Y-110484188D02*
X98150978Y-110579426D01*
X98150978Y-110579426D02*
X98246216Y-110627045D01*
X97341454Y-110341331D02*
X96722407Y-110341331D01*
X96722407Y-110341331D02*
X97055740Y-110722283D01*
X97055740Y-110722283D02*
X96912883Y-110722283D01*
X96912883Y-110722283D02*
X96817645Y-110769902D01*
X96817645Y-110769902D02*
X96770026Y-110817521D01*
X96770026Y-110817521D02*
X96722407Y-110912759D01*
X96722407Y-110912759D02*
X96722407Y-111150854D01*
X96722407Y-111150854D02*
X96770026Y-111246092D01*
X96770026Y-111246092D02*
X96817645Y-111293712D01*
X96817645Y-111293712D02*
X96912883Y-111341331D01*
X96912883Y-111341331D02*
X97198597Y-111341331D01*
X97198597Y-111341331D02*
X97293835Y-111293712D01*
X97293835Y-111293712D02*
X97341454Y-111246092D01*
X95389074Y-111341331D02*
X95960502Y-111341331D01*
X95674788Y-111341331D02*
X95674788Y-110341331D01*
X95674788Y-110341331D02*
X95770026Y-110484188D01*
X95770026Y-110484188D02*
X95865264Y-110579426D01*
X95865264Y-110579426D02*
X95960502Y-110627045D01*
X94531931Y-110674664D02*
X94531931Y-111341331D01*
X94770026Y-110293712D02*
X95008121Y-111007997D01*
X95008121Y-111007997D02*
X94389074Y-111007997D01*
X93103360Y-111341331D02*
X93674788Y-111341331D01*
X93389074Y-111341331D02*
X93389074Y-110341331D01*
X93389074Y-110341331D02*
X93484312Y-110484188D01*
X93484312Y-110484188D02*
X93579550Y-110579426D01*
X93579550Y-110579426D02*
X93674788Y-110627045D01*
X92198598Y-110341331D02*
X92674788Y-110341331D01*
X92674788Y-110341331D02*
X92722407Y-110817521D01*
X92722407Y-110817521D02*
X92674788Y-110769902D01*
X92674788Y-110769902D02*
X92579550Y-110722283D01*
X92579550Y-110722283D02*
X92341455Y-110722283D01*
X92341455Y-110722283D02*
X92246217Y-110769902D01*
X92246217Y-110769902D02*
X92198598Y-110817521D01*
X92198598Y-110817521D02*
X92150979Y-110912759D01*
X92150979Y-110912759D02*
X92150979Y-111150854D01*
X92150979Y-111150854D02*
X92198598Y-111246092D01*
X92198598Y-111246092D02*
X92246217Y-111293712D01*
X92246217Y-111293712D02*
X92341455Y-111341331D01*
X92341455Y-111341331D02*
X92579550Y-111341331D01*
X92579550Y-111341331D02*
X92674788Y-111293712D01*
X92674788Y-111293712D02*
X92722407Y-111246092D01*
X95766527Y-93431682D02*
X95576051Y-93431682D01*
X95576051Y-93431682D02*
X95480813Y-93384063D01*
X95480813Y-93384063D02*
X95433194Y-93336443D01*
X95433194Y-93336443D02*
X95337956Y-93193586D01*
X95337956Y-93193586D02*
X95290337Y-93003110D01*
X95290337Y-93003110D02*
X95290337Y-92622158D01*
X95290337Y-92622158D02*
X95337956Y-92526920D01*
X95337956Y-92526920D02*
X95385575Y-92479301D01*
X95385575Y-92479301D02*
X95480813Y-92431682D01*
X95480813Y-92431682D02*
X95671289Y-92431682D01*
X95671289Y-92431682D02*
X95766527Y-92479301D01*
X95766527Y-92479301D02*
X95814146Y-92526920D01*
X95814146Y-92526920D02*
X95861765Y-92622158D01*
X95861765Y-92622158D02*
X95861765Y-92860253D01*
X95861765Y-92860253D02*
X95814146Y-92955491D01*
X95814146Y-92955491D02*
X95766527Y-93003110D01*
X95766527Y-93003110D02*
X95671289Y-93050729D01*
X95671289Y-93050729D02*
X95480813Y-93050729D01*
X95480813Y-93050729D02*
X95385575Y-93003110D01*
X95385575Y-93003110D02*
X95337956Y-92955491D01*
X95337956Y-92955491D02*
X95290337Y-92860253D01*
X113166301Y-99753749D02*
X113261540Y-99706130D01*
X113261540Y-99706130D02*
X113452016Y-99706130D01*
X113452016Y-99706130D02*
X113547254Y-99753749D01*
X113547254Y-99753749D02*
X113642492Y-99848987D01*
X113642492Y-99848987D02*
X113690111Y-99944225D01*
X113690111Y-99944225D02*
X113690111Y-100134701D01*
X113690111Y-100134701D02*
X113642492Y-100229939D01*
X113642492Y-100229939D02*
X113547254Y-100325177D01*
X113547254Y-100325177D02*
X113452016Y-100372796D01*
X113452016Y-100372796D02*
X113261540Y-100372796D01*
X113261540Y-100372796D02*
X113166301Y-100325177D01*
X113356778Y-99372796D02*
X113594873Y-99420415D01*
X113594873Y-99420415D02*
X113832968Y-99563273D01*
X113832968Y-99563273D02*
X113975825Y-99801368D01*
X113975825Y-99801368D02*
X114023444Y-100039463D01*
X114023444Y-100039463D02*
X113975825Y-100277558D01*
X113975825Y-100277558D02*
X113832968Y-100515654D01*
X113832968Y-100515654D02*
X113594873Y-100658511D01*
X113594873Y-100658511D02*
X113356778Y-100706130D01*
X113356778Y-100706130D02*
X113118682Y-100658511D01*
X113118682Y-100658511D02*
X112880587Y-100515654D01*
X112880587Y-100515654D02*
X112737730Y-100277558D01*
X112737730Y-100277558D02*
X112690111Y-100039463D01*
X112690111Y-100039463D02*
X112737730Y-99801368D01*
X112737730Y-99801368D02*
X112880587Y-99563273D01*
X112880587Y-99563273D02*
X113118682Y-99420415D01*
X113118682Y-99420415D02*
X113356778Y-99372796D01*
X111547253Y-99610892D02*
X111499634Y-99563273D01*
X111499634Y-99563273D02*
X111404396Y-99515654D01*
X111404396Y-99515654D02*
X111166301Y-99515654D01*
X111166301Y-99515654D02*
X111071063Y-99563273D01*
X111071063Y-99563273D02*
X111023444Y-99610892D01*
X111023444Y-99610892D02*
X110975825Y-99706130D01*
X110975825Y-99706130D02*
X110975825Y-99801368D01*
X110975825Y-99801368D02*
X111023444Y-99944225D01*
X111023444Y-99944225D02*
X111594872Y-100515654D01*
X111594872Y-100515654D02*
X110975825Y-100515654D01*
X110356777Y-99515654D02*
X110261539Y-99515654D01*
X110261539Y-99515654D02*
X110166301Y-99563273D01*
X110166301Y-99563273D02*
X110118682Y-99610892D01*
X110118682Y-99610892D02*
X110071063Y-99706130D01*
X110071063Y-99706130D02*
X110023444Y-99896606D01*
X110023444Y-99896606D02*
X110023444Y-100134701D01*
X110023444Y-100134701D02*
X110071063Y-100325177D01*
X110071063Y-100325177D02*
X110118682Y-100420415D01*
X110118682Y-100420415D02*
X110166301Y-100468035D01*
X110166301Y-100468035D02*
X110261539Y-100515654D01*
X110261539Y-100515654D02*
X110356777Y-100515654D01*
X110356777Y-100515654D02*
X110452015Y-100468035D01*
X110452015Y-100468035D02*
X110499634Y-100420415D01*
X110499634Y-100420415D02*
X110547253Y-100325177D01*
X110547253Y-100325177D02*
X110594872Y-100134701D01*
X110594872Y-100134701D02*
X110594872Y-99896606D01*
X110594872Y-99896606D02*
X110547253Y-99706130D01*
X110547253Y-99706130D02*
X110499634Y-99610892D01*
X110499634Y-99610892D02*
X110452015Y-99563273D01*
X110452015Y-99563273D02*
X110356777Y-99515654D01*
X109642491Y-99610892D02*
X109594872Y-99563273D01*
X109594872Y-99563273D02*
X109499634Y-99515654D01*
X109499634Y-99515654D02*
X109261539Y-99515654D01*
X109261539Y-99515654D02*
X109166301Y-99563273D01*
X109166301Y-99563273D02*
X109118682Y-99610892D01*
X109118682Y-99610892D02*
X109071063Y-99706130D01*
X109071063Y-99706130D02*
X109071063Y-99801368D01*
X109071063Y-99801368D02*
X109118682Y-99944225D01*
X109118682Y-99944225D02*
X109690110Y-100515654D01*
X109690110Y-100515654D02*
X109071063Y-100515654D01*
X108213920Y-99515654D02*
X108404396Y-99515654D01*
X108404396Y-99515654D02*
X108499634Y-99563273D01*
X108499634Y-99563273D02*
X108547253Y-99610892D01*
X108547253Y-99610892D02*
X108642491Y-99753749D01*
X108642491Y-99753749D02*
X108690110Y-99944225D01*
X108690110Y-99944225D02*
X108690110Y-100325177D01*
X108690110Y-100325177D02*
X108642491Y-100420415D01*
X108642491Y-100420415D02*
X108594872Y-100468035D01*
X108594872Y-100468035D02*
X108499634Y-100515654D01*
X108499634Y-100515654D02*
X108309158Y-100515654D01*
X108309158Y-100515654D02*
X108213920Y-100468035D01*
X108213920Y-100468035D02*
X108166301Y-100420415D01*
X108166301Y-100420415D02*
X108118682Y-100325177D01*
X108118682Y-100325177D02*
X108118682Y-100087082D01*
X108118682Y-100087082D02*
X108166301Y-99991844D01*
X108166301Y-99991844D02*
X108213920Y-99944225D01*
X108213920Y-99944225D02*
X108309158Y-99896606D01*
X108309158Y-99896606D02*
X108499634Y-99896606D01*
X108499634Y-99896606D02*
X108594872Y-99944225D01*
X108594872Y-99944225D02*
X108642491Y-99991844D01*
X108642491Y-99991844D02*
X108690110Y-100087082D01*
X106928205Y-100515654D02*
X106928205Y-99515654D01*
X106928205Y-99515654D02*
X106690110Y-99515654D01*
X106690110Y-99515654D02*
X106547253Y-99563273D01*
X106547253Y-99563273D02*
X106452015Y-99658511D01*
X106452015Y-99658511D02*
X106404396Y-99753749D01*
X106404396Y-99753749D02*
X106356777Y-99944225D01*
X106356777Y-99944225D02*
X106356777Y-100087082D01*
X106356777Y-100087082D02*
X106404396Y-100277558D01*
X106404396Y-100277558D02*
X106452015Y-100372796D01*
X106452015Y-100372796D02*
X106547253Y-100468035D01*
X106547253Y-100468035D02*
X106690110Y-100515654D01*
X106690110Y-100515654D02*
X106928205Y-100515654D01*
X105928205Y-100515654D02*
X105928205Y-99848987D01*
X105928205Y-99515654D02*
X105975824Y-99563273D01*
X105975824Y-99563273D02*
X105928205Y-99610892D01*
X105928205Y-99610892D02*
X105880586Y-99563273D01*
X105880586Y-99563273D02*
X105928205Y-99515654D01*
X105928205Y-99515654D02*
X105928205Y-99610892D01*
X105452015Y-99848987D02*
X105452015Y-100515654D01*
X105452015Y-99944225D02*
X105404396Y-99896606D01*
X105404396Y-99896606D02*
X105309158Y-99848987D01*
X105309158Y-99848987D02*
X105166301Y-99848987D01*
X105166301Y-99848987D02*
X105071063Y-99896606D01*
X105071063Y-99896606D02*
X105023444Y-99991844D01*
X105023444Y-99991844D02*
X105023444Y-100515654D01*
X104547253Y-99991844D02*
X104213920Y-99991844D01*
X104071063Y-100515654D02*
X104547253Y-100515654D01*
X104547253Y-100515654D02*
X104547253Y-99515654D01*
X104547253Y-99515654D02*
X104071063Y-99515654D01*
X103642491Y-100134701D02*
X102880587Y-100134701D01*
X101880587Y-100515654D02*
X102452015Y-100515654D01*
X102166301Y-100515654D02*
X102166301Y-99515654D01*
X102166301Y-99515654D02*
X102261539Y-99658511D01*
X102261539Y-99658511D02*
X102356777Y-99753749D01*
X102356777Y-99753749D02*
X102452015Y-99801368D01*
X113404397Y-102030359D02*
X113452016Y-102077979D01*
X113452016Y-102077979D02*
X113594873Y-102125598D01*
X113594873Y-102125598D02*
X113690111Y-102125598D01*
X113690111Y-102125598D02*
X113832968Y-102077979D01*
X113832968Y-102077979D02*
X113928206Y-101982740D01*
X113928206Y-101982740D02*
X113975825Y-101887502D01*
X113975825Y-101887502D02*
X114023444Y-101697026D01*
X114023444Y-101697026D02*
X114023444Y-101554169D01*
X114023444Y-101554169D02*
X113975825Y-101363693D01*
X113975825Y-101363693D02*
X113928206Y-101268455D01*
X113928206Y-101268455D02*
X113832968Y-101173217D01*
X113832968Y-101173217D02*
X113690111Y-101125598D01*
X113690111Y-101125598D02*
X113594873Y-101125598D01*
X113594873Y-101125598D02*
X113452016Y-101173217D01*
X113452016Y-101173217D02*
X113404397Y-101220836D01*
X112975825Y-101601788D02*
X112642492Y-101601788D01*
X112499635Y-102125598D02*
X112975825Y-102125598D01*
X112975825Y-102125598D02*
X112975825Y-101125598D01*
X112975825Y-101125598D02*
X112499635Y-101125598D01*
X111499635Y-102125598D02*
X111832968Y-101649407D01*
X112071063Y-102125598D02*
X112071063Y-101125598D01*
X112071063Y-101125598D02*
X111690111Y-101125598D01*
X111690111Y-101125598D02*
X111594873Y-101173217D01*
X111594873Y-101173217D02*
X111547254Y-101220836D01*
X111547254Y-101220836D02*
X111499635Y-101316074D01*
X111499635Y-101316074D02*
X111499635Y-101458931D01*
X111499635Y-101458931D02*
X111547254Y-101554169D01*
X111547254Y-101554169D02*
X111594873Y-101601788D01*
X111594873Y-101601788D02*
X111690111Y-101649407D01*
X111690111Y-101649407D02*
X112071063Y-101649407D01*
X111071063Y-102125598D02*
X111071063Y-101125598D01*
X111071063Y-101125598D02*
X110499635Y-102125598D01*
X110499635Y-102125598D02*
X110499635Y-101125598D01*
X110023444Y-101744645D02*
X109261540Y-101744645D01*
X108594873Y-101125598D02*
X108404397Y-101125598D01*
X108404397Y-101125598D02*
X108309159Y-101173217D01*
X108309159Y-101173217D02*
X108213921Y-101268455D01*
X108213921Y-101268455D02*
X108166302Y-101458931D01*
X108166302Y-101458931D02*
X108166302Y-101792264D01*
X108166302Y-101792264D02*
X108213921Y-101982740D01*
X108213921Y-101982740D02*
X108309159Y-102077979D01*
X108309159Y-102077979D02*
X108404397Y-102125598D01*
X108404397Y-102125598D02*
X108594873Y-102125598D01*
X108594873Y-102125598D02*
X108690111Y-102077979D01*
X108690111Y-102077979D02*
X108785349Y-101982740D01*
X108785349Y-101982740D02*
X108832968Y-101792264D01*
X108832968Y-101792264D02*
X108832968Y-101458931D01*
X108832968Y-101458931D02*
X108785349Y-101268455D01*
X108785349Y-101268455D02*
X108690111Y-101173217D01*
X108690111Y-101173217D02*
X108594873Y-101125598D01*
X107737730Y-102125598D02*
X107737730Y-101125598D01*
X107737730Y-101601788D02*
X107166302Y-101601788D01*
X107166302Y-102125598D02*
X107166302Y-101125598D01*
X106213921Y-102125598D02*
X106690111Y-102125598D01*
X106690111Y-102125598D02*
X106690111Y-101125598D01*
X105880587Y-101744645D02*
X105118683Y-101744645D01*
X104642492Y-102125598D02*
X104642492Y-101125598D01*
X104642492Y-101125598D02*
X104261540Y-101125598D01*
X104261540Y-101125598D02*
X104166302Y-101173217D01*
X104166302Y-101173217D02*
X104118683Y-101220836D01*
X104118683Y-101220836D02*
X104071064Y-101316074D01*
X104071064Y-101316074D02*
X104071064Y-101458931D01*
X104071064Y-101458931D02*
X104118683Y-101554169D01*
X104118683Y-101554169D02*
X104166302Y-101601788D01*
X104166302Y-101601788D02*
X104261540Y-101649407D01*
X104261540Y-101649407D02*
X104642492Y-101649407D01*
X103642492Y-101744645D02*
X102880588Y-101744645D01*
X102452016Y-101220836D02*
X102404397Y-101173217D01*
X102404397Y-101173217D02*
X102309159Y-101125598D01*
X102309159Y-101125598D02*
X102071064Y-101125598D01*
X102071064Y-101125598D02*
X101975826Y-101173217D01*
X101975826Y-101173217D02*
X101928207Y-101220836D01*
X101928207Y-101220836D02*
X101880588Y-101316074D01*
X101880588Y-101316074D02*
X101880588Y-101411312D01*
X101880588Y-101411312D02*
X101928207Y-101554169D01*
X101928207Y-101554169D02*
X102499635Y-102125598D01*
X102499635Y-102125598D02*
X101880588Y-102125598D01*
X101452016Y-102030359D02*
X101404397Y-102077979D01*
X101404397Y-102077979D02*
X101452016Y-102125598D01*
X101452016Y-102125598D02*
X101499635Y-102077979D01*
X101499635Y-102077979D02*
X101452016Y-102030359D01*
X101452016Y-102030359D02*
X101452016Y-102125598D01*
X100785350Y-101125598D02*
X100690112Y-101125598D01*
X100690112Y-101125598D02*
X100594874Y-101173217D01*
X100594874Y-101173217D02*
X100547255Y-101220836D01*
X100547255Y-101220836D02*
X100499636Y-101316074D01*
X100499636Y-101316074D02*
X100452017Y-101506550D01*
X100452017Y-101506550D02*
X100452017Y-101744645D01*
X100452017Y-101744645D02*
X100499636Y-101935121D01*
X100499636Y-101935121D02*
X100547255Y-102030359D01*
X100547255Y-102030359D02*
X100594874Y-102077979D01*
X100594874Y-102077979D02*
X100690112Y-102125598D01*
X100690112Y-102125598D02*
X100785350Y-102125598D01*
X100785350Y-102125598D02*
X100880588Y-102077979D01*
X100880588Y-102077979D02*
X100928207Y-102030359D01*
X100928207Y-102030359D02*
X100975826Y-101935121D01*
X100975826Y-101935121D02*
X101023445Y-101744645D01*
X101023445Y-101744645D02*
X101023445Y-101506550D01*
X101023445Y-101506550D02*
X100975826Y-101316074D01*
X100975826Y-101316074D02*
X100928207Y-101220836D01*
X100928207Y-101220836D02*
X100880588Y-101173217D01*
X100880588Y-101173217D02*
X100785350Y-101125598D01*
X86211225Y-97115026D02*
X86115987Y-97162645D01*
X86115987Y-97162645D02*
X85925511Y-97162645D01*
X85925511Y-97162645D02*
X85830273Y-97115026D01*
X85830273Y-97115026D02*
X85782654Y-97019787D01*
X85782654Y-97019787D02*
X85782654Y-96972168D01*
X85782654Y-96972168D02*
X85830273Y-96876930D01*
X85830273Y-96876930D02*
X85925511Y-96829311D01*
X85925511Y-96829311D02*
X86068368Y-96829311D01*
X86068368Y-96829311D02*
X86163606Y-96781692D01*
X86163606Y-96781692D02*
X86211225Y-96686454D01*
X86211225Y-96686454D02*
X86211225Y-96638835D01*
X86211225Y-96638835D02*
X86163606Y-96543597D01*
X86163606Y-96543597D02*
X86068368Y-96495978D01*
X86068368Y-96495978D02*
X85925511Y-96495978D01*
X85925511Y-96495978D02*
X85830273Y-96543597D01*
X84925511Y-97115026D02*
X85020749Y-97162645D01*
X85020749Y-97162645D02*
X85211225Y-97162645D01*
X85211225Y-97162645D02*
X85306463Y-97115026D01*
X85306463Y-97115026D02*
X85354082Y-97067406D01*
X85354082Y-97067406D02*
X85401701Y-96972168D01*
X85401701Y-96972168D02*
X85401701Y-96686454D01*
X85401701Y-96686454D02*
X85354082Y-96591216D01*
X85354082Y-96591216D02*
X85306463Y-96543597D01*
X85306463Y-96543597D02*
X85211225Y-96495978D01*
X85211225Y-96495978D02*
X85020749Y-96495978D01*
X85020749Y-96495978D02*
X84925511Y-96543597D01*
X84354082Y-97162645D02*
X84449320Y-97115026D01*
X84449320Y-97115026D02*
X84496939Y-97019787D01*
X84496939Y-97019787D02*
X84496939Y-96162645D01*
X85401700Y-98772589D02*
X85401700Y-98105922D01*
X85401700Y-97772589D02*
X85449319Y-97820208D01*
X85449319Y-97820208D02*
X85401700Y-97867827D01*
X85401700Y-97867827D02*
X85354081Y-97820208D01*
X85354081Y-97820208D02*
X85401700Y-97772589D01*
X85401700Y-97772589D02*
X85401700Y-97867827D01*
X85020748Y-97772589D02*
X84401701Y-97772589D01*
X84401701Y-97772589D02*
X84735034Y-98153541D01*
X84735034Y-98153541D02*
X84592177Y-98153541D01*
X84592177Y-98153541D02*
X84496939Y-98201160D01*
X84496939Y-98201160D02*
X84449320Y-98248779D01*
X84449320Y-98248779D02*
X84401701Y-98344017D01*
X84401701Y-98344017D02*
X84401701Y-98582112D01*
X84401701Y-98582112D02*
X84449320Y-98677350D01*
X84449320Y-98677350D02*
X84496939Y-98724970D01*
X84496939Y-98724970D02*
X84592177Y-98772589D01*
X84592177Y-98772589D02*
X84877891Y-98772589D01*
X84877891Y-98772589D02*
X84973129Y-98724970D01*
X84973129Y-98724970D02*
X85020748Y-98677350D01*
X95639922Y-96361587D02*
X96116112Y-96361587D01*
X96116112Y-96361587D02*
X96163731Y-96837777D01*
X96163731Y-96837777D02*
X96116112Y-96790158D01*
X96116112Y-96790158D02*
X96020874Y-96742539D01*
X96020874Y-96742539D02*
X95782779Y-96742539D01*
X95782779Y-96742539D02*
X95687541Y-96790158D01*
X95687541Y-96790158D02*
X95639922Y-96837777D01*
X95639922Y-96837777D02*
X95592303Y-96933015D01*
X95592303Y-96933015D02*
X95592303Y-97171110D01*
X95592303Y-97171110D02*
X95639922Y-97266348D01*
X95639922Y-97266348D02*
X95687541Y-97313968D01*
X95687541Y-97313968D02*
X95782779Y-97361587D01*
X95782779Y-97361587D02*
X96020874Y-97361587D01*
X96020874Y-97361587D02*
X96116112Y-97313968D01*
X96116112Y-97313968D02*
X96163731Y-97266348D01*
X95306588Y-96361587D02*
X94973255Y-97361587D01*
X94973255Y-97361587D02*
X94639922Y-96361587D01*
X98712913Y-96267500D02*
X98379580Y-97267500D01*
X98379580Y-97267500D02*
X98046247Y-96267500D01*
X97760532Y-97219881D02*
X97665294Y-97267500D01*
X97665294Y-97267500D02*
X97474818Y-97267500D01*
X97474818Y-97267500D02*
X97379580Y-97219881D01*
X97379580Y-97219881D02*
X97331961Y-97124642D01*
X97331961Y-97124642D02*
X97331961Y-97077023D01*
X97331961Y-97077023D02*
X97379580Y-96981785D01*
X97379580Y-96981785D02*
X97474818Y-96934166D01*
X97474818Y-96934166D02*
X97617675Y-96934166D01*
X97617675Y-96934166D02*
X97712913Y-96886547D01*
X97712913Y-96886547D02*
X97760532Y-96791309D01*
X97760532Y-96791309D02*
X97760532Y-96743690D01*
X97760532Y-96743690D02*
X97712913Y-96648452D01*
X97712913Y-96648452D02*
X97617675Y-96600833D01*
X97617675Y-96600833D02*
X97474818Y-96600833D01*
X97474818Y-96600833D02*
X97379580Y-96648452D01*
X101131524Y-97305135D02*
X101131524Y-96305135D01*
X101131524Y-96781325D02*
X100560096Y-96781325D01*
X100560096Y-97305135D02*
X100560096Y-96305135D01*
X100131524Y-97257516D02*
X100036286Y-97305135D01*
X100036286Y-97305135D02*
X99845810Y-97305135D01*
X99845810Y-97305135D02*
X99750572Y-97257516D01*
X99750572Y-97257516D02*
X99702953Y-97162277D01*
X99702953Y-97162277D02*
X99702953Y-97114658D01*
X99702953Y-97114658D02*
X99750572Y-97019420D01*
X99750572Y-97019420D02*
X99845810Y-96971801D01*
X99845810Y-96971801D02*
X99988667Y-96971801D01*
X99988667Y-96971801D02*
X100083905Y-96924182D01*
X100083905Y-96924182D02*
X100131524Y-96828944D01*
X100131524Y-96828944D02*
X100131524Y-96781325D01*
X100131524Y-96781325D02*
X100083905Y-96686087D01*
X100083905Y-96686087D02*
X99988667Y-96638468D01*
X99988667Y-96638468D02*
X99845810Y-96638468D01*
X99845810Y-96638468D02*
X99750572Y-96686087D01*
X105877891Y-97272589D02*
X105877891Y-96272589D01*
X105877891Y-96653541D02*
X105782653Y-96605922D01*
X105782653Y-96605922D02*
X105592177Y-96605922D01*
X105592177Y-96605922D02*
X105496939Y-96653541D01*
X105496939Y-96653541D02*
X105449320Y-96701160D01*
X105449320Y-96701160D02*
X105401701Y-96796398D01*
X105401701Y-96796398D02*
X105401701Y-97082112D01*
X105401701Y-97082112D02*
X105449320Y-97177350D01*
X105449320Y-97177350D02*
X105496939Y-97224970D01*
X105496939Y-97224970D02*
X105592177Y-97272589D01*
X105592177Y-97272589D02*
X105782653Y-97272589D01*
X105782653Y-97272589D02*
X105877891Y-97224970D01*
X98145906Y-93519521D02*
X98717334Y-93519521D01*
X98431620Y-93519521D02*
X98431620Y-92519521D01*
X98431620Y-92519521D02*
X98526858Y-92662378D01*
X98526858Y-92662378D02*
X98622096Y-92757616D01*
X98622096Y-92757616D02*
X98717334Y-92805235D01*
X97288763Y-92852854D02*
X97288763Y-93519521D01*
X97526858Y-92471902D02*
X97764953Y-93186187D01*
X97764953Y-93186187D02*
X97145906Y-93186187D01*
X88401700Y-97162645D02*
X88401700Y-96495978D01*
X88401700Y-96162645D02*
X88449319Y-96210264D01*
X88449319Y-96210264D02*
X88401700Y-96257883D01*
X88401700Y-96257883D02*
X88354081Y-96210264D01*
X88354081Y-96210264D02*
X88401700Y-96162645D01*
X88401700Y-96162645D02*
X88401700Y-96257883D01*
X87973129Y-96257883D02*
X87925510Y-96210264D01*
X87925510Y-96210264D02*
X87830272Y-96162645D01*
X87830272Y-96162645D02*
X87592177Y-96162645D01*
X87592177Y-96162645D02*
X87496939Y-96210264D01*
X87496939Y-96210264D02*
X87449320Y-96257883D01*
X87449320Y-96257883D02*
X87401701Y-96353121D01*
X87401701Y-96353121D02*
X87401701Y-96448359D01*
X87401701Y-96448359D02*
X87449320Y-96591216D01*
X87449320Y-96591216D02*
X88020748Y-97162645D01*
X88020748Y-97162645D02*
X87401701Y-97162645D01*
X88401701Y-98772589D02*
X88401701Y-98105922D01*
X88401701Y-98296398D02*
X88354082Y-98201160D01*
X88354082Y-98201160D02*
X88306463Y-98153541D01*
X88306463Y-98153541D02*
X88211225Y-98105922D01*
X88211225Y-98105922D02*
X88115987Y-98105922D01*
X87830272Y-98724970D02*
X87735034Y-98772589D01*
X87735034Y-98772589D02*
X87544558Y-98772589D01*
X87544558Y-98772589D02*
X87449320Y-98724970D01*
X87449320Y-98724970D02*
X87401701Y-98629731D01*
X87401701Y-98629731D02*
X87401701Y-98582112D01*
X87401701Y-98582112D02*
X87449320Y-98486874D01*
X87449320Y-98486874D02*
X87544558Y-98439255D01*
X87544558Y-98439255D02*
X87687415Y-98439255D01*
X87687415Y-98439255D02*
X87782653Y-98391636D01*
X87782653Y-98391636D02*
X87830272Y-98296398D01*
X87830272Y-98296398D02*
X87830272Y-98248779D01*
X87830272Y-98248779D02*
X87782653Y-98153541D01*
X87782653Y-98153541D02*
X87687415Y-98105922D01*
X87687415Y-98105922D02*
X87544558Y-98105922D01*
X87544558Y-98105922D02*
X87449320Y-98153541D01*
X90708566Y-93436314D02*
X91279994Y-93436314D01*
X90994280Y-93436314D02*
X90994280Y-92436314D01*
X90994280Y-92436314D02*
X91089518Y-92579171D01*
X91089518Y-92579171D02*
X91184756Y-92674409D01*
X91184756Y-92674409D02*
X91279994Y-92722028D01*
X90327613Y-92531552D02*
X90279994Y-92483933D01*
X90279994Y-92483933D02*
X90184756Y-92436314D01*
X90184756Y-92436314D02*
X89946661Y-92436314D01*
X89946661Y-92436314D02*
X89851423Y-92483933D01*
X89851423Y-92483933D02*
X89803804Y-92531552D01*
X89803804Y-92531552D02*
X89756185Y-92626790D01*
X89756185Y-92626790D02*
X89756185Y-92722028D01*
X89756185Y-92722028D02*
X89803804Y-92864885D01*
X89803804Y-92864885D02*
X90375232Y-93436314D01*
X90375232Y-93436314D02*
X89756185Y-93436314D01*
X103616837Y-96670307D02*
X102664456Y-96670307D01*
X103426361Y-96956021D02*
X102854933Y-96956021D01*
X103140647Y-96241736D02*
X103140647Y-96670307D01*
X103045409Y-97241736D02*
X103235885Y-97241736D01*
X87773982Y-92814809D02*
X87773982Y-93481476D01*
X88012077Y-92433857D02*
X88250172Y-93148142D01*
X88250172Y-93148142D02*
X87631125Y-93148142D01*
X92292864Y-107412373D02*
X92864292Y-107412373D01*
X92578578Y-107412373D02*
X92578578Y-106412373D01*
X92578578Y-106412373D02*
X92673816Y-106555230D01*
X92673816Y-106555230D02*
X92769054Y-106650468D01*
X92769054Y-106650468D02*
X92864292Y-106698087D01*
X91673816Y-106412373D02*
X91578578Y-106412373D01*
X91578578Y-106412373D02*
X91483340Y-106459992D01*
X91483340Y-106459992D02*
X91435721Y-106507611D01*
X91435721Y-106507611D02*
X91388102Y-106602849D01*
X91388102Y-106602849D02*
X91340483Y-106793325D01*
X91340483Y-106793325D02*
X91340483Y-107031420D01*
X91340483Y-107031420D02*
X91388102Y-107221896D01*
X91388102Y-107221896D02*
X91435721Y-107317134D01*
X91435721Y-107317134D02*
X91483340Y-107364754D01*
X91483340Y-107364754D02*
X91578578Y-107412373D01*
X91578578Y-107412373D02*
X91673816Y-107412373D01*
X91673816Y-107412373D02*
X91769054Y-107364754D01*
X91769054Y-107364754D02*
X91816673Y-107317134D01*
X91816673Y-107317134D02*
X91864292Y-107221896D01*
X91864292Y-107221896D02*
X91911911Y-107031420D01*
X91911911Y-107031420D02*
X91911911Y-106793325D01*
X91911911Y-106793325D02*
X91864292Y-106602849D01*
X91864292Y-106602849D02*
X91816673Y-106507611D01*
X91816673Y-106507611D02*
X91769054Y-106459992D01*
X91769054Y-106459992D02*
X91673816Y-106412373D01*
X110942147Y-96969865D02*
X110942147Y-96303198D01*
X110942147Y-96493674D02*
X110894528Y-96398436D01*
X110894528Y-96398436D02*
X110846909Y-96350817D01*
X110846909Y-96350817D02*
X110751671Y-96303198D01*
X110751671Y-96303198D02*
X110656433Y-96303198D01*
X105968004Y-92461141D02*
X105348957Y-92461141D01*
X105348957Y-92461141D02*
X105682290Y-92842093D01*
X105682290Y-92842093D02*
X105539433Y-92842093D01*
X105539433Y-92842093D02*
X105444195Y-92889712D01*
X105444195Y-92889712D02*
X105396576Y-92937331D01*
X105396576Y-92937331D02*
X105348957Y-93032569D01*
X105348957Y-93032569D02*
X105348957Y-93270664D01*
X105348957Y-93270664D02*
X105396576Y-93365902D01*
X105396576Y-93365902D02*
X105444195Y-93413522D01*
X105444195Y-93413522D02*
X105539433Y-93461141D01*
X105539433Y-93461141D02*
X105825147Y-93461141D01*
X105825147Y-93461141D02*
X105920385Y-93413522D01*
X105920385Y-93413522D02*
X105968004Y-93365902D01*
X108072509Y-96203338D02*
X108072509Y-97012862D01*
X108072509Y-97012862D02*
X108120128Y-97108100D01*
X108120128Y-97108100D02*
X108167747Y-97155719D01*
X108167747Y-97155719D02*
X108262985Y-97203338D01*
X108262985Y-97203338D02*
X108405842Y-97203338D01*
X108405842Y-97203338D02*
X108501080Y-97155719D01*
X108072509Y-96822386D02*
X108167747Y-96870005D01*
X108167747Y-96870005D02*
X108358223Y-96870005D01*
X108358223Y-96870005D02*
X108453461Y-96822386D01*
X108453461Y-96822386D02*
X108501080Y-96774766D01*
X108501080Y-96774766D02*
X108548699Y-96679528D01*
X108548699Y-96679528D02*
X108548699Y-96393814D01*
X108548699Y-96393814D02*
X108501080Y-96298576D01*
X108501080Y-96298576D02*
X108453461Y-96250957D01*
X108453461Y-96250957D02*
X108358223Y-96203338D01*
X108358223Y-96203338D02*
X108167747Y-96203338D01*
X108167747Y-96203338D02*
X108072509Y-96250957D01*
X93401700Y-97162645D02*
X93401700Y-96495978D01*
X93401700Y-96162645D02*
X93449319Y-96210264D01*
X93449319Y-96210264D02*
X93401700Y-96257883D01*
X93401700Y-96257883D02*
X93354081Y-96210264D01*
X93354081Y-96210264D02*
X93401700Y-96162645D01*
X93401700Y-96162645D02*
X93401700Y-96257883D01*
X92735034Y-96162645D02*
X92639796Y-96162645D01*
X92639796Y-96162645D02*
X92544558Y-96210264D01*
X92544558Y-96210264D02*
X92496939Y-96257883D01*
X92496939Y-96257883D02*
X92449320Y-96353121D01*
X92449320Y-96353121D02*
X92401701Y-96543597D01*
X92401701Y-96543597D02*
X92401701Y-96781692D01*
X92401701Y-96781692D02*
X92449320Y-96972168D01*
X92449320Y-96972168D02*
X92496939Y-97067406D01*
X92496939Y-97067406D02*
X92544558Y-97115026D01*
X92544558Y-97115026D02*
X92639796Y-97162645D01*
X92639796Y-97162645D02*
X92735034Y-97162645D01*
X92735034Y-97162645D02*
X92830272Y-97115026D01*
X92830272Y-97115026D02*
X92877891Y-97067406D01*
X92877891Y-97067406D02*
X92925510Y-96972168D01*
X92925510Y-96972168D02*
X92973129Y-96781692D01*
X92973129Y-96781692D02*
X92973129Y-96543597D01*
X92973129Y-96543597D02*
X92925510Y-96353121D01*
X92925510Y-96353121D02*
X92877891Y-96257883D01*
X92877891Y-96257883D02*
X92830272Y-96210264D01*
X92830272Y-96210264D02*
X92735034Y-96162645D01*
X93401701Y-98772589D02*
X93401701Y-98105922D01*
X93401701Y-98296398D02*
X93354082Y-98201160D01*
X93354082Y-98201160D02*
X93306463Y-98153541D01*
X93306463Y-98153541D02*
X93211225Y-98105922D01*
X93211225Y-98105922D02*
X93115987Y-98105922D01*
X92830272Y-98724970D02*
X92735034Y-98772589D01*
X92735034Y-98772589D02*
X92544558Y-98772589D01*
X92544558Y-98772589D02*
X92449320Y-98724970D01*
X92449320Y-98724970D02*
X92401701Y-98629731D01*
X92401701Y-98629731D02*
X92401701Y-98582112D01*
X92401701Y-98582112D02*
X92449320Y-98486874D01*
X92449320Y-98486874D02*
X92544558Y-98439255D01*
X92544558Y-98439255D02*
X92687415Y-98439255D01*
X92687415Y-98439255D02*
X92782653Y-98391636D01*
X92782653Y-98391636D02*
X92830272Y-98296398D01*
X92830272Y-98296398D02*
X92830272Y-98248779D01*
X92830272Y-98248779D02*
X92782653Y-98153541D01*
X92782653Y-98153541D02*
X92687415Y-98105922D01*
X92687415Y-98105922D02*
X92544558Y-98105922D01*
X92544558Y-98105922D02*
X92449320Y-98153541D01*
X110490883Y-93386920D02*
X111062311Y-93386920D01*
X110776597Y-93386920D02*
X110776597Y-92386920D01*
X110776597Y-92386920D02*
X110871835Y-92529777D01*
X110871835Y-92529777D02*
X110967073Y-92625015D01*
X110967073Y-92625015D02*
X111062311Y-92672634D01*
X91764483Y-97115026D02*
X91669245Y-97162645D01*
X91669245Y-97162645D02*
X91478769Y-97162645D01*
X91478769Y-97162645D02*
X91383531Y-97115026D01*
X91383531Y-97115026D02*
X91335912Y-97019787D01*
X91335912Y-97019787D02*
X91335912Y-96972168D01*
X91335912Y-96972168D02*
X91383531Y-96876930D01*
X91383531Y-96876930D02*
X91478769Y-96829311D01*
X91478769Y-96829311D02*
X91621626Y-96829311D01*
X91621626Y-96829311D02*
X91716864Y-96781692D01*
X91716864Y-96781692D02*
X91764483Y-96686454D01*
X91764483Y-96686454D02*
X91764483Y-96638835D01*
X91764483Y-96638835D02*
X91716864Y-96543597D01*
X91716864Y-96543597D02*
X91621626Y-96495978D01*
X91621626Y-96495978D02*
X91478769Y-96495978D01*
X91478769Y-96495978D02*
X91383531Y-96543597D01*
X90478769Y-97162645D02*
X90478769Y-96162645D01*
X90478769Y-97115026D02*
X90574007Y-97162645D01*
X90574007Y-97162645D02*
X90764483Y-97162645D01*
X90764483Y-97162645D02*
X90859721Y-97115026D01*
X90859721Y-97115026D02*
X90907340Y-97067406D01*
X90907340Y-97067406D02*
X90954959Y-96972168D01*
X90954959Y-96972168D02*
X90954959Y-96686454D01*
X90954959Y-96686454D02*
X90907340Y-96591216D01*
X90907340Y-96591216D02*
X90859721Y-96543597D01*
X90859721Y-96543597D02*
X90764483Y-96495978D01*
X90764483Y-96495978D02*
X90574007Y-96495978D01*
X90574007Y-96495978D02*
X90478769Y-96543597D01*
X89574007Y-97162645D02*
X89574007Y-96638835D01*
X89574007Y-96638835D02*
X89621626Y-96543597D01*
X89621626Y-96543597D02*
X89716864Y-96495978D01*
X89716864Y-96495978D02*
X89907340Y-96495978D01*
X89907340Y-96495978D02*
X90002578Y-96543597D01*
X89574007Y-97115026D02*
X89669245Y-97162645D01*
X89669245Y-97162645D02*
X89907340Y-97162645D01*
X89907340Y-97162645D02*
X90002578Y-97115026D01*
X90002578Y-97115026D02*
X90050197Y-97019787D01*
X90050197Y-97019787D02*
X90050197Y-96924549D01*
X90050197Y-96924549D02*
X90002578Y-96829311D01*
X90002578Y-96829311D02*
X89907340Y-96781692D01*
X89907340Y-96781692D02*
X89669245Y-96781692D01*
X89669245Y-96781692D02*
X89574007Y-96734073D01*
X91121625Y-98772589D02*
X91121625Y-98105922D01*
X91121625Y-97772589D02*
X91169244Y-97820208D01*
X91169244Y-97820208D02*
X91121625Y-97867827D01*
X91121625Y-97867827D02*
X91074006Y-97820208D01*
X91074006Y-97820208D02*
X91121625Y-97772589D01*
X91121625Y-97772589D02*
X91121625Y-97867827D01*
X90121626Y-98772589D02*
X90693054Y-98772589D01*
X90407340Y-98772589D02*
X90407340Y-97772589D01*
X90407340Y-97772589D02*
X90502578Y-97915446D01*
X90502578Y-97915446D02*
X90597816Y-98010684D01*
X90597816Y-98010684D02*
X90693054Y-98058303D01*
X102896576Y-92461141D02*
X103372766Y-92461141D01*
X103372766Y-92461141D02*
X103420385Y-92937331D01*
X103420385Y-92937331D02*
X103372766Y-92889712D01*
X103372766Y-92889712D02*
X103277528Y-92842093D01*
X103277528Y-92842093D02*
X103039433Y-92842093D01*
X103039433Y-92842093D02*
X102944195Y-92889712D01*
X102944195Y-92889712D02*
X102896576Y-92937331D01*
X102896576Y-92937331D02*
X102848957Y-93032569D01*
X102848957Y-93032569D02*
X102848957Y-93270664D01*
X102848957Y-93270664D02*
X102896576Y-93365902D01*
X102896576Y-93365902D02*
X102944195Y-93413522D01*
X102944195Y-93413522D02*
X103039433Y-93461141D01*
X103039433Y-93461141D02*
X103277528Y-93461141D01*
X103277528Y-93461141D02*
X103372766Y-93413522D01*
X103372766Y-93413522D02*
X103420385Y-93365902D01*
X85560125Y-93571799D02*
X86131553Y-93571799D01*
X85845839Y-93571799D02*
X85845839Y-92571799D01*
X85845839Y-92571799D02*
X85941077Y-92714656D01*
X85941077Y-92714656D02*
X86036315Y-92809894D01*
X86036315Y-92809894D02*
X86131553Y-92857513D01*
X84655363Y-92571799D02*
X85131553Y-92571799D01*
X85131553Y-92571799D02*
X85179172Y-93047989D01*
X85179172Y-93047989D02*
X85131553Y-93000370D01*
X85131553Y-93000370D02*
X85036315Y-92952751D01*
X85036315Y-92952751D02*
X84798220Y-92952751D01*
X84798220Y-92952751D02*
X84702982Y-93000370D01*
X84702982Y-93000370D02*
X84655363Y-93047989D01*
X84655363Y-93047989D02*
X84607744Y-93143227D01*
X84607744Y-93143227D02*
X84607744Y-93381322D01*
X84607744Y-93381322D02*
X84655363Y-93476560D01*
X84655363Y-93476560D02*
X84702982Y-93524180D01*
X84702982Y-93524180D02*
X84798220Y-93571799D01*
X84798220Y-93571799D02*
X85036315Y-93571799D01*
X85036315Y-93571799D02*
X85131553Y-93524180D01*
X85131553Y-93524180D02*
X85179172Y-93476560D01*
X104532155Y-106483808D02*
X104722631Y-106483808D01*
X104722631Y-106483808D02*
X104817869Y-106531427D01*
X104817869Y-106531427D02*
X104865488Y-106579046D01*
X104865488Y-106579046D02*
X104960726Y-106721903D01*
X104960726Y-106721903D02*
X105008345Y-106912379D01*
X105008345Y-106912379D02*
X105008345Y-107293331D01*
X105008345Y-107293331D02*
X104960726Y-107388569D01*
X104960726Y-107388569D02*
X104913107Y-107436189D01*
X104913107Y-107436189D02*
X104817869Y-107483808D01*
X104817869Y-107483808D02*
X104627393Y-107483808D01*
X104627393Y-107483808D02*
X104532155Y-107436189D01*
X104532155Y-107436189D02*
X104484536Y-107388569D01*
X104484536Y-107388569D02*
X104436917Y-107293331D01*
X104436917Y-107293331D02*
X104436917Y-107055236D01*
X104436917Y-107055236D02*
X104484536Y-106959998D01*
X104484536Y-106959998D02*
X104532155Y-106912379D01*
X104532155Y-106912379D02*
X104627393Y-106864760D01*
X104627393Y-106864760D02*
X104817869Y-106864760D01*
X104817869Y-106864760D02*
X104913107Y-106912379D01*
X104913107Y-106912379D02*
X104960726Y-106959998D01*
X104960726Y-106959998D02*
X105008345Y-107055236D01*
D11*
X101741635Y-103875010D02*
X102313063Y-103875010D01*
X102027349Y-103875010D02*
X102027349Y-102875010D01*
X102027349Y-102875010D02*
X102122587Y-103017867D01*
X102122587Y-103017867D02*
X102217825Y-103113105D01*
X102217825Y-103113105D02*
X102313063Y-103160724D01*
X100027349Y-102970248D02*
X99979730Y-102922629D01*
X99979730Y-102922629D02*
X99884492Y-102875010D01*
X99884492Y-102875010D02*
X99646397Y-102875010D01*
X99646397Y-102875010D02*
X99551159Y-102922629D01*
X99551159Y-102922629D02*
X99503540Y-102970248D01*
X99503540Y-102970248D02*
X99455921Y-103065486D01*
X99455921Y-103065486D02*
X99455921Y-103160724D01*
X99455921Y-103160724D02*
X99503540Y-103303581D01*
X99503540Y-103303581D02*
X100074968Y-103875010D01*
X100074968Y-103875010D02*
X99455921Y-103875010D01*
X97979730Y-102875010D02*
X97360683Y-102875010D01*
X97360683Y-102875010D02*
X97694016Y-103255962D01*
X97694016Y-103255962D02*
X97551159Y-103255962D01*
X97551159Y-103255962D02*
X97455921Y-103303581D01*
X97455921Y-103303581D02*
X97408302Y-103351200D01*
X97408302Y-103351200D02*
X97360683Y-103446438D01*
X97360683Y-103446438D02*
X97360683Y-103684533D01*
X97360683Y-103684533D02*
X97408302Y-103779771D01*
X97408302Y-103779771D02*
X97455921Y-103827391D01*
X97455921Y-103827391D02*
X97551159Y-103875010D01*
X97551159Y-103875010D02*
X97836873Y-103875010D01*
X97836873Y-103875010D02*
X97932111Y-103827391D01*
X97932111Y-103827391D02*
X97979730Y-103779771D01*
X95170207Y-103208343D02*
X95170207Y-103875010D01*
X95408302Y-102827391D02*
X95646397Y-103541676D01*
X95646397Y-103541676D02*
X95027350Y-103541676D01*
X92836874Y-102875010D02*
X93313064Y-102875010D01*
X93313064Y-102875010D02*
X93360683Y-103351200D01*
X93360683Y-103351200D02*
X93313064Y-103303581D01*
X93313064Y-103303581D02*
X93217826Y-103255962D01*
X93217826Y-103255962D02*
X92979731Y-103255962D01*
X92979731Y-103255962D02*
X92884493Y-103303581D01*
X92884493Y-103303581D02*
X92836874Y-103351200D01*
X92836874Y-103351200D02*
X92789255Y-103446438D01*
X92789255Y-103446438D02*
X92789255Y-103684533D01*
X92789255Y-103684533D02*
X92836874Y-103779771D01*
X92836874Y-103779771D02*
X92884493Y-103827391D01*
X92884493Y-103827391D02*
X92979731Y-103875010D01*
X92979731Y-103875010D02*
X93217826Y-103875010D01*
X93217826Y-103875010D02*
X93313064Y-103827391D01*
X93313064Y-103827391D02*
X93360683Y-103779771D01*
M02*
