%TF.GenerationSoftware,KiCad,Pcbnew,9.0.5*%
%TF.CreationDate,2026-05-30T17:48:04+05:30*%
%TF.ProjectId,vga-breakout,7667612d-6272-4656-916b-6f75742e6b69,rev?*%
%TF.SameCoordinates,Original*%
%TF.FileFunction,Legend,Top*%
%TF.FilePolarity,Positive*%
%FSLAX46Y46*%
G04 Gerber Fmt 4.6, Leading zero omitted, Abs format (unit mm)*
G04 Created by KiCad (PCBNEW 9.0.5) date 2026-05-30 17:48:04*
%MOMM*%
%LPD*%
G01*
G04 APERTURE LIST*
%ADD10C,0.100000*%
%ADD11C,0.125000*%
%ADD12C,0.300000*%
%ADD13C,0.150000*%
%ADD14C,0.120000*%
G04 APERTURE END LIST*
D10*
X82090986Y-97533406D02*
X82186224Y-97581025D01*
X82186224Y-97581025D02*
X82376700Y-97581025D01*
X82376700Y-97581025D02*
X82471938Y-97533406D01*
X82471938Y-97533406D02*
X82519557Y-97438167D01*
X82519557Y-97438167D02*
X82519557Y-97390548D01*
X82519557Y-97390548D02*
X82471938Y-97295310D01*
X82471938Y-97295310D02*
X82376700Y-97247691D01*
X82376700Y-97247691D02*
X82233843Y-97247691D01*
X82233843Y-97247691D02*
X82138605Y-97200072D01*
X82138605Y-97200072D02*
X82090986Y-97104834D01*
X82090986Y-97104834D02*
X82090986Y-97057215D01*
X82090986Y-97057215D02*
X82138605Y-96961977D01*
X82138605Y-96961977D02*
X82233843Y-96914358D01*
X82233843Y-96914358D02*
X82376700Y-96914358D01*
X82376700Y-96914358D02*
X82471938Y-96961977D01*
X83376700Y-97533406D02*
X83281462Y-97581025D01*
X83281462Y-97581025D02*
X83090986Y-97581025D01*
X83090986Y-97581025D02*
X82995748Y-97533406D01*
X82995748Y-97533406D02*
X82948129Y-97485786D01*
X82948129Y-97485786D02*
X82900510Y-97390548D01*
X82900510Y-97390548D02*
X82900510Y-97104834D01*
X82900510Y-97104834D02*
X82948129Y-97009596D01*
X82948129Y-97009596D02*
X82995748Y-96961977D01*
X82995748Y-96961977D02*
X83090986Y-96914358D01*
X83090986Y-96914358D02*
X83281462Y-96914358D01*
X83281462Y-96914358D02*
X83376700Y-96961977D01*
X83948129Y-97581025D02*
X83852891Y-97533406D01*
X83852891Y-97533406D02*
X83805272Y-97438167D01*
X83805272Y-97438167D02*
X83805272Y-96581025D01*
X82519557Y-99190969D02*
X82519557Y-98524302D01*
X82519557Y-98190969D02*
X82471938Y-98238588D01*
X82471938Y-98238588D02*
X82519557Y-98286207D01*
X82519557Y-98286207D02*
X82567176Y-98238588D01*
X82567176Y-98238588D02*
X82519557Y-98190969D01*
X82519557Y-98190969D02*
X82519557Y-98286207D01*
X82900509Y-98190969D02*
X83519556Y-98190969D01*
X83519556Y-98190969D02*
X83186223Y-98571921D01*
X83186223Y-98571921D02*
X83329080Y-98571921D01*
X83329080Y-98571921D02*
X83424318Y-98619540D01*
X83424318Y-98619540D02*
X83471937Y-98667159D01*
X83471937Y-98667159D02*
X83519556Y-98762397D01*
X83519556Y-98762397D02*
X83519556Y-99000492D01*
X83519556Y-99000492D02*
X83471937Y-99095730D01*
X83471937Y-99095730D02*
X83424318Y-99143350D01*
X83424318Y-99143350D02*
X83329080Y-99190969D01*
X83329080Y-99190969D02*
X83043366Y-99190969D01*
X83043366Y-99190969D02*
X82948128Y-99143350D01*
X82948128Y-99143350D02*
X82900509Y-99095730D01*
X95191297Y-96729696D02*
X95524630Y-97729696D01*
X95524630Y-97729696D02*
X95857963Y-96729696D01*
X96143678Y-97682077D02*
X96238916Y-97729696D01*
X96238916Y-97729696D02*
X96429392Y-97729696D01*
X96429392Y-97729696D02*
X96524630Y-97682077D01*
X96524630Y-97682077D02*
X96572249Y-97586838D01*
X96572249Y-97586838D02*
X96572249Y-97539219D01*
X96572249Y-97539219D02*
X96524630Y-97443981D01*
X96524630Y-97443981D02*
X96429392Y-97396362D01*
X96429392Y-97396362D02*
X96286535Y-97396362D01*
X96286535Y-97396362D02*
X96191297Y-97348743D01*
X96191297Y-97348743D02*
X96143678Y-97253505D01*
X96143678Y-97253505D02*
X96143678Y-97205886D01*
X96143678Y-97205886D02*
X96191297Y-97110648D01*
X96191297Y-97110648D02*
X96286535Y-97063029D01*
X96286535Y-97063029D02*
X96429392Y-97063029D01*
X96429392Y-97063029D02*
X96524630Y-97110648D01*
X92948254Y-96779967D02*
X92472064Y-96779967D01*
X92472064Y-96779967D02*
X92424445Y-97256157D01*
X92424445Y-97256157D02*
X92472064Y-97208538D01*
X92472064Y-97208538D02*
X92567302Y-97160919D01*
X92567302Y-97160919D02*
X92805397Y-97160919D01*
X92805397Y-97160919D02*
X92900635Y-97208538D01*
X92900635Y-97208538D02*
X92948254Y-97256157D01*
X92948254Y-97256157D02*
X92995873Y-97351395D01*
X92995873Y-97351395D02*
X92995873Y-97589490D01*
X92995873Y-97589490D02*
X92948254Y-97684728D01*
X92948254Y-97684728D02*
X92900635Y-97732348D01*
X92900635Y-97732348D02*
X92805397Y-97779967D01*
X92805397Y-97779967D02*
X92567302Y-97779967D01*
X92567302Y-97779967D02*
X92472064Y-97732348D01*
X92472064Y-97732348D02*
X92424445Y-97684728D01*
X93281588Y-96779967D02*
X93614921Y-97779967D01*
X93614921Y-97779967D02*
X93948254Y-96779967D01*
X87215673Y-97533406D02*
X87310911Y-97581025D01*
X87310911Y-97581025D02*
X87501387Y-97581025D01*
X87501387Y-97581025D02*
X87596625Y-97533406D01*
X87596625Y-97533406D02*
X87644244Y-97438167D01*
X87644244Y-97438167D02*
X87644244Y-97390548D01*
X87644244Y-97390548D02*
X87596625Y-97295310D01*
X87596625Y-97295310D02*
X87501387Y-97247691D01*
X87501387Y-97247691D02*
X87358530Y-97247691D01*
X87358530Y-97247691D02*
X87263292Y-97200072D01*
X87263292Y-97200072D02*
X87215673Y-97104834D01*
X87215673Y-97104834D02*
X87215673Y-97057215D01*
X87215673Y-97057215D02*
X87263292Y-96961977D01*
X87263292Y-96961977D02*
X87358530Y-96914358D01*
X87358530Y-96914358D02*
X87501387Y-96914358D01*
X87501387Y-96914358D02*
X87596625Y-96961977D01*
X88501387Y-97581025D02*
X88501387Y-96581025D01*
X88501387Y-97533406D02*
X88406149Y-97581025D01*
X88406149Y-97581025D02*
X88215673Y-97581025D01*
X88215673Y-97581025D02*
X88120435Y-97533406D01*
X88120435Y-97533406D02*
X88072816Y-97485786D01*
X88072816Y-97485786D02*
X88025197Y-97390548D01*
X88025197Y-97390548D02*
X88025197Y-97104834D01*
X88025197Y-97104834D02*
X88072816Y-97009596D01*
X88072816Y-97009596D02*
X88120435Y-96961977D01*
X88120435Y-96961977D02*
X88215673Y-96914358D01*
X88215673Y-96914358D02*
X88406149Y-96914358D01*
X88406149Y-96914358D02*
X88501387Y-96961977D01*
X89406149Y-97581025D02*
X89406149Y-97057215D01*
X89406149Y-97057215D02*
X89358530Y-96961977D01*
X89358530Y-96961977D02*
X89263292Y-96914358D01*
X89263292Y-96914358D02*
X89072816Y-96914358D01*
X89072816Y-96914358D02*
X88977578Y-96961977D01*
X89406149Y-97533406D02*
X89310911Y-97581025D01*
X89310911Y-97581025D02*
X89072816Y-97581025D01*
X89072816Y-97581025D02*
X88977578Y-97533406D01*
X88977578Y-97533406D02*
X88929959Y-97438167D01*
X88929959Y-97438167D02*
X88929959Y-97342929D01*
X88929959Y-97342929D02*
X88977578Y-97247691D01*
X88977578Y-97247691D02*
X89072816Y-97200072D01*
X89072816Y-97200072D02*
X89310911Y-97200072D01*
X89310911Y-97200072D02*
X89406149Y-97152453D01*
X87858531Y-99190969D02*
X87858531Y-98524302D01*
X87858531Y-98190969D02*
X87810912Y-98238588D01*
X87810912Y-98238588D02*
X87858531Y-98286207D01*
X87858531Y-98286207D02*
X87906150Y-98238588D01*
X87906150Y-98238588D02*
X87858531Y-98190969D01*
X87858531Y-98190969D02*
X87858531Y-98286207D01*
X88858530Y-99190969D02*
X88287102Y-99190969D01*
X88572816Y-99190969D02*
X88572816Y-98190969D01*
X88572816Y-98190969D02*
X88477578Y-98333826D01*
X88477578Y-98333826D02*
X88382340Y-98429064D01*
X88382340Y-98429064D02*
X88287102Y-98476683D01*
X97720238Y-97692413D02*
X97720238Y-96692413D01*
X97720238Y-97168603D02*
X98291666Y-97168603D01*
X98291666Y-97692413D02*
X98291666Y-96692413D01*
X98720238Y-97644794D02*
X98815476Y-97692413D01*
X98815476Y-97692413D02*
X99005952Y-97692413D01*
X99005952Y-97692413D02*
X99101190Y-97644794D01*
X99101190Y-97644794D02*
X99148809Y-97549555D01*
X99148809Y-97549555D02*
X99148809Y-97501936D01*
X99148809Y-97501936D02*
X99101190Y-97406698D01*
X99101190Y-97406698D02*
X99005952Y-97359079D01*
X99005952Y-97359079D02*
X98863095Y-97359079D01*
X98863095Y-97359079D02*
X98767857Y-97311460D01*
X98767857Y-97311460D02*
X98720238Y-97216222D01*
X98720238Y-97216222D02*
X98720238Y-97168603D01*
X98720238Y-97168603D02*
X98767857Y-97073365D01*
X98767857Y-97073365D02*
X98863095Y-97025746D01*
X98863095Y-97025746D02*
X99005952Y-97025746D01*
X99005952Y-97025746D02*
X99101190Y-97073365D01*
X103228403Y-97535300D02*
X103228403Y-96535300D01*
X103228403Y-96916252D02*
X103323641Y-96868633D01*
X103323641Y-96868633D02*
X103514117Y-96868633D01*
X103514117Y-96868633D02*
X103609355Y-96916252D01*
X103609355Y-96916252D02*
X103656974Y-96963871D01*
X103656974Y-96963871D02*
X103704593Y-97059109D01*
X103704593Y-97059109D02*
X103704593Y-97344823D01*
X103704593Y-97344823D02*
X103656974Y-97440061D01*
X103656974Y-97440061D02*
X103609355Y-97487681D01*
X103609355Y-97487681D02*
X103514117Y-97535300D01*
X103514117Y-97535300D02*
X103323641Y-97535300D01*
X103323641Y-97535300D02*
X103228403Y-97487681D01*
X85138605Y-97581025D02*
X85138605Y-96914358D01*
X85138605Y-96581025D02*
X85090986Y-96628644D01*
X85090986Y-96628644D02*
X85138605Y-96676263D01*
X85138605Y-96676263D02*
X85186224Y-96628644D01*
X85186224Y-96628644D02*
X85138605Y-96581025D01*
X85138605Y-96581025D02*
X85138605Y-96676263D01*
X85567176Y-96676263D02*
X85614795Y-96628644D01*
X85614795Y-96628644D02*
X85710033Y-96581025D01*
X85710033Y-96581025D02*
X85948128Y-96581025D01*
X85948128Y-96581025D02*
X86043366Y-96628644D01*
X86043366Y-96628644D02*
X86090985Y-96676263D01*
X86090985Y-96676263D02*
X86138604Y-96771501D01*
X86138604Y-96771501D02*
X86138604Y-96866739D01*
X86138604Y-96866739D02*
X86090985Y-97009596D01*
X86090985Y-97009596D02*
X85519557Y-97581025D01*
X85519557Y-97581025D02*
X86138604Y-97581025D01*
X85138605Y-99190969D02*
X85138605Y-98524302D01*
X85138605Y-98714778D02*
X85186224Y-98619540D01*
X85186224Y-98619540D02*
X85233843Y-98571921D01*
X85233843Y-98571921D02*
X85329081Y-98524302D01*
X85329081Y-98524302D02*
X85424319Y-98524302D01*
X85710034Y-99143350D02*
X85805272Y-99190969D01*
X85805272Y-99190969D02*
X85995748Y-99190969D01*
X85995748Y-99190969D02*
X86090986Y-99143350D01*
X86090986Y-99143350D02*
X86138605Y-99048111D01*
X86138605Y-99048111D02*
X86138605Y-99000492D01*
X86138605Y-99000492D02*
X86090986Y-98905254D01*
X86090986Y-98905254D02*
X85995748Y-98857635D01*
X85995748Y-98857635D02*
X85852891Y-98857635D01*
X85852891Y-98857635D02*
X85757653Y-98810016D01*
X85757653Y-98810016D02*
X85710034Y-98714778D01*
X85710034Y-98714778D02*
X85710034Y-98667159D01*
X85710034Y-98667159D02*
X85757653Y-98571921D01*
X85757653Y-98571921D02*
X85852891Y-98524302D01*
X85852891Y-98524302D02*
X85995748Y-98524302D01*
X85995748Y-98524302D02*
X86090986Y-98571921D01*
X106190365Y-96621718D02*
X106190365Y-97431242D01*
X106190365Y-97431242D02*
X106142746Y-97526480D01*
X106142746Y-97526480D02*
X106095127Y-97574099D01*
X106095127Y-97574099D02*
X105999889Y-97621718D01*
X105999889Y-97621718D02*
X105857032Y-97621718D01*
X105857032Y-97621718D02*
X105761794Y-97574099D01*
X106190365Y-97240766D02*
X106095127Y-97288385D01*
X106095127Y-97288385D02*
X105904651Y-97288385D01*
X105904651Y-97288385D02*
X105809413Y-97240766D01*
X105809413Y-97240766D02*
X105761794Y-97193146D01*
X105761794Y-97193146D02*
X105714175Y-97097908D01*
X105714175Y-97097908D02*
X105714175Y-96812194D01*
X105714175Y-96812194D02*
X105761794Y-96716956D01*
X105761794Y-96716956D02*
X105809413Y-96669337D01*
X105809413Y-96669337D02*
X105904651Y-96621718D01*
X105904651Y-96621718D02*
X106095127Y-96621718D01*
X106095127Y-96621718D02*
X106190365Y-96669337D01*
X100353742Y-97088687D02*
X101306123Y-97088687D01*
X100544218Y-97374401D02*
X101115646Y-97374401D01*
X100829932Y-96660116D02*
X100829932Y-97088687D01*
X100925170Y-97660116D02*
X100734694Y-97660116D01*
X90303884Y-97762475D02*
X90303884Y-97095808D01*
X90303884Y-96762475D02*
X90256265Y-96810094D01*
X90256265Y-96810094D02*
X90303884Y-96857713D01*
X90303884Y-96857713D02*
X90351503Y-96810094D01*
X90351503Y-96810094D02*
X90303884Y-96762475D01*
X90303884Y-96762475D02*
X90303884Y-96857713D01*
X90970550Y-96762475D02*
X91065788Y-96762475D01*
X91065788Y-96762475D02*
X91161026Y-96810094D01*
X91161026Y-96810094D02*
X91208645Y-96857713D01*
X91208645Y-96857713D02*
X91256264Y-96952951D01*
X91256264Y-96952951D02*
X91303883Y-97143427D01*
X91303883Y-97143427D02*
X91303883Y-97381522D01*
X91303883Y-97381522D02*
X91256264Y-97571998D01*
X91256264Y-97571998D02*
X91208645Y-97667236D01*
X91208645Y-97667236D02*
X91161026Y-97714856D01*
X91161026Y-97714856D02*
X91065788Y-97762475D01*
X91065788Y-97762475D02*
X90970550Y-97762475D01*
X90970550Y-97762475D02*
X90875312Y-97714856D01*
X90875312Y-97714856D02*
X90827693Y-97667236D01*
X90827693Y-97667236D02*
X90780074Y-97571998D01*
X90780074Y-97571998D02*
X90732455Y-97381522D01*
X90732455Y-97381522D02*
X90732455Y-97143427D01*
X90732455Y-97143427D02*
X90780074Y-96952951D01*
X90780074Y-96952951D02*
X90827693Y-96857713D01*
X90827693Y-96857713D02*
X90875312Y-96810094D01*
X90875312Y-96810094D02*
X90970550Y-96762475D01*
X90303884Y-99372419D02*
X90303884Y-98705752D01*
X90303884Y-98896228D02*
X90351503Y-98800990D01*
X90351503Y-98800990D02*
X90399122Y-98753371D01*
X90399122Y-98753371D02*
X90494360Y-98705752D01*
X90494360Y-98705752D02*
X90589598Y-98705752D01*
X90875313Y-99324800D02*
X90970551Y-99372419D01*
X90970551Y-99372419D02*
X91161027Y-99372419D01*
X91161027Y-99372419D02*
X91256265Y-99324800D01*
X91256265Y-99324800D02*
X91303884Y-99229561D01*
X91303884Y-99229561D02*
X91303884Y-99181942D01*
X91303884Y-99181942D02*
X91256265Y-99086704D01*
X91256265Y-99086704D02*
X91161027Y-99039085D01*
X91161027Y-99039085D02*
X91018170Y-99039085D01*
X91018170Y-99039085D02*
X90922932Y-98991466D01*
X90922932Y-98991466D02*
X90875313Y-98896228D01*
X90875313Y-98896228D02*
X90875313Y-98848609D01*
X90875313Y-98848609D02*
X90922932Y-98753371D01*
X90922932Y-98753371D02*
X91018170Y-98705752D01*
X91018170Y-98705752D02*
X91161027Y-98705752D01*
X91161027Y-98705752D02*
X91256265Y-98753371D01*
X108488575Y-97388245D02*
X108488575Y-96721578D01*
X108488575Y-96912054D02*
X108536194Y-96816816D01*
X108536194Y-96816816D02*
X108583813Y-96769197D01*
X108583813Y-96769197D02*
X108679051Y-96721578D01*
X108679051Y-96721578D02*
X108774289Y-96721578D01*
X68328637Y-87984655D02*
X118828637Y-87984655D01*
X118828637Y-137984655D01*
X68328637Y-137984655D01*
X68328637Y-87984655D01*
X95406104Y-93323287D02*
X94834676Y-93323287D01*
X95120390Y-93323287D02*
X95120390Y-92323287D01*
X95120390Y-92323287D02*
X95025152Y-92466144D01*
X95025152Y-92466144D02*
X94929914Y-92561382D01*
X94929914Y-92561382D02*
X94834676Y-92609001D01*
X96263247Y-92656620D02*
X96263247Y-93323287D01*
X96025152Y-92275668D02*
X95787057Y-92989953D01*
X95787057Y-92989953D02*
X96406104Y-92989953D01*
X91662805Y-107554752D02*
X91091377Y-107554752D01*
X91377091Y-107554752D02*
X91377091Y-106554752D01*
X91377091Y-106554752D02*
X91281853Y-106697609D01*
X91281853Y-106697609D02*
X91186615Y-106792847D01*
X91186615Y-106792847D02*
X91091377Y-106840466D01*
X92281853Y-106554752D02*
X92377091Y-106554752D01*
X92377091Y-106554752D02*
X92472329Y-106602371D01*
X92472329Y-106602371D02*
X92519948Y-106649990D01*
X92519948Y-106649990D02*
X92567567Y-106745228D01*
X92567567Y-106745228D02*
X92615186Y-106935704D01*
X92615186Y-106935704D02*
X92615186Y-107173799D01*
X92615186Y-107173799D02*
X92567567Y-107364275D01*
X92567567Y-107364275D02*
X92519948Y-107459513D01*
X92519948Y-107459513D02*
X92472329Y-107507133D01*
X92472329Y-107507133D02*
X92377091Y-107554752D01*
X92377091Y-107554752D02*
X92281853Y-107554752D01*
X92281853Y-107554752D02*
X92186615Y-107507133D01*
X92186615Y-107507133D02*
X92138996Y-107459513D01*
X92138996Y-107459513D02*
X92091377Y-107364275D01*
X92091377Y-107364275D02*
X92043758Y-107173799D01*
X92043758Y-107173799D02*
X92043758Y-106935704D01*
X92043758Y-106935704D02*
X92091377Y-106745228D01*
X92091377Y-106745228D02*
X92138996Y-106649990D01*
X92138996Y-106649990D02*
X92186615Y-106602371D01*
X92186615Y-106602371D02*
X92281853Y-106554752D01*
X108703462Y-93190686D02*
X108132034Y-93190686D01*
X108417748Y-93190686D02*
X108417748Y-92190686D01*
X108417748Y-92190686D02*
X108322510Y-92333543D01*
X108322510Y-92333543D02*
X108227272Y-92428781D01*
X108227272Y-92428781D02*
X108132034Y-92476400D01*
X97995088Y-93298373D02*
X97423660Y-93298373D01*
X97709374Y-93298373D02*
X97709374Y-92298373D01*
X97709374Y-92298373D02*
X97614136Y-92441230D01*
X97614136Y-92441230D02*
X97518898Y-92536468D01*
X97518898Y-92536468D02*
X97423660Y-92584087D01*
X98328422Y-92298373D02*
X98947469Y-92298373D01*
X98947469Y-92298373D02*
X98614136Y-92679325D01*
X98614136Y-92679325D02*
X98756993Y-92679325D01*
X98756993Y-92679325D02*
X98852231Y-92726944D01*
X98852231Y-92726944D02*
X98899850Y-92774563D01*
X98899850Y-92774563D02*
X98947469Y-92869801D01*
X98947469Y-92869801D02*
X98947469Y-93107896D01*
X98947469Y-93107896D02*
X98899850Y-93203134D01*
X98899850Y-93203134D02*
X98852231Y-93250754D01*
X98852231Y-93250754D02*
X98756993Y-93298373D01*
X98756993Y-93298373D02*
X98471279Y-93298373D01*
X98471279Y-93298373D02*
X98376041Y-93250754D01*
X98376041Y-93250754D02*
X98328422Y-93203134D01*
X82735887Y-93318466D02*
X82164459Y-93318466D01*
X82450173Y-93318466D02*
X82450173Y-92318466D01*
X82450173Y-92318466D02*
X82354935Y-92461323D01*
X82354935Y-92461323D02*
X82259697Y-92556561D01*
X82259697Y-92556561D02*
X82164459Y-92604180D01*
X83640649Y-92318466D02*
X83164459Y-92318466D01*
X83164459Y-92318466D02*
X83116840Y-92794656D01*
X83116840Y-92794656D02*
X83164459Y-92747037D01*
X83164459Y-92747037D02*
X83259697Y-92699418D01*
X83259697Y-92699418D02*
X83497792Y-92699418D01*
X83497792Y-92699418D02*
X83593030Y-92747037D01*
X83593030Y-92747037D02*
X83640649Y-92794656D01*
X83640649Y-92794656D02*
X83688268Y-92889894D01*
X83688268Y-92889894D02*
X83688268Y-93127989D01*
X83688268Y-93127989D02*
X83640649Y-93223227D01*
X83640649Y-93223227D02*
X83593030Y-93270847D01*
X83593030Y-93270847D02*
X83497792Y-93318466D01*
X83497792Y-93318466D02*
X83259697Y-93318466D01*
X83259697Y-93318466D02*
X83164459Y-93270847D01*
X83164459Y-93270847D02*
X83116840Y-93223227D01*
X85671615Y-92624575D02*
X85671615Y-93291242D01*
X85433520Y-92243623D02*
X85195425Y-92957908D01*
X85195425Y-92957908D02*
X85814472Y-92957908D01*
X90478196Y-93248767D02*
X89906768Y-93248767D01*
X90192482Y-93248767D02*
X90192482Y-92248767D01*
X90192482Y-92248767D02*
X90097244Y-92391624D01*
X90097244Y-92391624D02*
X90002006Y-92486862D01*
X90002006Y-92486862D02*
X89906768Y-92534481D01*
X91430577Y-93248767D02*
X90859149Y-93248767D01*
X91144863Y-93248767D02*
X91144863Y-92248767D01*
X91144863Y-92248767D02*
X91049625Y-92391624D01*
X91049625Y-92391624D02*
X90954387Y-92486862D01*
X90954387Y-92486862D02*
X90859149Y-92534481D01*
X105490108Y-92360145D02*
X105537727Y-92312526D01*
X105537727Y-92312526D02*
X105632965Y-92264907D01*
X105632965Y-92264907D02*
X105871060Y-92264907D01*
X105871060Y-92264907D02*
X105966298Y-92312526D01*
X105966298Y-92312526D02*
X106013917Y-92360145D01*
X106013917Y-92360145D02*
X106061536Y-92455383D01*
X106061536Y-92455383D02*
X106061536Y-92550621D01*
X106061536Y-92550621D02*
X106013917Y-92693478D01*
X106013917Y-92693478D02*
X105442489Y-93264907D01*
X105442489Y-93264907D02*
X106061536Y-93264907D01*
X93026726Y-93235448D02*
X93217202Y-93235448D01*
X93217202Y-93235448D02*
X93312440Y-93187829D01*
X93312440Y-93187829D02*
X93360059Y-93140209D01*
X93360059Y-93140209D02*
X93455297Y-92997352D01*
X93455297Y-92997352D02*
X93502916Y-92806876D01*
X93502916Y-92806876D02*
X93502916Y-92425924D01*
X93502916Y-92425924D02*
X93455297Y-92330686D01*
X93455297Y-92330686D02*
X93407678Y-92283067D01*
X93407678Y-92283067D02*
X93312440Y-92235448D01*
X93312440Y-92235448D02*
X93121964Y-92235448D01*
X93121964Y-92235448D02*
X93026726Y-92283067D01*
X93026726Y-92283067D02*
X92979107Y-92330686D01*
X92979107Y-92330686D02*
X92931488Y-92425924D01*
X92931488Y-92425924D02*
X92931488Y-92664019D01*
X92931488Y-92664019D02*
X92979107Y-92759257D01*
X92979107Y-92759257D02*
X93026726Y-92806876D01*
X93026726Y-92806876D02*
X93121964Y-92854495D01*
X93121964Y-92854495D02*
X93312440Y-92854495D01*
X93312440Y-92854495D02*
X93407678Y-92806876D01*
X93407678Y-92806876D02*
X93455297Y-92759257D01*
X93455297Y-92759257D02*
X93502916Y-92664019D01*
X69108711Y-86857074D02*
X68632521Y-86857074D01*
X68632521Y-86857074D02*
X68584902Y-87333264D01*
X68584902Y-87333264D02*
X68632521Y-87285645D01*
X68632521Y-87285645D02*
X68727759Y-87238026D01*
X68727759Y-87238026D02*
X68965854Y-87238026D01*
X68965854Y-87238026D02*
X69061092Y-87285645D01*
X69061092Y-87285645D02*
X69108711Y-87333264D01*
X69108711Y-87333264D02*
X69156330Y-87428502D01*
X69156330Y-87428502D02*
X69156330Y-87666597D01*
X69156330Y-87666597D02*
X69108711Y-87761835D01*
X69108711Y-87761835D02*
X69061092Y-87809455D01*
X69061092Y-87809455D02*
X68965854Y-87857074D01*
X68965854Y-87857074D02*
X68727759Y-87857074D01*
X68727759Y-87857074D02*
X68632521Y-87809455D01*
X68632521Y-87809455D02*
X68584902Y-87761835D01*
X69775378Y-86857074D02*
X69870616Y-86857074D01*
X69870616Y-86857074D02*
X69965854Y-86904693D01*
X69965854Y-86904693D02*
X70013473Y-86952312D01*
X70013473Y-86952312D02*
X70061092Y-87047550D01*
X70061092Y-87047550D02*
X70108711Y-87238026D01*
X70108711Y-87238026D02*
X70108711Y-87476121D01*
X70108711Y-87476121D02*
X70061092Y-87666597D01*
X70061092Y-87666597D02*
X70013473Y-87761835D01*
X70013473Y-87761835D02*
X69965854Y-87809455D01*
X69965854Y-87809455D02*
X69870616Y-87857074D01*
X69870616Y-87857074D02*
X69775378Y-87857074D01*
X69775378Y-87857074D02*
X69680140Y-87809455D01*
X69680140Y-87809455D02*
X69632521Y-87761835D01*
X69632521Y-87761835D02*
X69584902Y-87666597D01*
X69584902Y-87666597D02*
X69537283Y-87476121D01*
X69537283Y-87476121D02*
X69537283Y-87238026D01*
X69537283Y-87238026D02*
X69584902Y-87047550D01*
X69584902Y-87047550D02*
X69632521Y-86952312D01*
X69632521Y-86952312D02*
X69680140Y-86904693D01*
X69680140Y-86904693D02*
X69775378Y-86857074D01*
X70537283Y-87857074D02*
X70537283Y-87190407D01*
X70537283Y-87285645D02*
X70584902Y-87238026D01*
X70584902Y-87238026D02*
X70680140Y-87190407D01*
X70680140Y-87190407D02*
X70822997Y-87190407D01*
X70822997Y-87190407D02*
X70918235Y-87238026D01*
X70918235Y-87238026D02*
X70965854Y-87333264D01*
X70965854Y-87333264D02*
X70965854Y-87857074D01*
X70965854Y-87333264D02*
X71013473Y-87238026D01*
X71013473Y-87238026D02*
X71108711Y-87190407D01*
X71108711Y-87190407D02*
X71251568Y-87190407D01*
X71251568Y-87190407D02*
X71346807Y-87238026D01*
X71346807Y-87238026D02*
X71394426Y-87333264D01*
X71394426Y-87333264D02*
X71394426Y-87857074D01*
X71870616Y-87857074D02*
X71870616Y-87190407D01*
X71870616Y-87285645D02*
X71918235Y-87238026D01*
X71918235Y-87238026D02*
X72013473Y-87190407D01*
X72013473Y-87190407D02*
X72156330Y-87190407D01*
X72156330Y-87190407D02*
X72251568Y-87238026D01*
X72251568Y-87238026D02*
X72299187Y-87333264D01*
X72299187Y-87333264D02*
X72299187Y-87857074D01*
X72299187Y-87333264D02*
X72346806Y-87238026D01*
X72346806Y-87238026D02*
X72442044Y-87190407D01*
X72442044Y-87190407D02*
X72584901Y-87190407D01*
X72584901Y-87190407D02*
X72680140Y-87238026D01*
X72680140Y-87238026D02*
X72727759Y-87333264D01*
X72727759Y-87333264D02*
X72727759Y-87857074D01*
X73108711Y-87857074D02*
X73632520Y-87190407D01*
X73108711Y-87190407D02*
X73632520Y-87857074D01*
X74489663Y-86857074D02*
X74013473Y-86857074D01*
X74013473Y-86857074D02*
X73965854Y-87333264D01*
X73965854Y-87333264D02*
X74013473Y-87285645D01*
X74013473Y-87285645D02*
X74108711Y-87238026D01*
X74108711Y-87238026D02*
X74346806Y-87238026D01*
X74346806Y-87238026D02*
X74442044Y-87285645D01*
X74442044Y-87285645D02*
X74489663Y-87333264D01*
X74489663Y-87333264D02*
X74537282Y-87428502D01*
X74537282Y-87428502D02*
X74537282Y-87666597D01*
X74537282Y-87666597D02*
X74489663Y-87761835D01*
X74489663Y-87761835D02*
X74442044Y-87809455D01*
X74442044Y-87809455D02*
X74346806Y-87857074D01*
X74346806Y-87857074D02*
X74108711Y-87857074D01*
X74108711Y-87857074D02*
X74013473Y-87809455D01*
X74013473Y-87809455D02*
X73965854Y-87761835D01*
X75156330Y-86857074D02*
X75251568Y-86857074D01*
X75251568Y-86857074D02*
X75346806Y-86904693D01*
X75346806Y-86904693D02*
X75394425Y-86952312D01*
X75394425Y-86952312D02*
X75442044Y-87047550D01*
X75442044Y-87047550D02*
X75489663Y-87238026D01*
X75489663Y-87238026D02*
X75489663Y-87476121D01*
X75489663Y-87476121D02*
X75442044Y-87666597D01*
X75442044Y-87666597D02*
X75394425Y-87761835D01*
X75394425Y-87761835D02*
X75346806Y-87809455D01*
X75346806Y-87809455D02*
X75251568Y-87857074D01*
X75251568Y-87857074D02*
X75156330Y-87857074D01*
X75156330Y-87857074D02*
X75061092Y-87809455D01*
X75061092Y-87809455D02*
X75013473Y-87761835D01*
X75013473Y-87761835D02*
X74965854Y-87666597D01*
X74965854Y-87666597D02*
X74918235Y-87476121D01*
X74918235Y-87476121D02*
X74918235Y-87238026D01*
X74918235Y-87238026D02*
X74965854Y-87047550D01*
X74965854Y-87047550D02*
X75013473Y-86952312D01*
X75013473Y-86952312D02*
X75061092Y-86904693D01*
X75061092Y-86904693D02*
X75156330Y-86857074D01*
X75918235Y-87857074D02*
X75918235Y-87190407D01*
X75918235Y-87285645D02*
X75965854Y-87238026D01*
X75965854Y-87238026D02*
X76061092Y-87190407D01*
X76061092Y-87190407D02*
X76203949Y-87190407D01*
X76203949Y-87190407D02*
X76299187Y-87238026D01*
X76299187Y-87238026D02*
X76346806Y-87333264D01*
X76346806Y-87333264D02*
X76346806Y-87857074D01*
X76346806Y-87333264D02*
X76394425Y-87238026D01*
X76394425Y-87238026D02*
X76489663Y-87190407D01*
X76489663Y-87190407D02*
X76632520Y-87190407D01*
X76632520Y-87190407D02*
X76727759Y-87238026D01*
X76727759Y-87238026D02*
X76775378Y-87333264D01*
X76775378Y-87333264D02*
X76775378Y-87857074D01*
X77251568Y-87857074D02*
X77251568Y-87190407D01*
X77251568Y-87285645D02*
X77299187Y-87238026D01*
X77299187Y-87238026D02*
X77394425Y-87190407D01*
X77394425Y-87190407D02*
X77537282Y-87190407D01*
X77537282Y-87190407D02*
X77632520Y-87238026D01*
X77632520Y-87238026D02*
X77680139Y-87333264D01*
X77680139Y-87333264D02*
X77680139Y-87857074D01*
X77680139Y-87333264D02*
X77727758Y-87238026D01*
X77727758Y-87238026D02*
X77822996Y-87190407D01*
X77822996Y-87190407D02*
X77965853Y-87190407D01*
X77965853Y-87190407D02*
X78061092Y-87238026D01*
X78061092Y-87238026D02*
X78108711Y-87333264D01*
X78108711Y-87333264D02*
X78108711Y-87857074D01*
D11*
X92624500Y-113293378D02*
X92053072Y-113293378D01*
X92338786Y-113293378D02*
X92338786Y-112293378D01*
X92338786Y-112293378D02*
X92243548Y-112436235D01*
X92243548Y-112436235D02*
X92148310Y-112531473D01*
X92148310Y-112531473D02*
X92053072Y-112579092D01*
X93529262Y-112293378D02*
X93053072Y-112293378D01*
X93053072Y-112293378D02*
X93005453Y-112769568D01*
X93005453Y-112769568D02*
X93053072Y-112721949D01*
X93053072Y-112721949D02*
X93148310Y-112674330D01*
X93148310Y-112674330D02*
X93386405Y-112674330D01*
X93386405Y-112674330D02*
X93481643Y-112721949D01*
X93481643Y-112721949D02*
X93529262Y-112769568D01*
X93529262Y-112769568D02*
X93576881Y-112864806D01*
X93576881Y-112864806D02*
X93576881Y-113102901D01*
X93576881Y-113102901D02*
X93529262Y-113198139D01*
X93529262Y-113198139D02*
X93481643Y-113245759D01*
X93481643Y-113245759D02*
X93386405Y-113293378D01*
X93386405Y-113293378D02*
X93148310Y-113293378D01*
X93148310Y-113293378D02*
X93053072Y-113245759D01*
X93053072Y-113245759D02*
X93005453Y-113198139D01*
X94910214Y-113293378D02*
X94338786Y-113293378D01*
X94624500Y-113293378D02*
X94624500Y-112293378D01*
X94624500Y-112293378D02*
X94529262Y-112436235D01*
X94529262Y-112436235D02*
X94434024Y-112531473D01*
X94434024Y-112531473D02*
X94338786Y-112579092D01*
X95767357Y-112626711D02*
X95767357Y-113293378D01*
X95529262Y-112245759D02*
X95291167Y-112960044D01*
X95291167Y-112960044D02*
X95910214Y-112960044D01*
X97291166Y-113293378D02*
X96719738Y-113293378D01*
X97005452Y-113293378D02*
X97005452Y-112293378D01*
X97005452Y-112293378D02*
X96910214Y-112436235D01*
X96910214Y-112436235D02*
X96814976Y-112531473D01*
X96814976Y-112531473D02*
X96719738Y-112579092D01*
X97624500Y-112293378D02*
X98243547Y-112293378D01*
X98243547Y-112293378D02*
X97910214Y-112674330D01*
X97910214Y-112674330D02*
X98053071Y-112674330D01*
X98053071Y-112674330D02*
X98148309Y-112721949D01*
X98148309Y-112721949D02*
X98195928Y-112769568D01*
X98195928Y-112769568D02*
X98243547Y-112864806D01*
X98243547Y-112864806D02*
X98243547Y-113102901D01*
X98243547Y-113102901D02*
X98195928Y-113198139D01*
X98195928Y-113198139D02*
X98148309Y-113245759D01*
X98148309Y-113245759D02*
X98053071Y-113293378D01*
X98053071Y-113293378D02*
X97767357Y-113293378D01*
X97767357Y-113293378D02*
X97672119Y-113245759D01*
X97672119Y-113245759D02*
X97624500Y-113198139D01*
X99576880Y-113293378D02*
X99005452Y-113293378D01*
X99291166Y-113293378D02*
X99291166Y-112293378D01*
X99291166Y-112293378D02*
X99195928Y-112436235D01*
X99195928Y-112436235D02*
X99100690Y-112531473D01*
X99100690Y-112531473D02*
X99005452Y-112579092D01*
X99957833Y-112388616D02*
X100005452Y-112340997D01*
X100005452Y-112340997D02*
X100100690Y-112293378D01*
X100100690Y-112293378D02*
X100338785Y-112293378D01*
X100338785Y-112293378D02*
X100434023Y-112340997D01*
X100434023Y-112340997D02*
X100481642Y-112388616D01*
X100481642Y-112388616D02*
X100529261Y-112483854D01*
X100529261Y-112483854D02*
X100529261Y-112579092D01*
X100529261Y-112579092D02*
X100481642Y-112721949D01*
X100481642Y-112721949D02*
X99910214Y-113293378D01*
X99910214Y-113293378D02*
X100529261Y-113293378D01*
X101862594Y-113293378D02*
X101291166Y-113293378D01*
X101576880Y-113293378D02*
X101576880Y-112293378D01*
X101576880Y-112293378D02*
X101481642Y-112436235D01*
X101481642Y-112436235D02*
X101386404Y-112531473D01*
X101386404Y-112531473D02*
X101291166Y-112579092D01*
X102814975Y-113293378D02*
X102243547Y-113293378D01*
X102529261Y-113293378D02*
X102529261Y-112293378D01*
X102529261Y-112293378D02*
X102434023Y-112436235D01*
X102434023Y-112436235D02*
X102338785Y-112531473D01*
X102338785Y-112531473D02*
X102243547Y-112579092D01*
D10*
X104996525Y-106513031D02*
X104806049Y-106513031D01*
X104806049Y-106513031D02*
X104710811Y-106560650D01*
X104710811Y-106560650D02*
X104663192Y-106608269D01*
X104663192Y-106608269D02*
X104567954Y-106751126D01*
X104567954Y-106751126D02*
X104520335Y-106941602D01*
X104520335Y-106941602D02*
X104520335Y-107322554D01*
X104520335Y-107322554D02*
X104567954Y-107417792D01*
X104567954Y-107417792D02*
X104615573Y-107465412D01*
X104615573Y-107465412D02*
X104710811Y-107513031D01*
X104710811Y-107513031D02*
X104901287Y-107513031D01*
X104901287Y-107513031D02*
X104996525Y-107465412D01*
X104996525Y-107465412D02*
X105044144Y-107417792D01*
X105044144Y-107417792D02*
X105091763Y-107322554D01*
X105091763Y-107322554D02*
X105091763Y-107084459D01*
X105091763Y-107084459D02*
X105044144Y-106989221D01*
X105044144Y-106989221D02*
X104996525Y-106941602D01*
X104996525Y-106941602D02*
X104901287Y-106893983D01*
X104901287Y-106893983D02*
X104710811Y-106893983D01*
X104710811Y-106893983D02*
X104615573Y-106941602D01*
X104615573Y-106941602D02*
X104567954Y-106989221D01*
X104567954Y-106989221D02*
X104520335Y-107084459D01*
D11*
X92977052Y-101196323D02*
X92500862Y-101196323D01*
X92500862Y-101196323D02*
X92453243Y-101672513D01*
X92453243Y-101672513D02*
X92500862Y-101624894D01*
X92500862Y-101624894D02*
X92596100Y-101577275D01*
X92596100Y-101577275D02*
X92834195Y-101577275D01*
X92834195Y-101577275D02*
X92929433Y-101624894D01*
X92929433Y-101624894D02*
X92977052Y-101672513D01*
X92977052Y-101672513D02*
X93024671Y-101767751D01*
X93024671Y-101767751D02*
X93024671Y-102005846D01*
X93024671Y-102005846D02*
X92977052Y-102101084D01*
X92977052Y-102101084D02*
X92929433Y-102148704D01*
X92929433Y-102148704D02*
X92834195Y-102196323D01*
X92834195Y-102196323D02*
X92596100Y-102196323D01*
X92596100Y-102196323D02*
X92500862Y-102148704D01*
X92500862Y-102148704D02*
X92453243Y-102101084D01*
X95215147Y-101529656D02*
X95215147Y-102196323D01*
X94977052Y-101148704D02*
X94738957Y-101862989D01*
X94738957Y-101862989D02*
X95358004Y-101862989D01*
X97167528Y-101196323D02*
X97786575Y-101196323D01*
X97786575Y-101196323D02*
X97453242Y-101577275D01*
X97453242Y-101577275D02*
X97596099Y-101577275D01*
X97596099Y-101577275D02*
X97691337Y-101624894D01*
X97691337Y-101624894D02*
X97738956Y-101672513D01*
X97738956Y-101672513D02*
X97786575Y-101767751D01*
X97786575Y-101767751D02*
X97786575Y-102005846D01*
X97786575Y-102005846D02*
X97738956Y-102101084D01*
X97738956Y-102101084D02*
X97691337Y-102148704D01*
X97691337Y-102148704D02*
X97596099Y-102196323D01*
X97596099Y-102196323D02*
X97310385Y-102196323D01*
X97310385Y-102196323D02*
X97215147Y-102148704D01*
X97215147Y-102148704D02*
X97167528Y-102101084D01*
X99500861Y-101291561D02*
X99548480Y-101243942D01*
X99548480Y-101243942D02*
X99643718Y-101196323D01*
X99643718Y-101196323D02*
X99881813Y-101196323D01*
X99881813Y-101196323D02*
X99977051Y-101243942D01*
X99977051Y-101243942D02*
X100024670Y-101291561D01*
X100024670Y-101291561D02*
X100072289Y-101386799D01*
X100072289Y-101386799D02*
X100072289Y-101482037D01*
X100072289Y-101482037D02*
X100024670Y-101624894D01*
X100024670Y-101624894D02*
X99453242Y-102196323D01*
X99453242Y-102196323D02*
X100072289Y-102196323D01*
X102358003Y-102196323D02*
X101786575Y-102196323D01*
X102072289Y-102196323D02*
X102072289Y-101196323D01*
X102072289Y-101196323D02*
X101977051Y-101339180D01*
X101977051Y-101339180D02*
X101881813Y-101434418D01*
X101881813Y-101434418D02*
X101786575Y-101482037D01*
D10*
X101013917Y-92264907D02*
X100537727Y-92264907D01*
X100537727Y-92264907D02*
X100490108Y-92741097D01*
X100490108Y-92741097D02*
X100537727Y-92693478D01*
X100537727Y-92693478D02*
X100632965Y-92645859D01*
X100632965Y-92645859D02*
X100871060Y-92645859D01*
X100871060Y-92645859D02*
X100966298Y-92693478D01*
X100966298Y-92693478D02*
X101013917Y-92741097D01*
X101013917Y-92741097D02*
X101061536Y-92836335D01*
X101061536Y-92836335D02*
X101061536Y-93074430D01*
X101061536Y-93074430D02*
X101013917Y-93169668D01*
X101013917Y-93169668D02*
X100966298Y-93217288D01*
X100966298Y-93217288D02*
X100871060Y-93264907D01*
X100871060Y-93264907D02*
X100632965Y-93264907D01*
X100632965Y-93264907D02*
X100537727Y-93217288D01*
X100537727Y-93217288D02*
X100490108Y-93169668D01*
X87775276Y-93318466D02*
X87203848Y-93318466D01*
X87489562Y-93318466D02*
X87489562Y-92318466D01*
X87489562Y-92318466D02*
X87394324Y-92461323D01*
X87394324Y-92461323D02*
X87299086Y-92556561D01*
X87299086Y-92556561D02*
X87203848Y-92604180D01*
X88156229Y-92413704D02*
X88203848Y-92366085D01*
X88203848Y-92366085D02*
X88299086Y-92318466D01*
X88299086Y-92318466D02*
X88537181Y-92318466D01*
X88537181Y-92318466D02*
X88632419Y-92366085D01*
X88632419Y-92366085D02*
X88680038Y-92413704D01*
X88680038Y-92413704D02*
X88727657Y-92508942D01*
X88727657Y-92508942D02*
X88727657Y-92604180D01*
X88727657Y-92604180D02*
X88680038Y-92747037D01*
X88680038Y-92747037D02*
X88108610Y-93318466D01*
X88108610Y-93318466D02*
X88727657Y-93318466D01*
X102942489Y-92264907D02*
X103561536Y-92264907D01*
X103561536Y-92264907D02*
X103228203Y-92645859D01*
X103228203Y-92645859D02*
X103371060Y-92645859D01*
X103371060Y-92645859D02*
X103466298Y-92693478D01*
X103466298Y-92693478D02*
X103513917Y-92741097D01*
X103513917Y-92741097D02*
X103561536Y-92836335D01*
X103561536Y-92836335D02*
X103561536Y-93074430D01*
X103561536Y-93074430D02*
X103513917Y-93169668D01*
X103513917Y-93169668D02*
X103466298Y-93217288D01*
X103466298Y-93217288D02*
X103371060Y-93264907D01*
X103371060Y-93264907D02*
X103085346Y-93264907D01*
X103085346Y-93264907D02*
X102990108Y-93217288D01*
X102990108Y-93217288D02*
X102942489Y-93169668D01*
D12*
X71697368Y-112300828D02*
X71697368Y-113300828D01*
X71054510Y-112300828D02*
X71054510Y-113086542D01*
X71054510Y-113086542D02*
X71125939Y-113229400D01*
X71125939Y-113229400D02*
X71268796Y-113300828D01*
X71268796Y-113300828D02*
X71483082Y-113300828D01*
X71483082Y-113300828D02*
X71625939Y-113229400D01*
X71625939Y-113229400D02*
X71697368Y-113157971D01*
X72340225Y-113229400D02*
X72483082Y-113300828D01*
X72483082Y-113300828D02*
X72768796Y-113300828D01*
X72768796Y-113300828D02*
X72911653Y-113229400D01*
X72911653Y-113229400D02*
X72983082Y-113086542D01*
X72983082Y-113086542D02*
X72983082Y-113015114D01*
X72983082Y-113015114D02*
X72911653Y-112872257D01*
X72911653Y-112872257D02*
X72768796Y-112800828D01*
X72768796Y-112800828D02*
X72554511Y-112800828D01*
X72554511Y-112800828D02*
X72411653Y-112729400D01*
X72411653Y-112729400D02*
X72340225Y-112586542D01*
X72340225Y-112586542D02*
X72340225Y-112515114D01*
X72340225Y-112515114D02*
X72411653Y-112372257D01*
X72411653Y-112372257D02*
X72554511Y-112300828D01*
X72554511Y-112300828D02*
X72768796Y-112300828D01*
X72768796Y-112300828D02*
X72911653Y-112372257D01*
X73625939Y-113300828D02*
X73625939Y-111800828D01*
X73625939Y-112372257D02*
X73768797Y-112300828D01*
X73768797Y-112300828D02*
X74054511Y-112300828D01*
X74054511Y-112300828D02*
X74197368Y-112372257D01*
X74197368Y-112372257D02*
X74268797Y-112443685D01*
X74268797Y-112443685D02*
X74340225Y-112586542D01*
X74340225Y-112586542D02*
X74340225Y-113015114D01*
X74340225Y-113015114D02*
X74268797Y-113157971D01*
X74268797Y-113157971D02*
X74197368Y-113229400D01*
X74197368Y-113229400D02*
X74054511Y-113300828D01*
X74054511Y-113300828D02*
X73768797Y-113300828D01*
X73768797Y-113300828D02*
X73625939Y-113229400D01*
X71054510Y-107800828D02*
X71054510Y-106300828D01*
X71697368Y-107800828D02*
X71697368Y-107015114D01*
X71697368Y-107015114D02*
X71625939Y-106872257D01*
X71625939Y-106872257D02*
X71483082Y-106800828D01*
X71483082Y-106800828D02*
X71268796Y-106800828D01*
X71268796Y-106800828D02*
X71125939Y-106872257D01*
X71125939Y-106872257D02*
X71054510Y-106943685D01*
X73054511Y-107800828D02*
X73054511Y-106300828D01*
X73054511Y-107729400D02*
X72911653Y-107800828D01*
X72911653Y-107800828D02*
X72625939Y-107800828D01*
X72625939Y-107800828D02*
X72483082Y-107729400D01*
X72483082Y-107729400D02*
X72411653Y-107657971D01*
X72411653Y-107657971D02*
X72340225Y-107515114D01*
X72340225Y-107515114D02*
X72340225Y-107086542D01*
X72340225Y-107086542D02*
X72411653Y-106943685D01*
X72411653Y-106943685D02*
X72483082Y-106872257D01*
X72483082Y-106872257D02*
X72625939Y-106800828D01*
X72625939Y-106800828D02*
X72911653Y-106800828D01*
X72911653Y-106800828D02*
X73054511Y-106872257D01*
X73768796Y-107800828D02*
X73768796Y-106800828D01*
X73768796Y-107086542D02*
X73840225Y-106943685D01*
X73840225Y-106943685D02*
X73911654Y-106872257D01*
X73911654Y-106872257D02*
X74054511Y-106800828D01*
X74054511Y-106800828D02*
X74197368Y-106800828D01*
D13*
X109954819Y-96333333D02*
X110669104Y-96333333D01*
X110669104Y-96333333D02*
X110811961Y-96380952D01*
X110811961Y-96380952D02*
X110907200Y-96476190D01*
X110907200Y-96476190D02*
X110954819Y-96619047D01*
X110954819Y-96619047D02*
X110954819Y-96714285D01*
X110050057Y-95904761D02*
X110002438Y-95857142D01*
X110002438Y-95857142D02*
X109954819Y-95761904D01*
X109954819Y-95761904D02*
X109954819Y-95523809D01*
X109954819Y-95523809D02*
X110002438Y-95428571D01*
X110002438Y-95428571D02*
X110050057Y-95380952D01*
X110050057Y-95380952D02*
X110145295Y-95333333D01*
X110145295Y-95333333D02*
X110240533Y-95333333D01*
X110240533Y-95333333D02*
X110383390Y-95380952D01*
X110383390Y-95380952D02*
X110954819Y-95952380D01*
X110954819Y-95952380D02*
X110954819Y-95333333D01*
X72925572Y-110948822D02*
X72592239Y-110948822D01*
X72592239Y-111472632D02*
X72592239Y-110472632D01*
X72592239Y-110472632D02*
X73068429Y-110472632D01*
X73782715Y-110948822D02*
X73925572Y-110996441D01*
X73925572Y-110996441D02*
X73973191Y-111044060D01*
X73973191Y-111044060D02*
X74020810Y-111139298D01*
X74020810Y-111139298D02*
X74020810Y-111282155D01*
X74020810Y-111282155D02*
X73973191Y-111377393D01*
X73973191Y-111377393D02*
X73925572Y-111425013D01*
X73925572Y-111425013D02*
X73830334Y-111472632D01*
X73830334Y-111472632D02*
X73449382Y-111472632D01*
X73449382Y-111472632D02*
X73449382Y-110472632D01*
X73449382Y-110472632D02*
X73782715Y-110472632D01*
X73782715Y-110472632D02*
X73877953Y-110520251D01*
X73877953Y-110520251D02*
X73925572Y-110567870D01*
X73925572Y-110567870D02*
X73973191Y-110663108D01*
X73973191Y-110663108D02*
X73973191Y-110758346D01*
X73973191Y-110758346D02*
X73925572Y-110853584D01*
X73925572Y-110853584D02*
X73877953Y-110901203D01*
X73877953Y-110901203D02*
X73782715Y-110948822D01*
X73782715Y-110948822D02*
X73449382Y-110948822D01*
X74401763Y-110567870D02*
X74449382Y-110520251D01*
X74449382Y-110520251D02*
X74544620Y-110472632D01*
X74544620Y-110472632D02*
X74782715Y-110472632D01*
X74782715Y-110472632D02*
X74877953Y-110520251D01*
X74877953Y-110520251D02*
X74925572Y-110567870D01*
X74925572Y-110567870D02*
X74973191Y-110663108D01*
X74973191Y-110663108D02*
X74973191Y-110758346D01*
X74973191Y-110758346D02*
X74925572Y-110901203D01*
X74925572Y-110901203D02*
X74354144Y-111472632D01*
X74354144Y-111472632D02*
X74973191Y-111472632D01*
X80600015Y-98794023D02*
X80123824Y-99127356D01*
X80600015Y-99365451D02*
X79600015Y-99365451D01*
X79600015Y-99365451D02*
X79600015Y-98984499D01*
X79600015Y-98984499D02*
X79647634Y-98889261D01*
X79647634Y-98889261D02*
X79695253Y-98841642D01*
X79695253Y-98841642D02*
X79790491Y-98794023D01*
X79790491Y-98794023D02*
X79933348Y-98794023D01*
X79933348Y-98794023D02*
X80028586Y-98841642D01*
X80028586Y-98841642D02*
X80076205Y-98889261D01*
X80076205Y-98889261D02*
X80123824Y-98984499D01*
X80123824Y-98984499D02*
X80123824Y-99365451D01*
X80600015Y-97841642D02*
X80600015Y-98413070D01*
X80600015Y-98127356D02*
X79600015Y-98127356D01*
X79600015Y-98127356D02*
X79742872Y-98222594D01*
X79742872Y-98222594D02*
X79838110Y-98317832D01*
X79838110Y-98317832D02*
X79885729Y-98413070D01*
X80607200Y-111333332D02*
X80654819Y-111190475D01*
X80654819Y-111190475D02*
X80654819Y-110952380D01*
X80654819Y-110952380D02*
X80607200Y-110857142D01*
X80607200Y-110857142D02*
X80559580Y-110809523D01*
X80559580Y-110809523D02*
X80464342Y-110761904D01*
X80464342Y-110761904D02*
X80369104Y-110761904D01*
X80369104Y-110761904D02*
X80273866Y-110809523D01*
X80273866Y-110809523D02*
X80226247Y-110857142D01*
X80226247Y-110857142D02*
X80178628Y-110952380D01*
X80178628Y-110952380D02*
X80131009Y-111142856D01*
X80131009Y-111142856D02*
X80083390Y-111238094D01*
X80083390Y-111238094D02*
X80035771Y-111285713D01*
X80035771Y-111285713D02*
X79940533Y-111333332D01*
X79940533Y-111333332D02*
X79845295Y-111333332D01*
X79845295Y-111333332D02*
X79750057Y-111285713D01*
X79750057Y-111285713D02*
X79702438Y-111238094D01*
X79702438Y-111238094D02*
X79654819Y-111142856D01*
X79654819Y-111142856D02*
X79654819Y-110904761D01*
X79654819Y-110904761D02*
X79702438Y-110761904D01*
X79654819Y-110428570D02*
X80654819Y-110190475D01*
X80654819Y-110190475D02*
X79940533Y-109999999D01*
X79940533Y-109999999D02*
X80654819Y-109809523D01*
X80654819Y-109809523D02*
X79654819Y-109571428D01*
X80654819Y-108666666D02*
X80654819Y-109238094D01*
X80654819Y-108952380D02*
X79654819Y-108952380D01*
X79654819Y-108952380D02*
X79797676Y-109047618D01*
X79797676Y-109047618D02*
X79892914Y-109142856D01*
X79892914Y-109142856D02*
X79940533Y-109238094D01*
X80546868Y-101917436D02*
X80070677Y-102250769D01*
X80546868Y-102488864D02*
X79546868Y-102488864D01*
X79546868Y-102488864D02*
X79546868Y-102107912D01*
X79546868Y-102107912D02*
X79594487Y-102012674D01*
X79594487Y-102012674D02*
X79642106Y-101965055D01*
X79642106Y-101965055D02*
X79737344Y-101917436D01*
X79737344Y-101917436D02*
X79880201Y-101917436D01*
X79880201Y-101917436D02*
X79975439Y-101965055D01*
X79975439Y-101965055D02*
X80023058Y-102012674D01*
X80023058Y-102012674D02*
X80070677Y-102107912D01*
X80070677Y-102107912D02*
X80070677Y-102488864D01*
X79642106Y-101536483D02*
X79594487Y-101488864D01*
X79594487Y-101488864D02*
X79546868Y-101393626D01*
X79546868Y-101393626D02*
X79546868Y-101155531D01*
X79546868Y-101155531D02*
X79594487Y-101060293D01*
X79594487Y-101060293D02*
X79642106Y-101012674D01*
X79642106Y-101012674D02*
X79737344Y-100965055D01*
X79737344Y-100965055D02*
X79832582Y-100965055D01*
X79832582Y-100965055D02*
X79975439Y-101012674D01*
X79975439Y-101012674D02*
X80546868Y-101584102D01*
X80546868Y-101584102D02*
X80546868Y-100965055D01*
X79724180Y-94666666D02*
X79009895Y-94666666D01*
X79009895Y-94666666D02*
X78867038Y-94619047D01*
X78867038Y-94619047D02*
X78771800Y-94523809D01*
X78771800Y-94523809D02*
X78724180Y-94380952D01*
X78724180Y-94380952D02*
X78724180Y-94285714D01*
X79724180Y-95047619D02*
X79724180Y-95666666D01*
X79724180Y-95666666D02*
X79343228Y-95333333D01*
X79343228Y-95333333D02*
X79343228Y-95476190D01*
X79343228Y-95476190D02*
X79295609Y-95571428D01*
X79295609Y-95571428D02*
X79247990Y-95619047D01*
X79247990Y-95619047D02*
X79152752Y-95666666D01*
X79152752Y-95666666D02*
X78914657Y-95666666D01*
X78914657Y-95666666D02*
X78819419Y-95619047D01*
X78819419Y-95619047D02*
X78771800Y-95571428D01*
X78771800Y-95571428D02*
X78724180Y-95476190D01*
X78724180Y-95476190D02*
X78724180Y-95190476D01*
X78724180Y-95190476D02*
X78771800Y-95095238D01*
X78771800Y-95095238D02*
X78819419Y-95047619D01*
X97418558Y-99257078D02*
X97418558Y-99971363D01*
X97418558Y-99971363D02*
X97370939Y-100114220D01*
X97370939Y-100114220D02*
X97275701Y-100209459D01*
X97275701Y-100209459D02*
X97132844Y-100257078D01*
X97132844Y-100257078D02*
X97037606Y-100257078D01*
X98418558Y-100257078D02*
X97847130Y-100257078D01*
X98132844Y-100257078D02*
X98132844Y-99257078D01*
X98132844Y-99257078D02*
X98037606Y-99399935D01*
X98037606Y-99399935D02*
X97942368Y-99495173D01*
X97942368Y-99495173D02*
X97847130Y-99542792D01*
D14*
%TO.C,J2*%
X109880000Y-93564201D02*
X109880000Y-94944201D01*
X108500000Y-93564201D02*
X109880000Y-93564201D01*
X107230000Y-96324201D02*
X81720000Y-96324201D01*
X107230000Y-93564201D02*
X107230000Y-96324201D01*
X107230000Y-93564201D02*
X81720000Y-93564201D01*
X81720000Y-93564201D02*
X81720000Y-96324201D01*
%TO.C,FB2*%
X70940000Y-110399622D02*
X70940000Y-109600378D01*
X72060000Y-110399622D02*
X72060000Y-109600378D01*
%TO.C,R1*%
X79167696Y-98864615D02*
X79167696Y-98390099D01*
X78122696Y-98864615D02*
X78122696Y-98390099D01*
%TO.C,SW1*%
X73770000Y-108800000D02*
X73770000Y-109700000D01*
X73980000Y-108600000D02*
X73770000Y-108800000D01*
X73980000Y-109900000D02*
X73770000Y-109700000D01*
X73980000Y-109900000D02*
X75270000Y-109900000D01*
X75270000Y-107150000D02*
X75270000Y-112850000D01*
X75270000Y-108600000D02*
X73980000Y-108600000D01*
X76280000Y-113450000D02*
X77070000Y-113450000D01*
X77070000Y-106550000D02*
X76280000Y-106550000D01*
X78120000Y-108400000D02*
X78120000Y-110100000D01*
X78120000Y-111400000D02*
X78120000Y-111600000D01*
%TO.C,R2*%
X79184549Y-101513512D02*
X79184549Y-101988028D01*
X78139549Y-101513512D02*
X78139549Y-101988028D01*
%TO.C,J3*%
X73750000Y-104670000D02*
X75450000Y-104670000D01*
X73750000Y-95330000D02*
X75450000Y-95330000D01*
%TO.C,J1*%
X82266892Y-112362259D02*
X82266892Y-101862259D01*
X83326892Y-100802259D02*
X112176892Y-100802259D01*
X90714159Y-109750515D02*
X89885422Y-105050515D01*
X91520203Y-103102259D02*
X103983581Y-103102259D01*
X101816892Y-99907921D02*
X102316892Y-99907921D01*
X102066892Y-100340934D02*
X101816892Y-99907921D01*
X102316892Y-99907921D02*
X102066892Y-100340934D01*
X103154844Y-111122259D02*
X92348940Y-111122259D01*
X105618362Y-105050515D02*
X104789625Y-109750515D01*
X112176892Y-113422259D02*
X83326892Y-113422259D01*
X113236892Y-101862259D02*
X113236892Y-112362259D01*
X82266892Y-101862259D02*
G75*
G02*
X83326892Y-100802259I1060001J-1D01*
G01*
X83326892Y-113422259D02*
G75*
G02*
X82266892Y-112362259I1J1060001D01*
G01*
X89885422Y-105050515D02*
G75*
G02*
X91520203Y-103102259I1634781J288256D01*
G01*
X92348940Y-111122259D02*
G75*
G02*
X90714159Y-109750515I-1J1659999D01*
G01*
X103983581Y-103102259D02*
G75*
G02*
X105618363Y-105050515I1J-1660000D01*
G01*
X104789625Y-109750515D02*
G75*
G02*
X103154844Y-111122259I-1634780J288255D01*
G01*
X112176892Y-100802259D02*
G75*
G02*
X113236892Y-101862259I0J-1060000D01*
G01*
X113236892Y-112362259D02*
G75*
G02*
X112176892Y-113422259I-1060000J0D01*
G01*
%TD*%
M02*
