%TF.GenerationSoftware,KiCad,Pcbnew,9.0.5*%
%TF.CreationDate,2026-05-31T10:05:36+05:30*%
%TF.ProjectId,vga-breakout,7667612d-6272-4656-916b-6f75742e6b69,rev?*%
%TF.SameCoordinates,Original*%
%TF.FileFunction,Legend,Top*%
%TF.FilePolarity,Positive*%
%FSLAX46Y46*%
G04 Gerber Fmt 4.6, Leading zero omitted, Abs format (unit mm)*
G04 Created by KiCad (PCBNEW 9.0.5) date 2026-05-31 10:05:36*
%MOMM*%
%LPD*%
G01*
G04 APERTURE LIST*
%ADD10C,0.100000*%
%ADD11C,0.300000*%
%ADD12C,0.125000*%
%ADD13C,0.150000*%
%ADD14C,0.120000*%
G04 APERTURE END LIST*
D10*
X106618169Y-93173085D02*
X106656265Y-93134990D01*
X106656265Y-93134990D02*
X106732455Y-93096895D01*
X106732455Y-93096895D02*
X106922931Y-93096895D01*
X106922931Y-93096895D02*
X106999122Y-93134990D01*
X106999122Y-93134990D02*
X107037217Y-93173085D01*
X107037217Y-93173085D02*
X107075312Y-93249276D01*
X107075312Y-93249276D02*
X107075312Y-93325466D01*
X107075312Y-93325466D02*
X107037217Y-93439752D01*
X107037217Y-93439752D02*
X106580074Y-93896895D01*
X106580074Y-93896895D02*
X107075312Y-93896895D01*
X85661615Y-93195580D02*
X85661615Y-93862247D01*
X85423520Y-92814628D02*
X85185425Y-93528913D01*
X85185425Y-93528913D02*
X85804472Y-93528913D01*
X95396104Y-93894292D02*
X94824676Y-93894292D01*
X95110390Y-93894292D02*
X95110390Y-92894292D01*
X95110390Y-92894292D02*
X95015152Y-93037149D01*
X95015152Y-93037149D02*
X94919914Y-93132387D01*
X94919914Y-93132387D02*
X94824676Y-93180006D01*
X96253247Y-93227625D02*
X96253247Y-93894292D01*
X96015152Y-92846673D02*
X95777057Y-93560958D01*
X95777057Y-93560958D02*
X96396104Y-93560958D01*
X97985088Y-93869378D02*
X97413660Y-93869378D01*
X97699374Y-93869378D02*
X97699374Y-92869378D01*
X97699374Y-92869378D02*
X97604136Y-93012235D01*
X97604136Y-93012235D02*
X97508898Y-93107473D01*
X97508898Y-93107473D02*
X97413660Y-93155092D01*
X98318422Y-92869378D02*
X98937469Y-92869378D01*
X98937469Y-92869378D02*
X98604136Y-93250330D01*
X98604136Y-93250330D02*
X98746993Y-93250330D01*
X98746993Y-93250330D02*
X98842231Y-93297949D01*
X98842231Y-93297949D02*
X98889850Y-93345568D01*
X98889850Y-93345568D02*
X98937469Y-93440806D01*
X98937469Y-93440806D02*
X98937469Y-93678901D01*
X98937469Y-93678901D02*
X98889850Y-93774139D01*
X98889850Y-93774139D02*
X98842231Y-93821759D01*
X98842231Y-93821759D02*
X98746993Y-93869378D01*
X98746993Y-93869378D02*
X98461279Y-93869378D01*
X98461279Y-93869378D02*
X98366041Y-93821759D01*
X98366041Y-93821759D02*
X98318422Y-93774139D01*
X82725887Y-93889471D02*
X82154459Y-93889471D01*
X82440173Y-93889471D02*
X82440173Y-92889471D01*
X82440173Y-92889471D02*
X82344935Y-93032328D01*
X82344935Y-93032328D02*
X82249697Y-93127566D01*
X82249697Y-93127566D02*
X82154459Y-93175185D01*
X83630649Y-92889471D02*
X83154459Y-92889471D01*
X83154459Y-92889471D02*
X83106840Y-93365661D01*
X83106840Y-93365661D02*
X83154459Y-93318042D01*
X83154459Y-93318042D02*
X83249697Y-93270423D01*
X83249697Y-93270423D02*
X83487792Y-93270423D01*
X83487792Y-93270423D02*
X83583030Y-93318042D01*
X83583030Y-93318042D02*
X83630649Y-93365661D01*
X83630649Y-93365661D02*
X83678268Y-93460899D01*
X83678268Y-93460899D02*
X83678268Y-93698994D01*
X83678268Y-93698994D02*
X83630649Y-93794232D01*
X83630649Y-93794232D02*
X83583030Y-93841852D01*
X83583030Y-93841852D02*
X83487792Y-93889471D01*
X83487792Y-93889471D02*
X83249697Y-93889471D01*
X83249697Y-93889471D02*
X83154459Y-93841852D01*
X83154459Y-93841852D02*
X83106840Y-93794232D01*
X93016726Y-93806453D02*
X93207202Y-93806453D01*
X93207202Y-93806453D02*
X93302440Y-93758834D01*
X93302440Y-93758834D02*
X93350059Y-93711214D01*
X93350059Y-93711214D02*
X93445297Y-93568357D01*
X93445297Y-93568357D02*
X93492916Y-93377881D01*
X93492916Y-93377881D02*
X93492916Y-92996929D01*
X93492916Y-92996929D02*
X93445297Y-92901691D01*
X93445297Y-92901691D02*
X93397678Y-92854072D01*
X93397678Y-92854072D02*
X93302440Y-92806453D01*
X93302440Y-92806453D02*
X93111964Y-92806453D01*
X93111964Y-92806453D02*
X93016726Y-92854072D01*
X93016726Y-92854072D02*
X92969107Y-92901691D01*
X92969107Y-92901691D02*
X92921488Y-92996929D01*
X92921488Y-92996929D02*
X92921488Y-93235024D01*
X92921488Y-93235024D02*
X92969107Y-93330262D01*
X92969107Y-93330262D02*
X93016726Y-93377881D01*
X93016726Y-93377881D02*
X93111964Y-93425500D01*
X93111964Y-93425500D02*
X93302440Y-93425500D01*
X93302440Y-93425500D02*
X93397678Y-93377881D01*
X93397678Y-93377881D02*
X93445297Y-93330262D01*
X93445297Y-93330262D02*
X93492916Y-93235024D01*
X87765276Y-93889471D02*
X87193848Y-93889471D01*
X87479562Y-93889471D02*
X87479562Y-92889471D01*
X87479562Y-92889471D02*
X87384324Y-93032328D01*
X87384324Y-93032328D02*
X87289086Y-93127566D01*
X87289086Y-93127566D02*
X87193848Y-93175185D01*
X88146229Y-92984709D02*
X88193848Y-92937090D01*
X88193848Y-92937090D02*
X88289086Y-92889471D01*
X88289086Y-92889471D02*
X88527181Y-92889471D01*
X88527181Y-92889471D02*
X88622419Y-92937090D01*
X88622419Y-92937090D02*
X88670038Y-92984709D01*
X88670038Y-92984709D02*
X88717657Y-93079947D01*
X88717657Y-93079947D02*
X88717657Y-93175185D01*
X88717657Y-93175185D02*
X88670038Y-93318042D01*
X88670038Y-93318042D02*
X88098610Y-93889471D01*
X88098610Y-93889471D02*
X88717657Y-93889471D01*
X90468196Y-93819772D02*
X89896768Y-93819772D01*
X90182482Y-93819772D02*
X90182482Y-92819772D01*
X90182482Y-92819772D02*
X90087244Y-92962629D01*
X90087244Y-92962629D02*
X89992006Y-93057867D01*
X89992006Y-93057867D02*
X89896768Y-93105486D01*
X91420577Y-93819772D02*
X90849149Y-93819772D01*
X91134863Y-93819772D02*
X91134863Y-92819772D01*
X91134863Y-92819772D02*
X91039625Y-92962629D01*
X91039625Y-92962629D02*
X90944387Y-93057867D01*
X90944387Y-93057867D02*
X90849149Y-93105486D01*
X101003917Y-92835912D02*
X100527727Y-92835912D01*
X100527727Y-92835912D02*
X100480108Y-93312102D01*
X100480108Y-93312102D02*
X100527727Y-93264483D01*
X100527727Y-93264483D02*
X100622965Y-93216864D01*
X100622965Y-93216864D02*
X100861060Y-93216864D01*
X100861060Y-93216864D02*
X100956298Y-93264483D01*
X100956298Y-93264483D02*
X101003917Y-93312102D01*
X101003917Y-93312102D02*
X101051536Y-93407340D01*
X101051536Y-93407340D02*
X101051536Y-93645435D01*
X101051536Y-93645435D02*
X101003917Y-93740673D01*
X101003917Y-93740673D02*
X100956298Y-93788293D01*
X100956298Y-93788293D02*
X100861060Y-93835912D01*
X100861060Y-93835912D02*
X100622965Y-93835912D01*
X100622965Y-93835912D02*
X100527727Y-93788293D01*
X100527727Y-93788293D02*
X100480108Y-93740673D01*
X110427693Y-93672419D02*
X109856265Y-93672419D01*
X110141979Y-93672419D02*
X110141979Y-92672419D01*
X110141979Y-92672419D02*
X110046741Y-92815276D01*
X110046741Y-92815276D02*
X109951503Y-92910514D01*
X109951503Y-92910514D02*
X109856265Y-92958133D01*
X102092219Y-93011353D02*
X102587457Y-93011353D01*
X102587457Y-93011353D02*
X102320791Y-93316115D01*
X102320791Y-93316115D02*
X102435076Y-93316115D01*
X102435076Y-93316115D02*
X102511267Y-93354210D01*
X102511267Y-93354210D02*
X102549362Y-93392305D01*
X102549362Y-93392305D02*
X102587457Y-93468496D01*
X102587457Y-93468496D02*
X102587457Y-93658972D01*
X102587457Y-93658972D02*
X102549362Y-93735162D01*
X102549362Y-93735162D02*
X102511267Y-93773258D01*
X102511267Y-93773258D02*
X102435076Y-93811353D01*
X102435076Y-93811353D02*
X102206505Y-93811353D01*
X102206505Y-93811353D02*
X102130314Y-93773258D01*
X102130314Y-93773258D02*
X102092219Y-93735162D01*
X68328637Y-87984655D02*
X118828637Y-87984655D01*
X118828637Y-137984655D01*
X68328637Y-137984655D01*
X68328637Y-87984655D01*
X91662805Y-107554752D02*
X91091377Y-107554752D01*
X91377091Y-107554752D02*
X91377091Y-106554752D01*
X91377091Y-106554752D02*
X91281853Y-106697609D01*
X91281853Y-106697609D02*
X91186615Y-106792847D01*
X91186615Y-106792847D02*
X91091377Y-106840466D01*
X92281853Y-106554752D02*
X92377091Y-106554752D01*
X92377091Y-106554752D02*
X92472329Y-106602371D01*
X92472329Y-106602371D02*
X92519948Y-106649990D01*
X92519948Y-106649990D02*
X92567567Y-106745228D01*
X92567567Y-106745228D02*
X92615186Y-106935704D01*
X92615186Y-106935704D02*
X92615186Y-107173799D01*
X92615186Y-107173799D02*
X92567567Y-107364275D01*
X92567567Y-107364275D02*
X92519948Y-107459513D01*
X92519948Y-107459513D02*
X92472329Y-107507133D01*
X92472329Y-107507133D02*
X92377091Y-107554752D01*
X92377091Y-107554752D02*
X92281853Y-107554752D01*
X92281853Y-107554752D02*
X92186615Y-107507133D01*
X92186615Y-107507133D02*
X92138996Y-107459513D01*
X92138996Y-107459513D02*
X92091377Y-107364275D01*
X92091377Y-107364275D02*
X92043758Y-107173799D01*
X92043758Y-107173799D02*
X92043758Y-106935704D01*
X92043758Y-106935704D02*
X92091377Y-106745228D01*
X92091377Y-106745228D02*
X92138996Y-106649990D01*
X92138996Y-106649990D02*
X92186615Y-106602371D01*
X92186615Y-106602371D02*
X92281853Y-106554752D01*
D11*
X71697368Y-112300828D02*
X71697368Y-113300828D01*
X71054510Y-112300828D02*
X71054510Y-113086542D01*
X71054510Y-113086542D02*
X71125939Y-113229400D01*
X71125939Y-113229400D02*
X71268796Y-113300828D01*
X71268796Y-113300828D02*
X71483082Y-113300828D01*
X71483082Y-113300828D02*
X71625939Y-113229400D01*
X71625939Y-113229400D02*
X71697368Y-113157971D01*
X72340225Y-113229400D02*
X72483082Y-113300828D01*
X72483082Y-113300828D02*
X72768796Y-113300828D01*
X72768796Y-113300828D02*
X72911653Y-113229400D01*
X72911653Y-113229400D02*
X72983082Y-113086542D01*
X72983082Y-113086542D02*
X72983082Y-113015114D01*
X72983082Y-113015114D02*
X72911653Y-112872257D01*
X72911653Y-112872257D02*
X72768796Y-112800828D01*
X72768796Y-112800828D02*
X72554511Y-112800828D01*
X72554511Y-112800828D02*
X72411653Y-112729400D01*
X72411653Y-112729400D02*
X72340225Y-112586542D01*
X72340225Y-112586542D02*
X72340225Y-112515114D01*
X72340225Y-112515114D02*
X72411653Y-112372257D01*
X72411653Y-112372257D02*
X72554511Y-112300828D01*
X72554511Y-112300828D02*
X72768796Y-112300828D01*
X72768796Y-112300828D02*
X72911653Y-112372257D01*
X73625939Y-113300828D02*
X73625939Y-111800828D01*
X73625939Y-112372257D02*
X73768797Y-112300828D01*
X73768797Y-112300828D02*
X74054511Y-112300828D01*
X74054511Y-112300828D02*
X74197368Y-112372257D01*
X74197368Y-112372257D02*
X74268797Y-112443685D01*
X74268797Y-112443685D02*
X74340225Y-112586542D01*
X74340225Y-112586542D02*
X74340225Y-113015114D01*
X74340225Y-113015114D02*
X74268797Y-113157971D01*
X74268797Y-113157971D02*
X74197368Y-113229400D01*
X74197368Y-113229400D02*
X74054511Y-113300828D01*
X74054511Y-113300828D02*
X73768797Y-113300828D01*
X73768797Y-113300828D02*
X73625939Y-113229400D01*
D10*
X69108711Y-86857074D02*
X68632521Y-86857074D01*
X68632521Y-86857074D02*
X68584902Y-87333264D01*
X68584902Y-87333264D02*
X68632521Y-87285645D01*
X68632521Y-87285645D02*
X68727759Y-87238026D01*
X68727759Y-87238026D02*
X68965854Y-87238026D01*
X68965854Y-87238026D02*
X69061092Y-87285645D01*
X69061092Y-87285645D02*
X69108711Y-87333264D01*
X69108711Y-87333264D02*
X69156330Y-87428502D01*
X69156330Y-87428502D02*
X69156330Y-87666597D01*
X69156330Y-87666597D02*
X69108711Y-87761835D01*
X69108711Y-87761835D02*
X69061092Y-87809455D01*
X69061092Y-87809455D02*
X68965854Y-87857074D01*
X68965854Y-87857074D02*
X68727759Y-87857074D01*
X68727759Y-87857074D02*
X68632521Y-87809455D01*
X68632521Y-87809455D02*
X68584902Y-87761835D01*
X69775378Y-86857074D02*
X69870616Y-86857074D01*
X69870616Y-86857074D02*
X69965854Y-86904693D01*
X69965854Y-86904693D02*
X70013473Y-86952312D01*
X70013473Y-86952312D02*
X70061092Y-87047550D01*
X70061092Y-87047550D02*
X70108711Y-87238026D01*
X70108711Y-87238026D02*
X70108711Y-87476121D01*
X70108711Y-87476121D02*
X70061092Y-87666597D01*
X70061092Y-87666597D02*
X70013473Y-87761835D01*
X70013473Y-87761835D02*
X69965854Y-87809455D01*
X69965854Y-87809455D02*
X69870616Y-87857074D01*
X69870616Y-87857074D02*
X69775378Y-87857074D01*
X69775378Y-87857074D02*
X69680140Y-87809455D01*
X69680140Y-87809455D02*
X69632521Y-87761835D01*
X69632521Y-87761835D02*
X69584902Y-87666597D01*
X69584902Y-87666597D02*
X69537283Y-87476121D01*
X69537283Y-87476121D02*
X69537283Y-87238026D01*
X69537283Y-87238026D02*
X69584902Y-87047550D01*
X69584902Y-87047550D02*
X69632521Y-86952312D01*
X69632521Y-86952312D02*
X69680140Y-86904693D01*
X69680140Y-86904693D02*
X69775378Y-86857074D01*
X70537283Y-87857074D02*
X70537283Y-87190407D01*
X70537283Y-87285645D02*
X70584902Y-87238026D01*
X70584902Y-87238026D02*
X70680140Y-87190407D01*
X70680140Y-87190407D02*
X70822997Y-87190407D01*
X70822997Y-87190407D02*
X70918235Y-87238026D01*
X70918235Y-87238026D02*
X70965854Y-87333264D01*
X70965854Y-87333264D02*
X70965854Y-87857074D01*
X70965854Y-87333264D02*
X71013473Y-87238026D01*
X71013473Y-87238026D02*
X71108711Y-87190407D01*
X71108711Y-87190407D02*
X71251568Y-87190407D01*
X71251568Y-87190407D02*
X71346807Y-87238026D01*
X71346807Y-87238026D02*
X71394426Y-87333264D01*
X71394426Y-87333264D02*
X71394426Y-87857074D01*
X71870616Y-87857074D02*
X71870616Y-87190407D01*
X71870616Y-87285645D02*
X71918235Y-87238026D01*
X71918235Y-87238026D02*
X72013473Y-87190407D01*
X72013473Y-87190407D02*
X72156330Y-87190407D01*
X72156330Y-87190407D02*
X72251568Y-87238026D01*
X72251568Y-87238026D02*
X72299187Y-87333264D01*
X72299187Y-87333264D02*
X72299187Y-87857074D01*
X72299187Y-87333264D02*
X72346806Y-87238026D01*
X72346806Y-87238026D02*
X72442044Y-87190407D01*
X72442044Y-87190407D02*
X72584901Y-87190407D01*
X72584901Y-87190407D02*
X72680140Y-87238026D01*
X72680140Y-87238026D02*
X72727759Y-87333264D01*
X72727759Y-87333264D02*
X72727759Y-87857074D01*
X73108711Y-87857074D02*
X73632520Y-87190407D01*
X73108711Y-87190407D02*
X73632520Y-87857074D01*
X74489663Y-86857074D02*
X74013473Y-86857074D01*
X74013473Y-86857074D02*
X73965854Y-87333264D01*
X73965854Y-87333264D02*
X74013473Y-87285645D01*
X74013473Y-87285645D02*
X74108711Y-87238026D01*
X74108711Y-87238026D02*
X74346806Y-87238026D01*
X74346806Y-87238026D02*
X74442044Y-87285645D01*
X74442044Y-87285645D02*
X74489663Y-87333264D01*
X74489663Y-87333264D02*
X74537282Y-87428502D01*
X74537282Y-87428502D02*
X74537282Y-87666597D01*
X74537282Y-87666597D02*
X74489663Y-87761835D01*
X74489663Y-87761835D02*
X74442044Y-87809455D01*
X74442044Y-87809455D02*
X74346806Y-87857074D01*
X74346806Y-87857074D02*
X74108711Y-87857074D01*
X74108711Y-87857074D02*
X74013473Y-87809455D01*
X74013473Y-87809455D02*
X73965854Y-87761835D01*
X75156330Y-86857074D02*
X75251568Y-86857074D01*
X75251568Y-86857074D02*
X75346806Y-86904693D01*
X75346806Y-86904693D02*
X75394425Y-86952312D01*
X75394425Y-86952312D02*
X75442044Y-87047550D01*
X75442044Y-87047550D02*
X75489663Y-87238026D01*
X75489663Y-87238026D02*
X75489663Y-87476121D01*
X75489663Y-87476121D02*
X75442044Y-87666597D01*
X75442044Y-87666597D02*
X75394425Y-87761835D01*
X75394425Y-87761835D02*
X75346806Y-87809455D01*
X75346806Y-87809455D02*
X75251568Y-87857074D01*
X75251568Y-87857074D02*
X75156330Y-87857074D01*
X75156330Y-87857074D02*
X75061092Y-87809455D01*
X75061092Y-87809455D02*
X75013473Y-87761835D01*
X75013473Y-87761835D02*
X74965854Y-87666597D01*
X74965854Y-87666597D02*
X74918235Y-87476121D01*
X74918235Y-87476121D02*
X74918235Y-87238026D01*
X74918235Y-87238026D02*
X74965854Y-87047550D01*
X74965854Y-87047550D02*
X75013473Y-86952312D01*
X75013473Y-86952312D02*
X75061092Y-86904693D01*
X75061092Y-86904693D02*
X75156330Y-86857074D01*
X75918235Y-87857074D02*
X75918235Y-87190407D01*
X75918235Y-87285645D02*
X75965854Y-87238026D01*
X75965854Y-87238026D02*
X76061092Y-87190407D01*
X76061092Y-87190407D02*
X76203949Y-87190407D01*
X76203949Y-87190407D02*
X76299187Y-87238026D01*
X76299187Y-87238026D02*
X76346806Y-87333264D01*
X76346806Y-87333264D02*
X76346806Y-87857074D01*
X76346806Y-87333264D02*
X76394425Y-87238026D01*
X76394425Y-87238026D02*
X76489663Y-87190407D01*
X76489663Y-87190407D02*
X76632520Y-87190407D01*
X76632520Y-87190407D02*
X76727759Y-87238026D01*
X76727759Y-87238026D02*
X76775378Y-87333264D01*
X76775378Y-87333264D02*
X76775378Y-87857074D01*
X77251568Y-87857074D02*
X77251568Y-87190407D01*
X77251568Y-87285645D02*
X77299187Y-87238026D01*
X77299187Y-87238026D02*
X77394425Y-87190407D01*
X77394425Y-87190407D02*
X77537282Y-87190407D01*
X77537282Y-87190407D02*
X77632520Y-87238026D01*
X77632520Y-87238026D02*
X77680139Y-87333264D01*
X77680139Y-87333264D02*
X77680139Y-87857074D01*
X77680139Y-87333264D02*
X77727758Y-87238026D01*
X77727758Y-87238026D02*
X77822996Y-87190407D01*
X77822996Y-87190407D02*
X77965853Y-87190407D01*
X77965853Y-87190407D02*
X78061092Y-87238026D01*
X78061092Y-87238026D02*
X78108711Y-87333264D01*
X78108711Y-87333264D02*
X78108711Y-87857074D01*
D11*
X71054510Y-107800828D02*
X71054510Y-106300828D01*
X71697368Y-107800828D02*
X71697368Y-107015114D01*
X71697368Y-107015114D02*
X71625939Y-106872257D01*
X71625939Y-106872257D02*
X71483082Y-106800828D01*
X71483082Y-106800828D02*
X71268796Y-106800828D01*
X71268796Y-106800828D02*
X71125939Y-106872257D01*
X71125939Y-106872257D02*
X71054510Y-106943685D01*
X73054511Y-107800828D02*
X73054511Y-106300828D01*
X73054511Y-107729400D02*
X72911653Y-107800828D01*
X72911653Y-107800828D02*
X72625939Y-107800828D01*
X72625939Y-107800828D02*
X72483082Y-107729400D01*
X72483082Y-107729400D02*
X72411653Y-107657971D01*
X72411653Y-107657971D02*
X72340225Y-107515114D01*
X72340225Y-107515114D02*
X72340225Y-107086542D01*
X72340225Y-107086542D02*
X72411653Y-106943685D01*
X72411653Y-106943685D02*
X72483082Y-106872257D01*
X72483082Y-106872257D02*
X72625939Y-106800828D01*
X72625939Y-106800828D02*
X72911653Y-106800828D01*
X72911653Y-106800828D02*
X73054511Y-106872257D01*
X73768796Y-107800828D02*
X73768796Y-106800828D01*
X73768796Y-107086542D02*
X73840225Y-106943685D01*
X73840225Y-106943685D02*
X73911654Y-106872257D01*
X73911654Y-106872257D02*
X74054511Y-106800828D01*
X74054511Y-106800828D02*
X74197368Y-106800828D01*
D12*
X92594140Y-113121119D02*
X92022712Y-113121119D01*
X92308426Y-113121119D02*
X92308426Y-112121119D01*
X92308426Y-112121119D02*
X92213188Y-112263976D01*
X92213188Y-112263976D02*
X92117950Y-112359214D01*
X92117950Y-112359214D02*
X92022712Y-112406833D01*
X93498902Y-112121119D02*
X93022712Y-112121119D01*
X93022712Y-112121119D02*
X92975093Y-112597309D01*
X92975093Y-112597309D02*
X93022712Y-112549690D01*
X93022712Y-112549690D02*
X93117950Y-112502071D01*
X93117950Y-112502071D02*
X93356045Y-112502071D01*
X93356045Y-112502071D02*
X93451283Y-112549690D01*
X93451283Y-112549690D02*
X93498902Y-112597309D01*
X93498902Y-112597309D02*
X93546521Y-112692547D01*
X93546521Y-112692547D02*
X93546521Y-112930642D01*
X93546521Y-112930642D02*
X93498902Y-113025880D01*
X93498902Y-113025880D02*
X93451283Y-113073500D01*
X93451283Y-113073500D02*
X93356045Y-113121119D01*
X93356045Y-113121119D02*
X93117950Y-113121119D01*
X93117950Y-113121119D02*
X93022712Y-113073500D01*
X93022712Y-113073500D02*
X92975093Y-113025880D01*
X94879854Y-113121119D02*
X94308426Y-113121119D01*
X94594140Y-113121119D02*
X94594140Y-112121119D01*
X94594140Y-112121119D02*
X94498902Y-112263976D01*
X94498902Y-112263976D02*
X94403664Y-112359214D01*
X94403664Y-112359214D02*
X94308426Y-112406833D01*
X95736997Y-112454452D02*
X95736997Y-113121119D01*
X95498902Y-112073500D02*
X95260807Y-112787785D01*
X95260807Y-112787785D02*
X95879854Y-112787785D01*
X97260806Y-113121119D02*
X96689378Y-113121119D01*
X96975092Y-113121119D02*
X96975092Y-112121119D01*
X96975092Y-112121119D02*
X96879854Y-112263976D01*
X96879854Y-112263976D02*
X96784616Y-112359214D01*
X96784616Y-112359214D02*
X96689378Y-112406833D01*
X97594140Y-112121119D02*
X98213187Y-112121119D01*
X98213187Y-112121119D02*
X97879854Y-112502071D01*
X97879854Y-112502071D02*
X98022711Y-112502071D01*
X98022711Y-112502071D02*
X98117949Y-112549690D01*
X98117949Y-112549690D02*
X98165568Y-112597309D01*
X98165568Y-112597309D02*
X98213187Y-112692547D01*
X98213187Y-112692547D02*
X98213187Y-112930642D01*
X98213187Y-112930642D02*
X98165568Y-113025880D01*
X98165568Y-113025880D02*
X98117949Y-113073500D01*
X98117949Y-113073500D02*
X98022711Y-113121119D01*
X98022711Y-113121119D02*
X97736997Y-113121119D01*
X97736997Y-113121119D02*
X97641759Y-113073500D01*
X97641759Y-113073500D02*
X97594140Y-113025880D01*
X99546520Y-113121119D02*
X98975092Y-113121119D01*
X99260806Y-113121119D02*
X99260806Y-112121119D01*
X99260806Y-112121119D02*
X99165568Y-112263976D01*
X99165568Y-112263976D02*
X99070330Y-112359214D01*
X99070330Y-112359214D02*
X98975092Y-112406833D01*
X99927473Y-112216357D02*
X99975092Y-112168738D01*
X99975092Y-112168738D02*
X100070330Y-112121119D01*
X100070330Y-112121119D02*
X100308425Y-112121119D01*
X100308425Y-112121119D02*
X100403663Y-112168738D01*
X100403663Y-112168738D02*
X100451282Y-112216357D01*
X100451282Y-112216357D02*
X100498901Y-112311595D01*
X100498901Y-112311595D02*
X100498901Y-112406833D01*
X100498901Y-112406833D02*
X100451282Y-112549690D01*
X100451282Y-112549690D02*
X99879854Y-113121119D01*
X99879854Y-113121119D02*
X100498901Y-113121119D01*
X101832234Y-113121119D02*
X101260806Y-113121119D01*
X101546520Y-113121119D02*
X101546520Y-112121119D01*
X101546520Y-112121119D02*
X101451282Y-112263976D01*
X101451282Y-112263976D02*
X101356044Y-112359214D01*
X101356044Y-112359214D02*
X101260806Y-112406833D01*
X102784615Y-113121119D02*
X102213187Y-113121119D01*
X102498901Y-113121119D02*
X102498901Y-112121119D01*
X102498901Y-112121119D02*
X102403663Y-112263976D01*
X102403663Y-112263976D02*
X102308425Y-112359214D01*
X102308425Y-112359214D02*
X102213187Y-112406833D01*
D10*
X104996525Y-106513031D02*
X104806049Y-106513031D01*
X104806049Y-106513031D02*
X104710811Y-106560650D01*
X104710811Y-106560650D02*
X104663192Y-106608269D01*
X104663192Y-106608269D02*
X104567954Y-106751126D01*
X104567954Y-106751126D02*
X104520335Y-106941602D01*
X104520335Y-106941602D02*
X104520335Y-107322554D01*
X104520335Y-107322554D02*
X104567954Y-107417792D01*
X104567954Y-107417792D02*
X104615573Y-107465412D01*
X104615573Y-107465412D02*
X104710811Y-107513031D01*
X104710811Y-107513031D02*
X104901287Y-107513031D01*
X104901287Y-107513031D02*
X104996525Y-107465412D01*
X104996525Y-107465412D02*
X105044144Y-107417792D01*
X105044144Y-107417792D02*
X105091763Y-107322554D01*
X105091763Y-107322554D02*
X105091763Y-107084459D01*
X105091763Y-107084459D02*
X105044144Y-106989221D01*
X105044144Y-106989221D02*
X104996525Y-106941602D01*
X104996525Y-106941602D02*
X104901287Y-106893983D01*
X104901287Y-106893983D02*
X104710811Y-106893983D01*
X104710811Y-106893983D02*
X104615573Y-106941602D01*
X104615573Y-106941602D02*
X104567954Y-106989221D01*
X104567954Y-106989221D02*
X104520335Y-107084459D01*
X87205673Y-98104411D02*
X87300911Y-98152030D01*
X87300911Y-98152030D02*
X87491387Y-98152030D01*
X87491387Y-98152030D02*
X87586625Y-98104411D01*
X87586625Y-98104411D02*
X87634244Y-98009172D01*
X87634244Y-98009172D02*
X87634244Y-97961553D01*
X87634244Y-97961553D02*
X87586625Y-97866315D01*
X87586625Y-97866315D02*
X87491387Y-97818696D01*
X87491387Y-97818696D02*
X87348530Y-97818696D01*
X87348530Y-97818696D02*
X87253292Y-97771077D01*
X87253292Y-97771077D02*
X87205673Y-97675839D01*
X87205673Y-97675839D02*
X87205673Y-97628220D01*
X87205673Y-97628220D02*
X87253292Y-97532982D01*
X87253292Y-97532982D02*
X87348530Y-97485363D01*
X87348530Y-97485363D02*
X87491387Y-97485363D01*
X87491387Y-97485363D02*
X87586625Y-97532982D01*
X88491387Y-98152030D02*
X88491387Y-97152030D01*
X88491387Y-98104411D02*
X88396149Y-98152030D01*
X88396149Y-98152030D02*
X88205673Y-98152030D01*
X88205673Y-98152030D02*
X88110435Y-98104411D01*
X88110435Y-98104411D02*
X88062816Y-98056791D01*
X88062816Y-98056791D02*
X88015197Y-97961553D01*
X88015197Y-97961553D02*
X88015197Y-97675839D01*
X88015197Y-97675839D02*
X88062816Y-97580601D01*
X88062816Y-97580601D02*
X88110435Y-97532982D01*
X88110435Y-97532982D02*
X88205673Y-97485363D01*
X88205673Y-97485363D02*
X88396149Y-97485363D01*
X88396149Y-97485363D02*
X88491387Y-97532982D01*
X89396149Y-98152030D02*
X89396149Y-97628220D01*
X89396149Y-97628220D02*
X89348530Y-97532982D01*
X89348530Y-97532982D02*
X89253292Y-97485363D01*
X89253292Y-97485363D02*
X89062816Y-97485363D01*
X89062816Y-97485363D02*
X88967578Y-97532982D01*
X89396149Y-98104411D02*
X89300911Y-98152030D01*
X89300911Y-98152030D02*
X89062816Y-98152030D01*
X89062816Y-98152030D02*
X88967578Y-98104411D01*
X88967578Y-98104411D02*
X88919959Y-98009172D01*
X88919959Y-98009172D02*
X88919959Y-97913934D01*
X88919959Y-97913934D02*
X88967578Y-97818696D01*
X88967578Y-97818696D02*
X89062816Y-97771077D01*
X89062816Y-97771077D02*
X89300911Y-97771077D01*
X89300911Y-97771077D02*
X89396149Y-97723458D01*
X87848531Y-99761974D02*
X87848531Y-99095307D01*
X87848531Y-98761974D02*
X87800912Y-98809593D01*
X87800912Y-98809593D02*
X87848531Y-98857212D01*
X87848531Y-98857212D02*
X87896150Y-98809593D01*
X87896150Y-98809593D02*
X87848531Y-98761974D01*
X87848531Y-98761974D02*
X87848531Y-98857212D01*
X88848530Y-99761974D02*
X88277102Y-99761974D01*
X88562816Y-99761974D02*
X88562816Y-98761974D01*
X88562816Y-98761974D02*
X88467578Y-98904831D01*
X88467578Y-98904831D02*
X88372340Y-99000069D01*
X88372340Y-99000069D02*
X88277102Y-99047688D01*
X92938254Y-97350972D02*
X92462064Y-97350972D01*
X92462064Y-97350972D02*
X92414445Y-97827162D01*
X92414445Y-97827162D02*
X92462064Y-97779543D01*
X92462064Y-97779543D02*
X92557302Y-97731924D01*
X92557302Y-97731924D02*
X92795397Y-97731924D01*
X92795397Y-97731924D02*
X92890635Y-97779543D01*
X92890635Y-97779543D02*
X92938254Y-97827162D01*
X92938254Y-97827162D02*
X92985873Y-97922400D01*
X92985873Y-97922400D02*
X92985873Y-98160495D01*
X92985873Y-98160495D02*
X92938254Y-98255733D01*
X92938254Y-98255733D02*
X92890635Y-98303353D01*
X92890635Y-98303353D02*
X92795397Y-98350972D01*
X92795397Y-98350972D02*
X92557302Y-98350972D01*
X92557302Y-98350972D02*
X92462064Y-98303353D01*
X92462064Y-98303353D02*
X92414445Y-98255733D01*
X93271588Y-97350972D02*
X93604921Y-98350972D01*
X93604921Y-98350972D02*
X93938254Y-97350972D01*
X100343742Y-97659692D02*
X101296123Y-97659692D01*
X100534218Y-97945406D02*
X101105646Y-97945406D01*
X100819932Y-97231121D02*
X100819932Y-97659692D01*
X100915170Y-98231121D02*
X100724694Y-98231121D01*
X106180365Y-97192723D02*
X106180365Y-98002247D01*
X106180365Y-98002247D02*
X106132746Y-98097485D01*
X106132746Y-98097485D02*
X106085127Y-98145104D01*
X106085127Y-98145104D02*
X105989889Y-98192723D01*
X105989889Y-98192723D02*
X105847032Y-98192723D01*
X105847032Y-98192723D02*
X105751794Y-98145104D01*
X106180365Y-97811771D02*
X106085127Y-97859390D01*
X106085127Y-97859390D02*
X105894651Y-97859390D01*
X105894651Y-97859390D02*
X105799413Y-97811771D01*
X105799413Y-97811771D02*
X105751794Y-97764151D01*
X105751794Y-97764151D02*
X105704175Y-97668913D01*
X105704175Y-97668913D02*
X105704175Y-97383199D01*
X105704175Y-97383199D02*
X105751794Y-97287961D01*
X105751794Y-97287961D02*
X105799413Y-97240342D01*
X105799413Y-97240342D02*
X105894651Y-97192723D01*
X105894651Y-97192723D02*
X106085127Y-97192723D01*
X106085127Y-97192723D02*
X106180365Y-97240342D01*
X85128605Y-98152030D02*
X85128605Y-97485363D01*
X85128605Y-97152030D02*
X85080986Y-97199649D01*
X85080986Y-97199649D02*
X85128605Y-97247268D01*
X85128605Y-97247268D02*
X85176224Y-97199649D01*
X85176224Y-97199649D02*
X85128605Y-97152030D01*
X85128605Y-97152030D02*
X85128605Y-97247268D01*
X85557176Y-97247268D02*
X85604795Y-97199649D01*
X85604795Y-97199649D02*
X85700033Y-97152030D01*
X85700033Y-97152030D02*
X85938128Y-97152030D01*
X85938128Y-97152030D02*
X86033366Y-97199649D01*
X86033366Y-97199649D02*
X86080985Y-97247268D01*
X86080985Y-97247268D02*
X86128604Y-97342506D01*
X86128604Y-97342506D02*
X86128604Y-97437744D01*
X86128604Y-97437744D02*
X86080985Y-97580601D01*
X86080985Y-97580601D02*
X85509557Y-98152030D01*
X85509557Y-98152030D02*
X86128604Y-98152030D01*
X85128605Y-99761974D02*
X85128605Y-99095307D01*
X85128605Y-99285783D02*
X85176224Y-99190545D01*
X85176224Y-99190545D02*
X85223843Y-99142926D01*
X85223843Y-99142926D02*
X85319081Y-99095307D01*
X85319081Y-99095307D02*
X85414319Y-99095307D01*
X85700034Y-99714355D02*
X85795272Y-99761974D01*
X85795272Y-99761974D02*
X85985748Y-99761974D01*
X85985748Y-99761974D02*
X86080986Y-99714355D01*
X86080986Y-99714355D02*
X86128605Y-99619116D01*
X86128605Y-99619116D02*
X86128605Y-99571497D01*
X86128605Y-99571497D02*
X86080986Y-99476259D01*
X86080986Y-99476259D02*
X85985748Y-99428640D01*
X85985748Y-99428640D02*
X85842891Y-99428640D01*
X85842891Y-99428640D02*
X85747653Y-99381021D01*
X85747653Y-99381021D02*
X85700034Y-99285783D01*
X85700034Y-99285783D02*
X85700034Y-99238164D01*
X85700034Y-99238164D02*
X85747653Y-99142926D01*
X85747653Y-99142926D02*
X85842891Y-99095307D01*
X85842891Y-99095307D02*
X85985748Y-99095307D01*
X85985748Y-99095307D02*
X86080986Y-99142926D01*
X95181297Y-97300701D02*
X95514630Y-98300701D01*
X95514630Y-98300701D02*
X95847963Y-97300701D01*
X96133678Y-98253082D02*
X96228916Y-98300701D01*
X96228916Y-98300701D02*
X96419392Y-98300701D01*
X96419392Y-98300701D02*
X96514630Y-98253082D01*
X96514630Y-98253082D02*
X96562249Y-98157843D01*
X96562249Y-98157843D02*
X96562249Y-98110224D01*
X96562249Y-98110224D02*
X96514630Y-98014986D01*
X96514630Y-98014986D02*
X96419392Y-97967367D01*
X96419392Y-97967367D02*
X96276535Y-97967367D01*
X96276535Y-97967367D02*
X96181297Y-97919748D01*
X96181297Y-97919748D02*
X96133678Y-97824510D01*
X96133678Y-97824510D02*
X96133678Y-97776891D01*
X96133678Y-97776891D02*
X96181297Y-97681653D01*
X96181297Y-97681653D02*
X96276535Y-97634034D01*
X96276535Y-97634034D02*
X96419392Y-97634034D01*
X96419392Y-97634034D02*
X96514630Y-97681653D01*
X90293884Y-98333480D02*
X90293884Y-97666813D01*
X90293884Y-97333480D02*
X90246265Y-97381099D01*
X90246265Y-97381099D02*
X90293884Y-97428718D01*
X90293884Y-97428718D02*
X90341503Y-97381099D01*
X90341503Y-97381099D02*
X90293884Y-97333480D01*
X90293884Y-97333480D02*
X90293884Y-97428718D01*
X90960550Y-97333480D02*
X91055788Y-97333480D01*
X91055788Y-97333480D02*
X91151026Y-97381099D01*
X91151026Y-97381099D02*
X91198645Y-97428718D01*
X91198645Y-97428718D02*
X91246264Y-97523956D01*
X91246264Y-97523956D02*
X91293883Y-97714432D01*
X91293883Y-97714432D02*
X91293883Y-97952527D01*
X91293883Y-97952527D02*
X91246264Y-98143003D01*
X91246264Y-98143003D02*
X91198645Y-98238241D01*
X91198645Y-98238241D02*
X91151026Y-98285861D01*
X91151026Y-98285861D02*
X91055788Y-98333480D01*
X91055788Y-98333480D02*
X90960550Y-98333480D01*
X90960550Y-98333480D02*
X90865312Y-98285861D01*
X90865312Y-98285861D02*
X90817693Y-98238241D01*
X90817693Y-98238241D02*
X90770074Y-98143003D01*
X90770074Y-98143003D02*
X90722455Y-97952527D01*
X90722455Y-97952527D02*
X90722455Y-97714432D01*
X90722455Y-97714432D02*
X90770074Y-97523956D01*
X90770074Y-97523956D02*
X90817693Y-97428718D01*
X90817693Y-97428718D02*
X90865312Y-97381099D01*
X90865312Y-97381099D02*
X90960550Y-97333480D01*
X90293884Y-99943424D02*
X90293884Y-99276757D01*
X90293884Y-99467233D02*
X90341503Y-99371995D01*
X90341503Y-99371995D02*
X90389122Y-99324376D01*
X90389122Y-99324376D02*
X90484360Y-99276757D01*
X90484360Y-99276757D02*
X90579598Y-99276757D01*
X90865313Y-99895805D02*
X90960551Y-99943424D01*
X90960551Y-99943424D02*
X91151027Y-99943424D01*
X91151027Y-99943424D02*
X91246265Y-99895805D01*
X91246265Y-99895805D02*
X91293884Y-99800566D01*
X91293884Y-99800566D02*
X91293884Y-99752947D01*
X91293884Y-99752947D02*
X91246265Y-99657709D01*
X91246265Y-99657709D02*
X91151027Y-99610090D01*
X91151027Y-99610090D02*
X91008170Y-99610090D01*
X91008170Y-99610090D02*
X90912932Y-99562471D01*
X90912932Y-99562471D02*
X90865313Y-99467233D01*
X90865313Y-99467233D02*
X90865313Y-99419614D01*
X90865313Y-99419614D02*
X90912932Y-99324376D01*
X90912932Y-99324376D02*
X91008170Y-99276757D01*
X91008170Y-99276757D02*
X91151027Y-99276757D01*
X91151027Y-99276757D02*
X91246265Y-99324376D01*
X103218403Y-98106305D02*
X103218403Y-97106305D01*
X103218403Y-97487257D02*
X103313641Y-97439638D01*
X103313641Y-97439638D02*
X103504117Y-97439638D01*
X103504117Y-97439638D02*
X103599355Y-97487257D01*
X103599355Y-97487257D02*
X103646974Y-97534876D01*
X103646974Y-97534876D02*
X103694593Y-97630114D01*
X103694593Y-97630114D02*
X103694593Y-97915828D01*
X103694593Y-97915828D02*
X103646974Y-98011066D01*
X103646974Y-98011066D02*
X103599355Y-98058686D01*
X103599355Y-98058686D02*
X103504117Y-98106305D01*
X103504117Y-98106305D02*
X103313641Y-98106305D01*
X103313641Y-98106305D02*
X103218403Y-98058686D01*
X108478575Y-97959250D02*
X108478575Y-97292583D01*
X108478575Y-97483059D02*
X108526194Y-97387821D01*
X108526194Y-97387821D02*
X108573813Y-97340202D01*
X108573813Y-97340202D02*
X108669051Y-97292583D01*
X108669051Y-97292583D02*
X108764289Y-97292583D01*
X97710238Y-98263418D02*
X97710238Y-97263418D01*
X97710238Y-97739608D02*
X98281666Y-97739608D01*
X98281666Y-98263418D02*
X98281666Y-97263418D01*
X98710238Y-98215799D02*
X98805476Y-98263418D01*
X98805476Y-98263418D02*
X98995952Y-98263418D01*
X98995952Y-98263418D02*
X99091190Y-98215799D01*
X99091190Y-98215799D02*
X99138809Y-98120560D01*
X99138809Y-98120560D02*
X99138809Y-98072941D01*
X99138809Y-98072941D02*
X99091190Y-97977703D01*
X99091190Y-97977703D02*
X98995952Y-97930084D01*
X98995952Y-97930084D02*
X98853095Y-97930084D01*
X98853095Y-97930084D02*
X98757857Y-97882465D01*
X98757857Y-97882465D02*
X98710238Y-97787227D01*
X98710238Y-97787227D02*
X98710238Y-97739608D01*
X98710238Y-97739608D02*
X98757857Y-97644370D01*
X98757857Y-97644370D02*
X98853095Y-97596751D01*
X98853095Y-97596751D02*
X98995952Y-97596751D01*
X98995952Y-97596751D02*
X99091190Y-97644370D01*
X82080986Y-98104411D02*
X82176224Y-98152030D01*
X82176224Y-98152030D02*
X82366700Y-98152030D01*
X82366700Y-98152030D02*
X82461938Y-98104411D01*
X82461938Y-98104411D02*
X82509557Y-98009172D01*
X82509557Y-98009172D02*
X82509557Y-97961553D01*
X82509557Y-97961553D02*
X82461938Y-97866315D01*
X82461938Y-97866315D02*
X82366700Y-97818696D01*
X82366700Y-97818696D02*
X82223843Y-97818696D01*
X82223843Y-97818696D02*
X82128605Y-97771077D01*
X82128605Y-97771077D02*
X82080986Y-97675839D01*
X82080986Y-97675839D02*
X82080986Y-97628220D01*
X82080986Y-97628220D02*
X82128605Y-97532982D01*
X82128605Y-97532982D02*
X82223843Y-97485363D01*
X82223843Y-97485363D02*
X82366700Y-97485363D01*
X82366700Y-97485363D02*
X82461938Y-97532982D01*
X83366700Y-98104411D02*
X83271462Y-98152030D01*
X83271462Y-98152030D02*
X83080986Y-98152030D01*
X83080986Y-98152030D02*
X82985748Y-98104411D01*
X82985748Y-98104411D02*
X82938129Y-98056791D01*
X82938129Y-98056791D02*
X82890510Y-97961553D01*
X82890510Y-97961553D02*
X82890510Y-97675839D01*
X82890510Y-97675839D02*
X82938129Y-97580601D01*
X82938129Y-97580601D02*
X82985748Y-97532982D01*
X82985748Y-97532982D02*
X83080986Y-97485363D01*
X83080986Y-97485363D02*
X83271462Y-97485363D01*
X83271462Y-97485363D02*
X83366700Y-97532982D01*
X83938129Y-98152030D02*
X83842891Y-98104411D01*
X83842891Y-98104411D02*
X83795272Y-98009172D01*
X83795272Y-98009172D02*
X83795272Y-97152030D01*
X82509557Y-99761974D02*
X82509557Y-99095307D01*
X82509557Y-98761974D02*
X82461938Y-98809593D01*
X82461938Y-98809593D02*
X82509557Y-98857212D01*
X82509557Y-98857212D02*
X82557176Y-98809593D01*
X82557176Y-98809593D02*
X82509557Y-98761974D01*
X82509557Y-98761974D02*
X82509557Y-98857212D01*
X82890509Y-98761974D02*
X83509556Y-98761974D01*
X83509556Y-98761974D02*
X83176223Y-99142926D01*
X83176223Y-99142926D02*
X83319080Y-99142926D01*
X83319080Y-99142926D02*
X83414318Y-99190545D01*
X83414318Y-99190545D02*
X83461937Y-99238164D01*
X83461937Y-99238164D02*
X83509556Y-99333402D01*
X83509556Y-99333402D02*
X83509556Y-99571497D01*
X83509556Y-99571497D02*
X83461937Y-99666735D01*
X83461937Y-99666735D02*
X83414318Y-99714355D01*
X83414318Y-99714355D02*
X83319080Y-99761974D01*
X83319080Y-99761974D02*
X83033366Y-99761974D01*
X83033366Y-99761974D02*
X82938128Y-99714355D01*
X82938128Y-99714355D02*
X82890509Y-99666735D01*
D12*
X92977052Y-101196323D02*
X92500862Y-101196323D01*
X92500862Y-101196323D02*
X92453243Y-101672513D01*
X92453243Y-101672513D02*
X92500862Y-101624894D01*
X92500862Y-101624894D02*
X92596100Y-101577275D01*
X92596100Y-101577275D02*
X92834195Y-101577275D01*
X92834195Y-101577275D02*
X92929433Y-101624894D01*
X92929433Y-101624894D02*
X92977052Y-101672513D01*
X92977052Y-101672513D02*
X93024671Y-101767751D01*
X93024671Y-101767751D02*
X93024671Y-102005846D01*
X93024671Y-102005846D02*
X92977052Y-102101084D01*
X92977052Y-102101084D02*
X92929433Y-102148704D01*
X92929433Y-102148704D02*
X92834195Y-102196323D01*
X92834195Y-102196323D02*
X92596100Y-102196323D01*
X92596100Y-102196323D02*
X92500862Y-102148704D01*
X92500862Y-102148704D02*
X92453243Y-102101084D01*
X95215147Y-101529656D02*
X95215147Y-102196323D01*
X94977052Y-101148704D02*
X94738957Y-101862989D01*
X94738957Y-101862989D02*
X95358004Y-101862989D01*
X97167528Y-101196323D02*
X97786575Y-101196323D01*
X97786575Y-101196323D02*
X97453242Y-101577275D01*
X97453242Y-101577275D02*
X97596099Y-101577275D01*
X97596099Y-101577275D02*
X97691337Y-101624894D01*
X97691337Y-101624894D02*
X97738956Y-101672513D01*
X97738956Y-101672513D02*
X97786575Y-101767751D01*
X97786575Y-101767751D02*
X97786575Y-102005846D01*
X97786575Y-102005846D02*
X97738956Y-102101084D01*
X97738956Y-102101084D02*
X97691337Y-102148704D01*
X97691337Y-102148704D02*
X97596099Y-102196323D01*
X97596099Y-102196323D02*
X97310385Y-102196323D01*
X97310385Y-102196323D02*
X97215147Y-102148704D01*
X97215147Y-102148704D02*
X97167528Y-102101084D01*
X99500861Y-101291561D02*
X99548480Y-101243942D01*
X99548480Y-101243942D02*
X99643718Y-101196323D01*
X99643718Y-101196323D02*
X99881813Y-101196323D01*
X99881813Y-101196323D02*
X99977051Y-101243942D01*
X99977051Y-101243942D02*
X100024670Y-101291561D01*
X100024670Y-101291561D02*
X100072289Y-101386799D01*
X100072289Y-101386799D02*
X100072289Y-101482037D01*
X100072289Y-101482037D02*
X100024670Y-101624894D01*
X100024670Y-101624894D02*
X99453242Y-102196323D01*
X99453242Y-102196323D02*
X100072289Y-102196323D01*
X102358003Y-102196323D02*
X101786575Y-102196323D01*
X102072289Y-102196323D02*
X102072289Y-101196323D01*
X102072289Y-101196323D02*
X101977051Y-101339180D01*
X101977051Y-101339180D02*
X101881813Y-101434418D01*
X101881813Y-101434418D02*
X101786575Y-101482037D01*
D13*
X105209524Y-91562295D02*
X105209524Y-90762295D01*
X105209524Y-90762295D02*
X105400000Y-90762295D01*
X105400000Y-90762295D02*
X105514286Y-90800390D01*
X105514286Y-90800390D02*
X105590476Y-90876580D01*
X105590476Y-90876580D02*
X105628571Y-90952771D01*
X105628571Y-90952771D02*
X105666667Y-91105152D01*
X105666667Y-91105152D02*
X105666667Y-91219438D01*
X105666667Y-91219438D02*
X105628571Y-91371819D01*
X105628571Y-91371819D02*
X105590476Y-91448009D01*
X105590476Y-91448009D02*
X105514286Y-91524200D01*
X105514286Y-91524200D02*
X105400000Y-91562295D01*
X105400000Y-91562295D02*
X105209524Y-91562295D01*
X106428571Y-91562295D02*
X105971428Y-91562295D01*
X106200000Y-91562295D02*
X106200000Y-90762295D01*
X106200000Y-90762295D02*
X106123809Y-90876580D01*
X106123809Y-90876580D02*
X106047619Y-90952771D01*
X106047619Y-90952771D02*
X105971428Y-90990866D01*
X108009524Y-91562295D02*
X108009524Y-90762295D01*
X108009524Y-90762295D02*
X108200000Y-90762295D01*
X108200000Y-90762295D02*
X108314286Y-90800390D01*
X108314286Y-90800390D02*
X108390476Y-90876580D01*
X108390476Y-90876580D02*
X108428571Y-90952771D01*
X108428571Y-90952771D02*
X108466667Y-91105152D01*
X108466667Y-91105152D02*
X108466667Y-91219438D01*
X108466667Y-91219438D02*
X108428571Y-91371819D01*
X108428571Y-91371819D02*
X108390476Y-91448009D01*
X108390476Y-91448009D02*
X108314286Y-91524200D01*
X108314286Y-91524200D02*
X108200000Y-91562295D01*
X108200000Y-91562295D02*
X108009524Y-91562295D01*
X108733333Y-90762295D02*
X109228571Y-90762295D01*
X109228571Y-90762295D02*
X108961905Y-91067057D01*
X108961905Y-91067057D02*
X109076190Y-91067057D01*
X109076190Y-91067057D02*
X109152381Y-91105152D01*
X109152381Y-91105152D02*
X109190476Y-91143247D01*
X109190476Y-91143247D02*
X109228571Y-91219438D01*
X109228571Y-91219438D02*
X109228571Y-91409914D01*
X109228571Y-91409914D02*
X109190476Y-91486104D01*
X109190476Y-91486104D02*
X109152381Y-91524200D01*
X109152381Y-91524200D02*
X109076190Y-91562295D01*
X109076190Y-91562295D02*
X108847619Y-91562295D01*
X108847619Y-91562295D02*
X108771428Y-91524200D01*
X108771428Y-91524200D02*
X108733333Y-91486104D01*
X102809524Y-91562295D02*
X102809524Y-90762295D01*
X102809524Y-90762295D02*
X103000000Y-90762295D01*
X103000000Y-90762295D02*
X103114286Y-90800390D01*
X103114286Y-90800390D02*
X103190476Y-90876580D01*
X103190476Y-90876580D02*
X103228571Y-90952771D01*
X103228571Y-90952771D02*
X103266667Y-91105152D01*
X103266667Y-91105152D02*
X103266667Y-91219438D01*
X103266667Y-91219438D02*
X103228571Y-91371819D01*
X103228571Y-91371819D02*
X103190476Y-91448009D01*
X103190476Y-91448009D02*
X103114286Y-91524200D01*
X103114286Y-91524200D02*
X103000000Y-91562295D01*
X103000000Y-91562295D02*
X102809524Y-91562295D01*
X103571428Y-90838485D02*
X103609524Y-90800390D01*
X103609524Y-90800390D02*
X103685714Y-90762295D01*
X103685714Y-90762295D02*
X103876190Y-90762295D01*
X103876190Y-90762295D02*
X103952381Y-90800390D01*
X103952381Y-90800390D02*
X103990476Y-90838485D01*
X103990476Y-90838485D02*
X104028571Y-90914676D01*
X104028571Y-90914676D02*
X104028571Y-90990866D01*
X104028571Y-90990866D02*
X103990476Y-91105152D01*
X103990476Y-91105152D02*
X103533333Y-91562295D01*
X103533333Y-91562295D02*
X104028571Y-91562295D01*
X100583333Y-114709580D02*
X100535714Y-114757200D01*
X100535714Y-114757200D02*
X100392857Y-114804819D01*
X100392857Y-114804819D02*
X100297619Y-114804819D01*
X100297619Y-114804819D02*
X100154762Y-114757200D01*
X100154762Y-114757200D02*
X100059524Y-114661961D01*
X100059524Y-114661961D02*
X100011905Y-114566723D01*
X100011905Y-114566723D02*
X99964286Y-114376247D01*
X99964286Y-114376247D02*
X99964286Y-114233390D01*
X99964286Y-114233390D02*
X100011905Y-114042914D01*
X100011905Y-114042914D02*
X100059524Y-113947676D01*
X100059524Y-113947676D02*
X100154762Y-113852438D01*
X100154762Y-113852438D02*
X100297619Y-113804819D01*
X100297619Y-113804819D02*
X100392857Y-113804819D01*
X100392857Y-113804819D02*
X100535714Y-113852438D01*
X100535714Y-113852438D02*
X100583333Y-113900057D01*
X101535714Y-114804819D02*
X100964286Y-114804819D01*
X101250000Y-114804819D02*
X101250000Y-113804819D01*
X101250000Y-113804819D02*
X101154762Y-113947676D01*
X101154762Y-113947676D02*
X101059524Y-114042914D01*
X101059524Y-114042914D02*
X100964286Y-114090533D01*
X97418558Y-99257078D02*
X97418558Y-99971363D01*
X97418558Y-99971363D02*
X97370939Y-100114220D01*
X97370939Y-100114220D02*
X97275701Y-100209459D01*
X97275701Y-100209459D02*
X97132844Y-100257078D01*
X97132844Y-100257078D02*
X97037606Y-100257078D01*
X98418558Y-100257078D02*
X97847130Y-100257078D01*
X98132844Y-100257078D02*
X98132844Y-99257078D01*
X98132844Y-99257078D02*
X98037606Y-99399935D01*
X98037606Y-99399935D02*
X97942368Y-99495173D01*
X97942368Y-99495173D02*
X97847130Y-99542792D01*
X109944819Y-96904338D02*
X110659104Y-96904338D01*
X110659104Y-96904338D02*
X110801961Y-96951957D01*
X110801961Y-96951957D02*
X110897200Y-97047195D01*
X110897200Y-97047195D02*
X110944819Y-97190052D01*
X110944819Y-97190052D02*
X110944819Y-97285290D01*
X110040057Y-96475766D02*
X109992438Y-96428147D01*
X109992438Y-96428147D02*
X109944819Y-96332909D01*
X109944819Y-96332909D02*
X109944819Y-96094814D01*
X109944819Y-96094814D02*
X109992438Y-95999576D01*
X109992438Y-95999576D02*
X110040057Y-95951957D01*
X110040057Y-95951957D02*
X110135295Y-95904338D01*
X110135295Y-95904338D02*
X110230533Y-95904338D01*
X110230533Y-95904338D02*
X110373390Y-95951957D01*
X110373390Y-95951957D02*
X110944819Y-96523385D01*
X110944819Y-96523385D02*
X110944819Y-95904338D01*
X80546868Y-101917436D02*
X80070677Y-102250769D01*
X80546868Y-102488864D02*
X79546868Y-102488864D01*
X79546868Y-102488864D02*
X79546868Y-102107912D01*
X79546868Y-102107912D02*
X79594487Y-102012674D01*
X79594487Y-102012674D02*
X79642106Y-101965055D01*
X79642106Y-101965055D02*
X79737344Y-101917436D01*
X79737344Y-101917436D02*
X79880201Y-101917436D01*
X79880201Y-101917436D02*
X79975439Y-101965055D01*
X79975439Y-101965055D02*
X80023058Y-102012674D01*
X80023058Y-102012674D02*
X80070677Y-102107912D01*
X80070677Y-102107912D02*
X80070677Y-102488864D01*
X79642106Y-101536483D02*
X79594487Y-101488864D01*
X79594487Y-101488864D02*
X79546868Y-101393626D01*
X79546868Y-101393626D02*
X79546868Y-101155531D01*
X79546868Y-101155531D02*
X79594487Y-101060293D01*
X79594487Y-101060293D02*
X79642106Y-101012674D01*
X79642106Y-101012674D02*
X79737344Y-100965055D01*
X79737344Y-100965055D02*
X79832582Y-100965055D01*
X79832582Y-100965055D02*
X79975439Y-101012674D01*
X79975439Y-101012674D02*
X80546868Y-101584102D01*
X80546868Y-101584102D02*
X80546868Y-100965055D01*
X80600015Y-98794023D02*
X80123824Y-99127356D01*
X80600015Y-99365451D02*
X79600015Y-99365451D01*
X79600015Y-99365451D02*
X79600015Y-98984499D01*
X79600015Y-98984499D02*
X79647634Y-98889261D01*
X79647634Y-98889261D02*
X79695253Y-98841642D01*
X79695253Y-98841642D02*
X79790491Y-98794023D01*
X79790491Y-98794023D02*
X79933348Y-98794023D01*
X79933348Y-98794023D02*
X80028586Y-98841642D01*
X80028586Y-98841642D02*
X80076205Y-98889261D01*
X80076205Y-98889261D02*
X80123824Y-98984499D01*
X80123824Y-98984499D02*
X80123824Y-99365451D01*
X80600015Y-97841642D02*
X80600015Y-98413070D01*
X80600015Y-98127356D02*
X79600015Y-98127356D01*
X79600015Y-98127356D02*
X79742872Y-98222594D01*
X79742872Y-98222594D02*
X79838110Y-98317832D01*
X79838110Y-98317832D02*
X79885729Y-98413070D01*
X80607200Y-111333332D02*
X80654819Y-111190475D01*
X80654819Y-111190475D02*
X80654819Y-110952380D01*
X80654819Y-110952380D02*
X80607200Y-110857142D01*
X80607200Y-110857142D02*
X80559580Y-110809523D01*
X80559580Y-110809523D02*
X80464342Y-110761904D01*
X80464342Y-110761904D02*
X80369104Y-110761904D01*
X80369104Y-110761904D02*
X80273866Y-110809523D01*
X80273866Y-110809523D02*
X80226247Y-110857142D01*
X80226247Y-110857142D02*
X80178628Y-110952380D01*
X80178628Y-110952380D02*
X80131009Y-111142856D01*
X80131009Y-111142856D02*
X80083390Y-111238094D01*
X80083390Y-111238094D02*
X80035771Y-111285713D01*
X80035771Y-111285713D02*
X79940533Y-111333332D01*
X79940533Y-111333332D02*
X79845295Y-111333332D01*
X79845295Y-111333332D02*
X79750057Y-111285713D01*
X79750057Y-111285713D02*
X79702438Y-111238094D01*
X79702438Y-111238094D02*
X79654819Y-111142856D01*
X79654819Y-111142856D02*
X79654819Y-110904761D01*
X79654819Y-110904761D02*
X79702438Y-110761904D01*
X79654819Y-110428570D02*
X80654819Y-110190475D01*
X80654819Y-110190475D02*
X79940533Y-109999999D01*
X79940533Y-109999999D02*
X80654819Y-109809523D01*
X80654819Y-109809523D02*
X79654819Y-109571428D01*
X80654819Y-108666666D02*
X80654819Y-109238094D01*
X80654819Y-108952380D02*
X79654819Y-108952380D01*
X79654819Y-108952380D02*
X79797676Y-109047618D01*
X79797676Y-109047618D02*
X79892914Y-109142856D01*
X79892914Y-109142856D02*
X79940533Y-109238094D01*
X92108333Y-114959580D02*
X92060714Y-115007200D01*
X92060714Y-115007200D02*
X91917857Y-115054819D01*
X91917857Y-115054819D02*
X91822619Y-115054819D01*
X91822619Y-115054819D02*
X91679762Y-115007200D01*
X91679762Y-115007200D02*
X91584524Y-114911961D01*
X91584524Y-114911961D02*
X91536905Y-114816723D01*
X91536905Y-114816723D02*
X91489286Y-114626247D01*
X91489286Y-114626247D02*
X91489286Y-114483390D01*
X91489286Y-114483390D02*
X91536905Y-114292914D01*
X91536905Y-114292914D02*
X91584524Y-114197676D01*
X91584524Y-114197676D02*
X91679762Y-114102438D01*
X91679762Y-114102438D02*
X91822619Y-114054819D01*
X91822619Y-114054819D02*
X91917857Y-114054819D01*
X91917857Y-114054819D02*
X92060714Y-114102438D01*
X92060714Y-114102438D02*
X92108333Y-114150057D01*
X92489286Y-114150057D02*
X92536905Y-114102438D01*
X92536905Y-114102438D02*
X92632143Y-114054819D01*
X92632143Y-114054819D02*
X92870238Y-114054819D01*
X92870238Y-114054819D02*
X92965476Y-114102438D01*
X92965476Y-114102438D02*
X93013095Y-114150057D01*
X93013095Y-114150057D02*
X93060714Y-114245295D01*
X93060714Y-114245295D02*
X93060714Y-114340533D01*
X93060714Y-114340533D02*
X93013095Y-114483390D01*
X93013095Y-114483390D02*
X92441667Y-115054819D01*
X92441667Y-115054819D02*
X93060714Y-115054819D01*
X72925572Y-110948822D02*
X72592239Y-110948822D01*
X72592239Y-111472632D02*
X72592239Y-110472632D01*
X72592239Y-110472632D02*
X73068429Y-110472632D01*
X73782715Y-110948822D02*
X73925572Y-110996441D01*
X73925572Y-110996441D02*
X73973191Y-111044060D01*
X73973191Y-111044060D02*
X74020810Y-111139298D01*
X74020810Y-111139298D02*
X74020810Y-111282155D01*
X74020810Y-111282155D02*
X73973191Y-111377393D01*
X73973191Y-111377393D02*
X73925572Y-111425013D01*
X73925572Y-111425013D02*
X73830334Y-111472632D01*
X73830334Y-111472632D02*
X73449382Y-111472632D01*
X73449382Y-111472632D02*
X73449382Y-110472632D01*
X73449382Y-110472632D02*
X73782715Y-110472632D01*
X73782715Y-110472632D02*
X73877953Y-110520251D01*
X73877953Y-110520251D02*
X73925572Y-110567870D01*
X73925572Y-110567870D02*
X73973191Y-110663108D01*
X73973191Y-110663108D02*
X73973191Y-110758346D01*
X73973191Y-110758346D02*
X73925572Y-110853584D01*
X73925572Y-110853584D02*
X73877953Y-110901203D01*
X73877953Y-110901203D02*
X73782715Y-110948822D01*
X73782715Y-110948822D02*
X73449382Y-110948822D01*
X74973191Y-111472632D02*
X74401763Y-111472632D01*
X74687477Y-111472632D02*
X74687477Y-110472632D01*
X74687477Y-110472632D02*
X74592239Y-110615489D01*
X74592239Y-110615489D02*
X74497001Y-110710727D01*
X74497001Y-110710727D02*
X74401763Y-110758346D01*
X79724180Y-94666666D02*
X79009895Y-94666666D01*
X79009895Y-94666666D02*
X78867038Y-94619047D01*
X78867038Y-94619047D02*
X78771800Y-94523809D01*
X78771800Y-94523809D02*
X78724180Y-94380952D01*
X78724180Y-94380952D02*
X78724180Y-94285714D01*
X79724180Y-95047619D02*
X79724180Y-95666666D01*
X79724180Y-95666666D02*
X79343228Y-95333333D01*
X79343228Y-95333333D02*
X79343228Y-95476190D01*
X79343228Y-95476190D02*
X79295609Y-95571428D01*
X79295609Y-95571428D02*
X79247990Y-95619047D01*
X79247990Y-95619047D02*
X79152752Y-95666666D01*
X79152752Y-95666666D02*
X78914657Y-95666666D01*
X78914657Y-95666666D02*
X78819419Y-95619047D01*
X78819419Y-95619047D02*
X78771800Y-95571428D01*
X78771800Y-95571428D02*
X78724180Y-95476190D01*
X78724180Y-95476190D02*
X78724180Y-95190476D01*
X78724180Y-95190476D02*
X78771800Y-95095238D01*
X78771800Y-95095238D02*
X78819419Y-95047619D01*
D14*
%TO.C,D1*%
X105190000Y-93610000D02*
X106410000Y-93610000D01*
X105190000Y-93610000D02*
X105190000Y-92300000D01*
X106410000Y-93610000D02*
X106410000Y-92300000D01*
%TO.C,D3*%
X107990000Y-93660000D02*
X109210000Y-93660000D01*
X107990000Y-93660000D02*
X107990000Y-92350000D01*
X109210000Y-93660000D02*
X109210000Y-92350000D01*
%TO.C,D2*%
X104010000Y-93610000D02*
X104010000Y-92300000D01*
X102790000Y-93610000D02*
X102790000Y-92300000D01*
X102790000Y-93610000D02*
X104010000Y-93610000D01*
%TO.C,C1*%
X97859420Y-114090000D02*
X98140580Y-114090000D01*
X97859420Y-115110000D02*
X98140580Y-115110000D01*
%TO.C,J1*%
X82266892Y-112362259D02*
X82266892Y-101862259D01*
X83326892Y-100802259D02*
X112176892Y-100802259D01*
X90714159Y-109750515D02*
X89885422Y-105050515D01*
X91520203Y-103102259D02*
X103983581Y-103102259D01*
X101816892Y-99907921D02*
X102316892Y-99907921D01*
X102066892Y-100340934D02*
X101816892Y-99907921D01*
X102316892Y-99907921D02*
X102066892Y-100340934D01*
X103154844Y-111122259D02*
X92348940Y-111122259D01*
X105618362Y-105050515D02*
X104789625Y-109750515D01*
X112176892Y-113422259D02*
X83326892Y-113422259D01*
X113236892Y-101862259D02*
X113236892Y-112362259D01*
X82266892Y-101862259D02*
G75*
G02*
X83326892Y-100802259I1060001J-1D01*
G01*
X83326892Y-113422259D02*
G75*
G02*
X82266892Y-112362259I1J1060001D01*
G01*
X89885422Y-105050515D02*
G75*
G02*
X91520203Y-103102259I1634781J288256D01*
G01*
X92348940Y-111122259D02*
G75*
G02*
X90714159Y-109750515I-1J1659999D01*
G01*
X103983581Y-103102259D02*
G75*
G02*
X105618363Y-105050515I1J-1660000D01*
G01*
X104789625Y-109750515D02*
G75*
G02*
X103154844Y-111122259I-1634780J288255D01*
G01*
X112176892Y-100802259D02*
G75*
G02*
X113236892Y-101862259I0J-1060000D01*
G01*
X113236892Y-112362259D02*
G75*
G02*
X112176892Y-113422259I-1060000J0D01*
G01*
%TO.C,J2*%
X81710000Y-94135206D02*
X81710000Y-96895206D01*
X107220000Y-94135206D02*
X81710000Y-94135206D01*
X107220000Y-94135206D02*
X107220000Y-96895206D01*
X107220000Y-96895206D02*
X81710000Y-96895206D01*
X108490000Y-94135206D02*
X109870000Y-94135206D01*
X109870000Y-94135206D02*
X109870000Y-95515206D01*
%TO.C,R2*%
X79184549Y-101513512D02*
X79184549Y-101988028D01*
X78139549Y-101513512D02*
X78139549Y-101988028D01*
%TO.C,R1*%
X79167696Y-98864615D02*
X79167696Y-98390099D01*
X78122696Y-98864615D02*
X78122696Y-98390099D01*
%TO.C,SW1*%
X78120000Y-111400000D02*
X78120000Y-111600000D01*
X78120000Y-108400000D02*
X78120000Y-110100000D01*
X77070000Y-106550000D02*
X76280000Y-106550000D01*
X76280000Y-113450000D02*
X77070000Y-113450000D01*
X75270000Y-108600000D02*
X73980000Y-108600000D01*
X75270000Y-107150000D02*
X75270000Y-112850000D01*
X73980000Y-109900000D02*
X75270000Y-109900000D01*
X73980000Y-109900000D02*
X73770000Y-109700000D01*
X73980000Y-108600000D02*
X73770000Y-108800000D01*
X73770000Y-108800000D02*
X73770000Y-109700000D01*
%TO.C,C2*%
X95140580Y-115110000D02*
X94859420Y-115110000D01*
X95140580Y-114090000D02*
X94859420Y-114090000D01*
%TO.C,FB1*%
X70940000Y-110399622D02*
X70940000Y-109600378D01*
X72060000Y-110399622D02*
X72060000Y-109600378D01*
%TO.C,J3*%
X73750000Y-95330000D02*
X75450000Y-95330000D01*
X73750000Y-104670000D02*
X75450000Y-104670000D01*
%TD*%
M02*
