%TF.GenerationSoftware,KiCad,Pcbnew,9.0.5*%
%TF.CreationDate,2026-05-30T13:24:32+05:30*%
%TF.ProjectId,vga-breakout,7667612d-6272-4656-916b-6f75742e6b69,rev?*%
%TF.SameCoordinates,Original*%
%TF.FileFunction,Copper,L1,Top*%
%TF.FilePolarity,Positive*%
%FSLAX46Y46*%
G04 Gerber Fmt 4.6, Leading zero omitted, Abs format (unit mm)*
G04 Created by KiCad (PCBNEW 9.0.5) date 2026-05-30 13:24:32*
%MOMM*%
%LPD*%
G01*
G04 APERTURE LIST*
G04 Aperture macros list*
%AMRoundRect*
0 Rectangle with rounded corners*
0 $1 Rounding radius*
0 $2 $3 $4 $5 $6 $7 $8 $9 X,Y pos of 4 corners*
0 Add a 4 corners polygon primitive as box body*
4,1,4,$2,$3,$4,$5,$6,$7,$8,$9,$2,$3,0*
0 Add four circle primitives for the rounded corners*
1,1,$1+$1,$2,$3*
1,1,$1+$1,$4,$5*
1,1,$1+$1,$6,$7*
1,1,$1+$1,$8,$9*
0 Add four rect primitives between the rounded corners*
20,1,$1+$1,$2,$3,$4,$5,0*
20,1,$1+$1,$4,$5,$6,$7,0*
20,1,$1+$1,$6,$7,$8,$9,0*
20,1,$1+$1,$8,$9,$2,$3,0*%
G04 Aperture macros list end*
%TA.AperFunction,SMDPad,CuDef*%
%ADD10RoundRect,0.218750X-0.218750X-0.381250X0.218750X-0.381250X0.218750X0.381250X-0.218750X0.381250X0*%
%TD*%
%TA.AperFunction,SMDPad,CuDef*%
%ADD11RoundRect,0.200000X0.275000X-0.200000X0.275000X0.200000X-0.275000X0.200000X-0.275000X-0.200000X0*%
%TD*%
%TA.AperFunction,ComponentPad*%
%ADD12R,1.700000X1.700000*%
%TD*%
%TA.AperFunction,ComponentPad*%
%ADD13C,1.700000*%
%TD*%
%TA.AperFunction,SMDPad,CuDef*%
%ADD14R,0.800000X1.000000*%
%TD*%
%TA.AperFunction,SMDPad,CuDef*%
%ADD15R,1.500000X0.700000*%
%TD*%
%TA.AperFunction,SMDPad,CuDef*%
%ADD16RoundRect,0.218750X0.381250X-0.218750X0.381250X0.218750X-0.381250X0.218750X-0.381250X-0.218750X0*%
%TD*%
%TA.AperFunction,SMDPad,CuDef*%
%ADD17RoundRect,0.200000X-0.275000X0.200000X-0.275000X-0.200000X0.275000X-0.200000X0.275000X0.200000X0*%
%TD*%
%TA.AperFunction,SMDPad,CuDef*%
%ADD18RoundRect,0.175000X-0.425000X0.175000X-0.425000X-0.175000X0.425000X-0.175000X0.425000X0.175000X0*%
%TD*%
%TA.AperFunction,SMDPad,CuDef*%
%ADD19RoundRect,0.190000X0.410000X-0.190000X0.410000X0.190000X-0.410000X0.190000X-0.410000X-0.190000X0*%
%TD*%
%TA.AperFunction,SMDPad,CuDef*%
%ADD20RoundRect,0.200000X0.400000X-0.200000X0.400000X0.200000X-0.400000X0.200000X-0.400000X-0.200000X0*%
%TD*%
%TA.AperFunction,SMDPad,CuDef*%
%ADD21RoundRect,0.175000X0.425000X-0.175000X0.425000X0.175000X-0.425000X0.175000X-0.425000X-0.175000X0*%
%TD*%
%TA.AperFunction,SMDPad,CuDef*%
%ADD22RoundRect,0.190000X-0.410000X0.190000X-0.410000X-0.190000X0.410000X-0.190000X0.410000X0.190000X0*%
%TD*%
%TA.AperFunction,SMDPad,CuDef*%
%ADD23RoundRect,0.200000X-0.400000X0.200000X-0.400000X-0.200000X0.400000X-0.200000X0.400000X0.200000X0*%
%TD*%
%TA.AperFunction,HeatsinkPad*%
%ADD24O,1.700000X1.100000*%
%TD*%
%TA.AperFunction,ComponentPad*%
%ADD25C,4.000000*%
%TD*%
%TA.AperFunction,ComponentPad*%
%ADD26R,1.600000X1.600000*%
%TD*%
%TA.AperFunction,ComponentPad*%
%ADD27C,1.600000*%
%TD*%
%TA.AperFunction,ViaPad*%
%ADD28C,0.600000*%
%TD*%
%TA.AperFunction,Conductor*%
%ADD29C,1.000000*%
%TD*%
%TA.AperFunction,Conductor*%
%ADD30C,0.300000*%
%TD*%
%TA.AperFunction,Conductor*%
%ADD31C,0.400000*%
%TD*%
%TA.AperFunction,Conductor*%
%ADD32C,0.200000*%
%TD*%
%TA.AperFunction,Conductor*%
%ADD33C,0.500000*%
%TD*%
%TA.AperFunction,Conductor*%
%ADD34C,0.250000*%
%TD*%
G04 APERTURE END LIST*
D10*
%TO.P,FB2,1*%
%TO.N,Net-(J3-SHIELD)*%
X72520987Y-102779689D03*
%TO.P,FB2,2*%
%TO.N,GND*%
X74645987Y-102779689D03*
%TD*%
D11*
%TO.P,R1,1*%
%TO.N,Net-(J3-CC1)*%
X78466196Y-95952357D03*
%TO.P,R1,2*%
%TO.N,GND*%
X78466196Y-94302357D03*
%TD*%
D12*
%TO.P,J2,1,Pin_1*%
%TO.N,/red*%
X110815643Y-94944201D03*
D13*
%TO.P,J2,2,Pin_2*%
%TO.N,/green*%
X108275643Y-94944201D03*
%TO.P,J2,3,Pin_3*%
%TO.N,/blue*%
X105735643Y-94944201D03*
%TO.P,J2,4,Pin_4*%
%TO.N,GND*%
X103195643Y-94944201D03*
%TO.P,J2,5,Pin_5*%
%TO.N,/HS*%
X100655643Y-94944201D03*
%TO.P,J2,6,Pin_6*%
%TO.N,/vs*%
X98115643Y-94944201D03*
%TO.P,J2,7,Pin_7*%
%TO.N,/h5v*%
X95575643Y-94944201D03*
%TO.P,J2,8,Pin_8*%
%TO.N,/id0{slash}res*%
X93035643Y-94944201D03*
%TO.P,J2,9,Pin_9*%
%TO.N,/id1{slash}sda*%
X90495643Y-94944201D03*
%TO.P,J2,10,Pin_10*%
%TO.N,/id2{slash}res*%
X87955643Y-94944201D03*
%TO.P,J2,11,Pin_11*%
%TO.N,/id3{slash}scl*%
X85415643Y-94944201D03*
%TD*%
D14*
%TO.P,SW1,*%
%TO.N,*%
X77110000Y-106350000D03*
X74900000Y-106350000D03*
X77110000Y-113650000D03*
X74900000Y-113650000D03*
D15*
%TO.P,SW1,1,C*%
%TO.N,/h5v*%
X77760000Y-107750000D03*
%TO.P,SW1,2,B*%
%TO.N,/5V*%
X77760000Y-110750000D03*
%TO.P,SW1,3,A*%
%TO.N,/u5v*%
X77760000Y-112250000D03*
%TD*%
D16*
%TO.P,FB1,1*%
%TO.N,GND*%
X114637906Y-108996436D03*
%TO.P,FB1,2*%
%TO.N,Net-(FB1-Pad2)*%
X114637906Y-106871436D03*
%TD*%
D17*
%TO.P,R2,1*%
%TO.N,Net-(J3-CC2)*%
X78483049Y-97425770D03*
%TO.P,R2,2*%
%TO.N,GND*%
X78483049Y-99075770D03*
%TD*%
D18*
%TO.P,J3,A5,CC1*%
%TO.N,Net-(J3-CC1)*%
X76401000Y-96000000D03*
D19*
%TO.P,J3,A9,VBUS*%
%TO.N,/u5v*%
X76401000Y-98020000D03*
D20*
%TO.P,J3,A12,GND*%
%TO.N,GND*%
X76401000Y-99250000D03*
D21*
%TO.P,J3,B5,CC2*%
%TO.N,Net-(J3-CC2)*%
X76401000Y-97000000D03*
D22*
%TO.P,J3,B9,VBUS*%
%TO.N,/u5v*%
X76401000Y-94980000D03*
D23*
%TO.P,J3,B12,GND*%
%TO.N,GND*%
X76401000Y-93750000D03*
D24*
%TO.P,J3,S1,SHIELD*%
%TO.N,Net-(J3-SHIELD)*%
X76321000Y-92180000D03*
X72521000Y-92180000D03*
X76321000Y-100820000D03*
X72521000Y-100820000D03*
%TD*%
D25*
%TO.P,J1,0*%
%TO.N,Net-(FB1-Pad2)*%
X85251892Y-107112259D03*
X110251892Y-107112259D03*
D26*
%TO.P,J1,1*%
%TO.N,/red*%
X102066892Y-105132259D03*
D27*
%TO.P,J1,2*%
%TO.N,/green*%
X99776892Y-105132259D03*
%TO.P,J1,3*%
%TO.N,/blue*%
X97486892Y-105132259D03*
%TO.P,J1,4*%
%TO.N,/id2{slash}res*%
X95196892Y-105132259D03*
%TO.P,J1,5*%
%TO.N,GND*%
X92906892Y-105132259D03*
%TO.P,J1,6*%
X103211892Y-107112259D03*
%TO.P,J1,7*%
X100921892Y-107112259D03*
%TO.P,J1,8*%
X98631892Y-107112259D03*
%TO.P,J1,9*%
%TO.N,/5V*%
X96341892Y-107112259D03*
%TO.P,J1,10*%
%TO.N,GND*%
X94051892Y-107112259D03*
%TO.P,J1,11*%
%TO.N,/id0{slash}res*%
X102066892Y-109092259D03*
%TO.P,J1,12*%
%TO.N,/id1{slash}sda*%
X99776892Y-109092259D03*
%TO.P,J1,13*%
%TO.N,/HS*%
X97486892Y-109092259D03*
%TO.P,J1,14*%
%TO.N,/vs*%
X95196892Y-109092259D03*
%TO.P,J1,15*%
%TO.N,/id3{slash}scl*%
X92906892Y-109092259D03*
%TD*%
D28*
%TO.N,GND*%
X78466194Y-94302357D03*
X78483047Y-99075771D03*
X74645987Y-102779687D03*
X76401000Y-99250000D03*
X76401000Y-93750000D03*
X114637904Y-108996436D03*
%TO.N,/id3{slash}scl*%
X90885798Y-111103088D03*
%TO.N,/id2{slash}res*%
X94069467Y-109779498D03*
X94069467Y-111580498D03*
%TO.N,Net-(FB1-Pad2)*%
X87094893Y-113139379D03*
%TO.N,/h5v*%
X93739251Y-93107807D03*
%TO.N,/5V*%
X96964988Y-111042002D03*
X96341892Y-109825204D03*
%TD*%
D29*
%TO.N,/green*%
X99776892Y-105132259D02*
X99776892Y-103442952D01*
X99776892Y-103442952D02*
X108275643Y-94944201D01*
%TO.N,/blue*%
X97486892Y-105132259D02*
X97486892Y-103192952D01*
X97486892Y-103192952D02*
X105735643Y-94944201D01*
D30*
%TO.N,/HS*%
X92408851Y-110930498D02*
X91254892Y-109776539D01*
X96157252Y-110930498D02*
X92408851Y-110930498D01*
X91254892Y-101096432D02*
X96914643Y-95436681D01*
X97618172Y-93743201D02*
X99454643Y-93743201D01*
X91254892Y-109776539D02*
X91254892Y-101096432D01*
X96914643Y-94446730D02*
X97618172Y-93743201D01*
X99454643Y-93743201D02*
X100655643Y-94944201D01*
X97486892Y-109092259D02*
X97486892Y-109600858D01*
X96914643Y-95436681D02*
X96914643Y-94446730D01*
X97486892Y-109600858D02*
X96157252Y-110930498D01*
%TO.N,/vs*%
X94991023Y-110429498D02*
X92616371Y-110429498D01*
X95196892Y-110223629D02*
X94991023Y-110429498D01*
X91755892Y-101303952D02*
X98115643Y-94944201D01*
X95196892Y-109092259D02*
X95196892Y-110223629D01*
X91755892Y-109569019D02*
X91755892Y-101303952D01*
X92616371Y-110429498D02*
X91755892Y-109569019D01*
D31*
%TO.N,/id3{slash}scl*%
X82850892Y-108106786D02*
X85776483Y-111032377D01*
X90815087Y-111032377D02*
X90885798Y-111103088D01*
X85776483Y-111032377D02*
X90815087Y-111032377D01*
X82850892Y-97508952D02*
X82850892Y-108106786D01*
X85415643Y-94944201D02*
X82850892Y-97508952D01*
D32*
%TO.N,/id1{slash}sda*%
X94186643Y-95420961D02*
X93512403Y-96095201D01*
X99776892Y-109092259D02*
X99054842Y-109092259D01*
X101806643Y-94467441D02*
X100533406Y-93194204D01*
X99054842Y-109092259D02*
X97530892Y-107568309D01*
X93512403Y-96095201D02*
X91646643Y-96095201D01*
X94186643Y-94467441D02*
X94186643Y-95420961D01*
X96297892Y-105500309D02*
X96297892Y-102263477D01*
X101280531Y-97280838D02*
X101280531Y-95947073D01*
X100533406Y-93194204D02*
X95459880Y-93194204D01*
X97530892Y-107568309D02*
X97530892Y-106733309D01*
X91646643Y-96095201D02*
X90495643Y-94944201D01*
X101280531Y-95947073D02*
X101806643Y-95420961D01*
X96297892Y-102263477D02*
X101280531Y-97280838D01*
X101806643Y-95420961D02*
X101806643Y-94467441D01*
X95459880Y-93194204D02*
X94186643Y-94467441D01*
X97530892Y-106733309D02*
X96297892Y-105500309D01*
D29*
%TO.N,/red*%
X102066892Y-103692952D02*
X110815643Y-94944201D01*
X102066892Y-105132259D02*
X102066892Y-103692952D01*
D32*
%TO.N,/id0{slash}res*%
X110966646Y-92793204D02*
X95186640Y-92793204D01*
X104413476Y-109092259D02*
X111966643Y-101539092D01*
X111966643Y-93793201D02*
X110966646Y-92793204D01*
X95186640Y-92793204D02*
X93035643Y-94944201D01*
X102066892Y-109092259D02*
X104413476Y-109092259D01*
X111966643Y-101539092D02*
X111966643Y-93793201D01*
%TO.N,/id2{slash}res*%
X87955643Y-107115100D02*
X87955643Y-94944201D01*
X95196892Y-107524309D02*
X95196892Y-105132259D01*
X94069467Y-109779498D02*
X94069467Y-108651734D01*
X94069467Y-111580498D02*
X92421041Y-111580498D01*
X92421041Y-111580498D02*
X87955643Y-107115100D01*
X94069467Y-108651734D02*
X95196892Y-107524309D01*
D29*
%TO.N,Net-(J3-SHIELD)*%
X72521000Y-92180000D02*
X72521000Y-100820000D01*
X72521000Y-100820000D02*
X72521000Y-102779676D01*
X76321000Y-92180000D02*
X72521000Y-92180000D01*
X72521000Y-102779676D02*
X72520987Y-102779689D01*
X76347567Y-100846567D02*
X76321000Y-100820000D01*
X76321000Y-100820000D02*
X72521000Y-100820000D01*
D32*
%TO.N,Net-(J3-CC2)*%
X77246770Y-97425770D02*
X78483049Y-97425770D01*
X76821000Y-97000000D02*
X77246770Y-97425770D01*
X76401000Y-97000000D02*
X76821000Y-97000000D01*
%TO.N,Net-(J3-CC1)*%
X76401000Y-96000000D02*
X78418553Y-96000000D01*
X78418553Y-96000000D02*
X78466196Y-95952357D01*
D29*
%TO.N,Net-(FB1-Pad2)*%
X110404392Y-106869759D02*
X110251892Y-107022259D01*
X104038947Y-113325204D02*
X110251892Y-107112259D01*
X85251892Y-107896565D02*
X85251892Y-107112259D01*
X114637906Y-106871436D02*
X114636229Y-106869759D01*
X87094893Y-113139379D02*
X87280718Y-113325204D01*
X114636229Y-106869759D02*
X110404392Y-106869759D01*
X87280718Y-113325204D02*
X104038947Y-113325204D01*
%TO.N,/h5v*%
X77760000Y-107750000D02*
X81949893Y-103560107D01*
X81949893Y-103560107D02*
X81949893Y-96216505D01*
X81949893Y-96216505D02*
X85058591Y-93107807D01*
X85058591Y-93107807D02*
X93739251Y-93107807D01*
D32*
X95207093Y-94944201D02*
X95575643Y-94944201D01*
D33*
%TO.N,/u5v*%
X76259000Y-106896083D02*
X75049000Y-108106083D01*
X75606083Y-112451000D02*
X77559000Y-112451000D01*
X75049000Y-111893917D02*
X75606083Y-112451000D01*
X77500000Y-100283372D02*
X77622000Y-100405372D01*
D32*
X75500000Y-97719000D02*
X75801000Y-98020000D01*
X76401000Y-94980000D02*
X75801000Y-94980000D01*
X75801000Y-94980000D02*
X75500000Y-95281000D01*
D33*
X77001000Y-98020000D02*
X77500000Y-98519000D01*
X75049000Y-108106083D02*
X75049000Y-111893917D01*
X77559000Y-112451000D02*
X77760000Y-112250000D01*
X77622000Y-104036000D02*
X76259000Y-105399000D01*
X76401000Y-98020000D02*
X77001000Y-98020000D01*
X77622000Y-100405372D02*
X77622000Y-104036000D01*
X77500000Y-98519000D02*
X77500000Y-100283372D01*
D32*
X75500000Y-95281000D02*
X75500000Y-97719000D01*
D33*
X76259000Y-105399000D02*
X76259000Y-106896083D01*
D32*
X75801000Y-98020000D02*
X76401000Y-98020000D01*
D33*
%TO.N,/5V*%
X95632786Y-112374204D02*
X96964988Y-111042002D01*
D34*
X96341892Y-107112259D02*
X96341892Y-109825204D01*
D33*
X93558392Y-112131498D02*
X93801098Y-112374204D01*
X79541498Y-112131498D02*
X93558392Y-112131498D01*
X93801098Y-112374204D02*
X95632786Y-112374204D01*
X78160000Y-110750000D02*
X79541498Y-112131498D01*
X77760000Y-110750000D02*
X78160000Y-110750000D01*
%TD*%
M02*
