%TF.GenerationSoftware,KiCad,Pcbnew,9.0.5*%
%TF.CreationDate,2026-05-30T17:48:03+05:30*%
%TF.ProjectId,vga-breakout,7667612d-6272-4656-916b-6f75742e6b69,rev?*%
%TF.SameCoordinates,Original*%
%TF.FileFunction,Copper,L1,Top*%
%TF.FilePolarity,Positive*%
%FSLAX46Y46*%
G04 Gerber Fmt 4.6, Leading zero omitted, Abs format (unit mm)*
G04 Created by KiCad (PCBNEW 9.0.5) date 2026-05-30 17:48:03*
%MOMM*%
%LPD*%
G01*
G04 APERTURE LIST*
G04 Aperture macros list*
%AMRoundRect*
0 Rectangle with rounded corners*
0 $1 Rounding radius*
0 $2 $3 $4 $5 $6 $7 $8 $9 X,Y pos of 4 corners*
0 Add a 4 corners polygon primitive as box body*
4,1,4,$2,$3,$4,$5,$6,$7,$8,$9,$2,$3,0*
0 Add four circle primitives for the rounded corners*
1,1,$1+$1,$2,$3*
1,1,$1+$1,$4,$5*
1,1,$1+$1,$6,$7*
1,1,$1+$1,$8,$9*
0 Add four rect primitives between the rounded corners*
20,1,$1+$1,$2,$3,$4,$5,0*
20,1,$1+$1,$4,$5,$6,$7,0*
20,1,$1+$1,$6,$7,$8,$9,0*
20,1,$1+$1,$8,$9,$2,$3,0*%
G04 Aperture macros list end*
%TA.AperFunction,ComponentPad*%
%ADD10C,1.700000*%
%TD*%
%TA.AperFunction,ComponentPad*%
%ADD11R,1.700000X1.700000*%
%TD*%
%TA.AperFunction,SMDPad,CuDef*%
%ADD12RoundRect,0.218750X0.381250X-0.218750X0.381250X0.218750X-0.381250X0.218750X-0.381250X-0.218750X0*%
%TD*%
%TA.AperFunction,SMDPad,CuDef*%
%ADD13RoundRect,0.200000X0.275000X-0.200000X0.275000X0.200000X-0.275000X0.200000X-0.275000X-0.200000X0*%
%TD*%
%TA.AperFunction,SMDPad,CuDef*%
%ADD14R,0.800000X1.000000*%
%TD*%
%TA.AperFunction,SMDPad,CuDef*%
%ADD15R,1.500000X0.700000*%
%TD*%
%TA.AperFunction,SMDPad,CuDef*%
%ADD16RoundRect,0.200000X-0.275000X0.200000X-0.275000X-0.200000X0.275000X-0.200000X0.275000X0.200000X0*%
%TD*%
%TA.AperFunction,HeatsinkPad*%
%ADD17O,1.700000X1.100000*%
%TD*%
%TA.AperFunction,SMDPad,CuDef*%
%ADD18RoundRect,0.200000X-0.400000X0.200000X-0.400000X-0.200000X0.400000X-0.200000X0.400000X0.200000X0*%
%TD*%
%TA.AperFunction,SMDPad,CuDef*%
%ADD19RoundRect,0.190000X-0.410000X0.190000X-0.410000X-0.190000X0.410000X-0.190000X0.410000X0.190000X0*%
%TD*%
%TA.AperFunction,SMDPad,CuDef*%
%ADD20RoundRect,0.175000X0.425000X-0.175000X0.425000X0.175000X-0.425000X0.175000X-0.425000X-0.175000X0*%
%TD*%
%TA.AperFunction,SMDPad,CuDef*%
%ADD21RoundRect,0.200000X0.400000X-0.200000X0.400000X0.200000X-0.400000X0.200000X-0.400000X-0.200000X0*%
%TD*%
%TA.AperFunction,SMDPad,CuDef*%
%ADD22RoundRect,0.190000X0.410000X-0.190000X0.410000X0.190000X-0.410000X0.190000X-0.410000X-0.190000X0*%
%TD*%
%TA.AperFunction,SMDPad,CuDef*%
%ADD23RoundRect,0.175000X-0.425000X0.175000X-0.425000X-0.175000X0.425000X-0.175000X0.425000X0.175000X0*%
%TD*%
%TA.AperFunction,ComponentPad*%
%ADD24C,4.000000*%
%TD*%
%TA.AperFunction,ComponentPad*%
%ADD25R,1.600000X1.600000*%
%TD*%
%TA.AperFunction,ComponentPad*%
%ADD26C,1.600000*%
%TD*%
%TA.AperFunction,ViaPad*%
%ADD27C,0.600000*%
%TD*%
%TA.AperFunction,Conductor*%
%ADD28C,0.200000*%
%TD*%
%TA.AperFunction,Conductor*%
%ADD29C,1.000000*%
%TD*%
%TA.AperFunction,Conductor*%
%ADD30C,0.700000*%
%TD*%
%TA.AperFunction,Conductor*%
%ADD31C,0.250000*%
%TD*%
%TA.AperFunction,Conductor*%
%ADD32C,0.500000*%
%TD*%
%TA.AperFunction,Conductor*%
%ADD33C,0.900000*%
%TD*%
G04 APERTURE END LIST*
D10*
%TO.P,J2,11,Pin_11*%
%TO.N,/id3{slash}scl*%
X83100000Y-94944201D03*
%TO.P,J2,10,Pin_10*%
%TO.N,/id2{slash}res*%
X85640000Y-94944201D03*
%TO.P,J2,9,Pin_9*%
%TO.N,/id1{slash}sda*%
X88180000Y-94944201D03*
%TO.P,J2,8,Pin_8*%
%TO.N,/id0{slash}res*%
X90720000Y-94944201D03*
%TO.P,J2,7,Pin_7*%
%TO.N,/h5v*%
X93260000Y-94944201D03*
%TO.P,J2,6,Pin_6*%
%TO.N,/vs*%
X95800000Y-94944201D03*
%TO.P,J2,5,Pin_5*%
%TO.N,/HS*%
X98340000Y-94944201D03*
%TO.P,J2,4,Pin_4*%
%TO.N,GND*%
X100880000Y-94944201D03*
%TO.P,J2,3,Pin_3*%
%TO.N,/blue*%
X103420000Y-94944201D03*
%TO.P,J2,2,Pin_2*%
%TO.N,/green*%
X105960000Y-94944201D03*
D11*
%TO.P,J2,1,Pin_1*%
%TO.N,/red*%
X108500000Y-94944201D03*
%TD*%
D12*
%TO.P,FB2,1*%
%TO.N,Net-(SW1-A)*%
X71500000Y-111062500D03*
%TO.P,FB2,2*%
%TO.N,/u5v*%
X71500000Y-108937500D03*
%TD*%
D13*
%TO.P,R1,2*%
%TO.N,GND*%
X78645196Y-97802357D03*
%TO.P,R1,1*%
%TO.N,Net-(J3-CC1)*%
X78645196Y-99452357D03*
%TD*%
D14*
%TO.P,SW1,*%
%TO.N,*%
X77780000Y-106350000D03*
X75570000Y-106350000D03*
X77780000Y-113650000D03*
X75570000Y-113650000D03*
D15*
%TO.P,SW1,1,C*%
%TO.N,/h5v*%
X78430000Y-107750000D03*
%TO.P,SW1,2,B*%
%TO.N,/5V*%
X78430000Y-110750000D03*
%TO.P,SW1,3,A*%
%TO.N,Net-(SW1-A)*%
X78430000Y-112250000D03*
%TD*%
D16*
%TO.P,R2,2*%
%TO.N,GND*%
X78662049Y-102575770D03*
%TO.P,R2,1*%
%TO.N,Net-(J3-CC2)*%
X78662049Y-100925770D03*
%TD*%
D17*
%TO.P,J3,S1,SHIELD*%
%TO.N,GND*%
X72700000Y-104320000D03*
X76500000Y-104320000D03*
X72700000Y-95680000D03*
X76500000Y-95680000D03*
D18*
%TO.P,J3,B12,GND*%
X76580000Y-97250000D03*
D19*
%TO.P,J3,B9,VBUS*%
%TO.N,/u5v*%
X76580000Y-98480000D03*
D20*
%TO.P,J3,B5,CC2*%
%TO.N,Net-(J3-CC2)*%
X76580000Y-100500000D03*
D21*
%TO.P,J3,A12,GND*%
%TO.N,GND*%
X76580000Y-102750000D03*
D22*
%TO.P,J3,A9,VBUS*%
%TO.N,/u5v*%
X76580000Y-101520000D03*
D23*
%TO.P,J3,A5,CC1*%
%TO.N,Net-(J3-CC1)*%
X76580000Y-99500000D03*
%TD*%
D24*
%TO.P,J1,0*%
%TO.N,GND*%
X85251892Y-107112259D03*
X110251892Y-107112259D03*
D25*
%TO.P,J1,1*%
%TO.N,/red*%
X102066892Y-105132259D03*
D26*
%TO.P,J1,2*%
%TO.N,/green*%
X99776892Y-105132259D03*
%TO.P,J1,3*%
%TO.N,/blue*%
X97486892Y-105132259D03*
%TO.P,J1,4*%
%TO.N,/id2{slash}res*%
X95196892Y-105132259D03*
%TO.P,J1,5*%
%TO.N,GND*%
X92906892Y-105132259D03*
%TO.P,J1,6*%
X103211892Y-107112259D03*
%TO.P,J1,7*%
X100921892Y-107112259D03*
%TO.P,J1,8*%
X98631892Y-107112259D03*
%TO.P,J1,9*%
%TO.N,/5V*%
X96341892Y-107112259D03*
%TO.P,J1,10*%
%TO.N,GND*%
X94051892Y-107112259D03*
%TO.P,J1,11*%
%TO.N,/id0{slash}res*%
X102066892Y-109092259D03*
%TO.P,J1,12*%
%TO.N,/id1{slash}sda*%
X99776892Y-109092259D03*
%TO.P,J1,13*%
%TO.N,/HS*%
X97486892Y-109092259D03*
%TO.P,J1,14*%
%TO.N,/vs*%
X95196892Y-109092259D03*
%TO.P,J1,15*%
%TO.N,/id3{slash}scl*%
X92906892Y-109092259D03*
%TD*%
D27*
%TO.N,/id0{slash}res*%
X102066892Y-111093259D03*
%TO.N,/h5v*%
X93226044Y-92647266D03*
%TO.N,GND*%
X78645194Y-97802357D03*
X78662047Y-102575771D03*
X76580000Y-102750000D03*
X76580000Y-97250000D03*
%TD*%
D28*
%TO.N,/id0{slash}res*%
X90720000Y-94944201D02*
X91871000Y-96095201D01*
X91871000Y-96095201D02*
X96514760Y-96095201D01*
X97189000Y-95420961D02*
X97189000Y-94467441D01*
X110352000Y-103355565D02*
X102614306Y-111093259D01*
X102614306Y-111093259D02*
X102066892Y-111093259D01*
X96514760Y-96095201D02*
X97189000Y-95420961D01*
X97189000Y-94467441D02*
X98564240Y-93092201D01*
X98564240Y-93092201D02*
X110029232Y-93092201D01*
X110029232Y-93092201D02*
X110352000Y-93414969D01*
X110352000Y-93414969D02*
X110352000Y-103355565D01*
%TO.N,Net-(J3-CC2)*%
X76580000Y-100500000D02*
X78236279Y-100500000D01*
X78236279Y-100500000D02*
X78662049Y-100925770D01*
D29*
%TO.N,/h5v*%
X78430000Y-107750000D02*
X80848000Y-105332000D01*
X80848000Y-105332000D02*
X80848000Y-93152000D01*
X80848000Y-93152000D02*
X81352734Y-92647266D01*
X81352734Y-92647266D02*
X93226044Y-92647266D01*
%TO.N,/5V*%
X91450534Y-110750000D02*
X91997793Y-111297259D01*
X78430000Y-110750000D02*
X91450534Y-110750000D01*
D30*
%TO.N,Net-(SW1-A)*%
X77459000Y-112551000D02*
X77760000Y-112250000D01*
X74076162Y-111062500D02*
X75564662Y-112551000D01*
D29*
%TO.N,/5V*%
X91997793Y-111297259D02*
X95114627Y-111297259D01*
X95114627Y-111297259D02*
X96341892Y-110069994D01*
D30*
%TO.N,Net-(SW1-A)*%
X71500000Y-111062500D02*
X74076162Y-111062500D01*
X75564662Y-112551000D02*
X77459000Y-112551000D01*
X77760000Y-112250000D02*
X78430000Y-112250000D01*
D31*
%TO.N,/5V*%
X96341892Y-107112259D02*
X96341892Y-110069994D01*
D32*
%TO.N,/vs*%
X94499000Y-93643201D02*
X95800000Y-94944201D01*
X82561108Y-93643201D02*
X94499000Y-93643201D01*
X93941892Y-110347259D02*
X92392710Y-110347259D01*
X81799000Y-94405309D02*
X82561108Y-93643201D01*
X92392710Y-110347259D02*
X81799000Y-99753549D01*
X95196892Y-109092259D02*
X93941892Y-110347259D01*
X81799000Y-99753549D02*
X81799000Y-94405309D01*
%TO.N,/HS*%
X97486892Y-109092259D02*
X98737892Y-110343259D01*
X98737892Y-110343259D02*
X102585074Y-110343259D01*
X102585074Y-110343259D02*
X109801000Y-103127333D01*
X109801000Y-103127333D02*
X109801000Y-93643201D01*
X109801000Y-93643201D02*
X99641000Y-93643201D01*
X99641000Y-93643201D02*
X98340000Y-94944201D01*
D28*
%TO.N,/id1{slash}sda*%
X99776892Y-109092259D02*
X99054842Y-109092259D01*
X97530892Y-106733309D02*
X96297892Y-105500309D01*
X99054842Y-109092259D02*
X97530892Y-107568309D01*
X96297892Y-103062093D02*
X88180000Y-94944201D01*
X97530892Y-107568309D02*
X97530892Y-106733309D01*
X96297892Y-105500309D02*
X96297892Y-103062093D01*
D29*
%TO.N,/id3{slash}scl*%
X92906892Y-109092259D02*
X83100000Y-99285367D01*
X83100000Y-99285367D02*
X83100000Y-94944201D01*
%TO.N,/id2{slash}res*%
X95196892Y-105132259D02*
X85640000Y-95575367D01*
X85640000Y-95575367D02*
X85640000Y-94944201D01*
%TO.N,/blue*%
X97486892Y-105132259D02*
X97486892Y-100877309D01*
X97486892Y-100877309D02*
X103420000Y-94944201D01*
%TO.N,/green*%
X99776892Y-105132259D02*
X99776892Y-101127309D01*
X99776892Y-101127309D02*
X105960000Y-94944201D01*
%TO.N,/red*%
X102066892Y-105132259D02*
X102066892Y-101377309D01*
X102066892Y-101377309D02*
X108500000Y-94944201D01*
D33*
%TO.N,/u5v*%
X76580000Y-101520000D02*
X73501530Y-101520000D01*
X71199000Y-103822530D02*
X71199000Y-108636500D01*
X73501530Y-101520000D02*
X71199000Y-103822530D01*
X71199000Y-108636500D02*
X71500000Y-108937500D01*
D28*
%TO.N,Net-(J3-CC1)*%
X76580000Y-99500000D02*
X78597553Y-99500000D01*
X78597553Y-99500000D02*
X78645196Y-99452357D01*
D29*
%TO.N,GND*%
X85251892Y-107896565D02*
X85251892Y-107112259D01*
D33*
%TO.N,/u5v*%
X75827010Y-101520000D02*
X76580000Y-101520000D01*
X75329000Y-98978010D02*
X75329000Y-101021990D01*
X75329000Y-101021990D02*
X75827010Y-101520000D01*
X75827010Y-98480000D02*
X75329000Y-98978010D01*
X76580000Y-98480000D02*
X75827010Y-98480000D01*
%TD*%
M02*
