%TF.GenerationSoftware,KiCad,Pcbnew,9.0.5*%
%TF.CreationDate,2026-05-30T13:24:32+05:30*%
%TF.ProjectId,vga-breakout,7667612d-6272-4656-916b-6f75742e6b69,rev?*%
%TF.SameCoordinates,Original*%
%TF.FileFunction,Legend,Top*%
%TF.FilePolarity,Positive*%
%FSLAX46Y46*%
G04 Gerber Fmt 4.6, Leading zero omitted, Abs format (unit mm)*
G04 Created by KiCad (PCBNEW 9.0.5) date 2026-05-30 13:24:32*
%MOMM*%
%LPD*%
G01*
G04 APERTURE LIST*
%ADD10C,0.100000*%
%ADD11C,0.125000*%
%ADD12C,0.150000*%
%ADD13C,0.120000*%
G04 APERTURE END LIST*
D10*
X68328637Y-87984655D02*
X118828637Y-87984655D01*
X118828637Y-137984655D01*
X68328637Y-137984655D01*
X68328637Y-87984655D01*
X102736153Y-97019433D02*
X103688534Y-97019433D01*
X102926629Y-97305147D02*
X103498057Y-97305147D01*
X103212343Y-96590862D02*
X103212343Y-97019433D01*
X103307581Y-97590862D02*
X103117105Y-97590862D01*
X84436796Y-97540060D02*
X84532034Y-97587679D01*
X84532034Y-97587679D02*
X84722510Y-97587679D01*
X84722510Y-97587679D02*
X84817748Y-97540060D01*
X84817748Y-97540060D02*
X84865367Y-97444821D01*
X84865367Y-97444821D02*
X84865367Y-97397202D01*
X84865367Y-97397202D02*
X84817748Y-97301964D01*
X84817748Y-97301964D02*
X84722510Y-97254345D01*
X84722510Y-97254345D02*
X84579653Y-97254345D01*
X84579653Y-97254345D02*
X84484415Y-97206726D01*
X84484415Y-97206726D02*
X84436796Y-97111488D01*
X84436796Y-97111488D02*
X84436796Y-97063869D01*
X84436796Y-97063869D02*
X84484415Y-96968631D01*
X84484415Y-96968631D02*
X84579653Y-96921012D01*
X84579653Y-96921012D02*
X84722510Y-96921012D01*
X84722510Y-96921012D02*
X84817748Y-96968631D01*
X85722510Y-97540060D02*
X85627272Y-97587679D01*
X85627272Y-97587679D02*
X85436796Y-97587679D01*
X85436796Y-97587679D02*
X85341558Y-97540060D01*
X85341558Y-97540060D02*
X85293939Y-97492440D01*
X85293939Y-97492440D02*
X85246320Y-97397202D01*
X85246320Y-97397202D02*
X85246320Y-97111488D01*
X85246320Y-97111488D02*
X85293939Y-97016250D01*
X85293939Y-97016250D02*
X85341558Y-96968631D01*
X85341558Y-96968631D02*
X85436796Y-96921012D01*
X85436796Y-96921012D02*
X85627272Y-96921012D01*
X85627272Y-96921012D02*
X85722510Y-96968631D01*
X86293939Y-97587679D02*
X86198701Y-97540060D01*
X86198701Y-97540060D02*
X86151082Y-97444821D01*
X86151082Y-97444821D02*
X86151082Y-96587679D01*
X84484415Y-99197623D02*
X84484415Y-98530956D01*
X84484415Y-98197623D02*
X84436796Y-98245242D01*
X84436796Y-98245242D02*
X84484415Y-98292861D01*
X84484415Y-98292861D02*
X84532034Y-98245242D01*
X84532034Y-98245242D02*
X84484415Y-98197623D01*
X84484415Y-98197623D02*
X84484415Y-98292861D01*
X84865367Y-98197623D02*
X85484414Y-98197623D01*
X85484414Y-98197623D02*
X85151081Y-98578575D01*
X85151081Y-98578575D02*
X85293938Y-98578575D01*
X85293938Y-98578575D02*
X85389176Y-98626194D01*
X85389176Y-98626194D02*
X85436795Y-98673813D01*
X85436795Y-98673813D02*
X85484414Y-98769051D01*
X85484414Y-98769051D02*
X85484414Y-99007146D01*
X85484414Y-99007146D02*
X85436795Y-99102384D01*
X85436795Y-99102384D02*
X85389176Y-99150004D01*
X85389176Y-99150004D02*
X85293938Y-99197623D01*
X85293938Y-99197623D02*
X85008224Y-99197623D01*
X85008224Y-99197623D02*
X84912986Y-99150004D01*
X84912986Y-99150004D02*
X84865367Y-99102384D01*
X87381896Y-97621283D02*
X87381896Y-96954616D01*
X87381896Y-96621283D02*
X87334277Y-96668902D01*
X87334277Y-96668902D02*
X87381896Y-96716521D01*
X87381896Y-96716521D02*
X87429515Y-96668902D01*
X87429515Y-96668902D02*
X87381896Y-96621283D01*
X87381896Y-96621283D02*
X87381896Y-96716521D01*
X87810467Y-96716521D02*
X87858086Y-96668902D01*
X87858086Y-96668902D02*
X87953324Y-96621283D01*
X87953324Y-96621283D02*
X88191419Y-96621283D01*
X88191419Y-96621283D02*
X88286657Y-96668902D01*
X88286657Y-96668902D02*
X88334276Y-96716521D01*
X88334276Y-96716521D02*
X88381895Y-96811759D01*
X88381895Y-96811759D02*
X88381895Y-96906997D01*
X88381895Y-96906997D02*
X88334276Y-97049854D01*
X88334276Y-97049854D02*
X87762848Y-97621283D01*
X87762848Y-97621283D02*
X88381895Y-97621283D01*
X87381896Y-99231227D02*
X87381896Y-98564560D01*
X87381896Y-98755036D02*
X87429515Y-98659798D01*
X87429515Y-98659798D02*
X87477134Y-98612179D01*
X87477134Y-98612179D02*
X87572372Y-98564560D01*
X87572372Y-98564560D02*
X87667610Y-98564560D01*
X87953325Y-99183608D02*
X88048563Y-99231227D01*
X88048563Y-99231227D02*
X88239039Y-99231227D01*
X88239039Y-99231227D02*
X88334277Y-99183608D01*
X88334277Y-99183608D02*
X88381896Y-99088369D01*
X88381896Y-99088369D02*
X88381896Y-99040750D01*
X88381896Y-99040750D02*
X88334277Y-98945512D01*
X88334277Y-98945512D02*
X88239039Y-98897893D01*
X88239039Y-98897893D02*
X88096182Y-98897893D01*
X88096182Y-98897893D02*
X88000944Y-98850274D01*
X88000944Y-98850274D02*
X87953325Y-98755036D01*
X87953325Y-98755036D02*
X87953325Y-98707417D01*
X87953325Y-98707417D02*
X88000944Y-98612179D01*
X88000944Y-98612179D02*
X88096182Y-98564560D01*
X88096182Y-98564560D02*
X88239039Y-98564560D01*
X88239039Y-98564560D02*
X88334277Y-98612179D01*
X97852792Y-93256003D02*
X97281364Y-93256003D01*
X97567078Y-93256003D02*
X97567078Y-92256003D01*
X97567078Y-92256003D02*
X97471840Y-92398860D01*
X97471840Y-92398860D02*
X97376602Y-92494098D01*
X97376602Y-92494098D02*
X97281364Y-92541717D01*
X98709935Y-92589336D02*
X98709935Y-93256003D01*
X98471840Y-92208384D02*
X98233745Y-92922669D01*
X98233745Y-92922669D02*
X98852792Y-92922669D01*
X91662805Y-107554752D02*
X91091377Y-107554752D01*
X91377091Y-107554752D02*
X91377091Y-106554752D01*
X91377091Y-106554752D02*
X91281853Y-106697609D01*
X91281853Y-106697609D02*
X91186615Y-106792847D01*
X91186615Y-106792847D02*
X91091377Y-106840466D01*
X92281853Y-106554752D02*
X92377091Y-106554752D01*
X92377091Y-106554752D02*
X92472329Y-106602371D01*
X92472329Y-106602371D02*
X92519948Y-106649990D01*
X92519948Y-106649990D02*
X92567567Y-106745228D01*
X92567567Y-106745228D02*
X92615186Y-106935704D01*
X92615186Y-106935704D02*
X92615186Y-107173799D01*
X92615186Y-107173799D02*
X92567567Y-107364275D01*
X92567567Y-107364275D02*
X92519948Y-107459513D01*
X92519948Y-107459513D02*
X92472329Y-107507133D01*
X92472329Y-107507133D02*
X92377091Y-107554752D01*
X92377091Y-107554752D02*
X92281853Y-107554752D01*
X92281853Y-107554752D02*
X92186615Y-107507133D01*
X92186615Y-107507133D02*
X92138996Y-107459513D01*
X92138996Y-107459513D02*
X92091377Y-107364275D01*
X92091377Y-107364275D02*
X92043758Y-107173799D01*
X92043758Y-107173799D02*
X92043758Y-106935704D01*
X92043758Y-106935704D02*
X92091377Y-106745228D01*
X92091377Y-106745228D02*
X92138996Y-106649990D01*
X92138996Y-106649990D02*
X92186615Y-106602371D01*
X92186615Y-106602371D02*
X92281853Y-106554752D01*
X95225550Y-96732144D02*
X94749360Y-96732144D01*
X94749360Y-96732144D02*
X94701741Y-97208334D01*
X94701741Y-97208334D02*
X94749360Y-97160715D01*
X94749360Y-97160715D02*
X94844598Y-97113096D01*
X94844598Y-97113096D02*
X95082693Y-97113096D01*
X95082693Y-97113096D02*
X95177931Y-97160715D01*
X95177931Y-97160715D02*
X95225550Y-97208334D01*
X95225550Y-97208334D02*
X95273169Y-97303572D01*
X95273169Y-97303572D02*
X95273169Y-97541667D01*
X95273169Y-97541667D02*
X95225550Y-97636905D01*
X95225550Y-97636905D02*
X95177931Y-97684525D01*
X95177931Y-97684525D02*
X95082693Y-97732144D01*
X95082693Y-97732144D02*
X94844598Y-97732144D01*
X94844598Y-97732144D02*
X94749360Y-97684525D01*
X94749360Y-97684525D02*
X94701741Y-97636905D01*
X95558884Y-96732144D02*
X95892217Y-97732144D01*
X95892217Y-97732144D02*
X96225550Y-96732144D01*
X111150150Y-93123402D02*
X110578722Y-93123402D01*
X110864436Y-93123402D02*
X110864436Y-92123402D01*
X110864436Y-92123402D02*
X110769198Y-92266259D01*
X110769198Y-92266259D02*
X110673960Y-92361497D01*
X110673960Y-92361497D02*
X110578722Y-92409116D01*
X108519159Y-96750492D02*
X108519159Y-97560016D01*
X108519159Y-97560016D02*
X108471540Y-97655254D01*
X108471540Y-97655254D02*
X108423921Y-97702873D01*
X108423921Y-97702873D02*
X108328683Y-97750492D01*
X108328683Y-97750492D02*
X108185826Y-97750492D01*
X108185826Y-97750492D02*
X108090588Y-97702873D01*
X108519159Y-97369540D02*
X108423921Y-97417159D01*
X108423921Y-97417159D02*
X108233445Y-97417159D01*
X108233445Y-97417159D02*
X108138207Y-97369540D01*
X108138207Y-97369540D02*
X108090588Y-97321920D01*
X108090588Y-97321920D02*
X108042969Y-97226682D01*
X108042969Y-97226682D02*
X108042969Y-96940968D01*
X108042969Y-96940968D02*
X108090588Y-96845730D01*
X108090588Y-96845730D02*
X108138207Y-96798111D01*
X108138207Y-96798111D02*
X108233445Y-96750492D01*
X108233445Y-96750492D02*
X108423921Y-96750492D01*
X108423921Y-96750492D02*
X108519159Y-96798111D01*
X99984415Y-97697623D02*
X99984415Y-96697623D01*
X99984415Y-97173813D02*
X100555843Y-97173813D01*
X100555843Y-97697623D02*
X100555843Y-96697623D01*
X100984415Y-97650004D02*
X101079653Y-97697623D01*
X101079653Y-97697623D02*
X101270129Y-97697623D01*
X101270129Y-97697623D02*
X101365367Y-97650004D01*
X101365367Y-97650004D02*
X101412986Y-97554765D01*
X101412986Y-97554765D02*
X101412986Y-97507146D01*
X101412986Y-97507146D02*
X101365367Y-97411908D01*
X101365367Y-97411908D02*
X101270129Y-97364289D01*
X101270129Y-97364289D02*
X101127272Y-97364289D01*
X101127272Y-97364289D02*
X101032034Y-97316670D01*
X101032034Y-97316670D02*
X100984415Y-97221432D01*
X100984415Y-97221432D02*
X100984415Y-97173813D01*
X100984415Y-97173813D02*
X101032034Y-97078575D01*
X101032034Y-97078575D02*
X101127272Y-97030956D01*
X101127272Y-97030956D02*
X101270129Y-97030956D01*
X101270129Y-97030956D02*
X101365367Y-97078575D01*
X100441776Y-93231089D02*
X99870348Y-93231089D01*
X100156062Y-93231089D02*
X100156062Y-92231089D01*
X100156062Y-92231089D02*
X100060824Y-92373946D01*
X100060824Y-92373946D02*
X99965586Y-92469184D01*
X99965586Y-92469184D02*
X99870348Y-92516803D01*
X100775110Y-92231089D02*
X101394157Y-92231089D01*
X101394157Y-92231089D02*
X101060824Y-92612041D01*
X101060824Y-92612041D02*
X101203681Y-92612041D01*
X101203681Y-92612041D02*
X101298919Y-92659660D01*
X101298919Y-92659660D02*
X101346538Y-92707279D01*
X101346538Y-92707279D02*
X101394157Y-92802517D01*
X101394157Y-92802517D02*
X101394157Y-93040612D01*
X101394157Y-93040612D02*
X101346538Y-93135850D01*
X101346538Y-93135850D02*
X101298919Y-93183470D01*
X101298919Y-93183470D02*
X101203681Y-93231089D01*
X101203681Y-93231089D02*
X100917967Y-93231089D01*
X100917967Y-93231089D02*
X100822729Y-93183470D01*
X100822729Y-93183470D02*
X100775110Y-93135850D01*
X85182575Y-93251182D02*
X84611147Y-93251182D01*
X84896861Y-93251182D02*
X84896861Y-92251182D01*
X84896861Y-92251182D02*
X84801623Y-92394039D01*
X84801623Y-92394039D02*
X84706385Y-92489277D01*
X84706385Y-92489277D02*
X84611147Y-92536896D01*
X86087337Y-92251182D02*
X85611147Y-92251182D01*
X85611147Y-92251182D02*
X85563528Y-92727372D01*
X85563528Y-92727372D02*
X85611147Y-92679753D01*
X85611147Y-92679753D02*
X85706385Y-92632134D01*
X85706385Y-92632134D02*
X85944480Y-92632134D01*
X85944480Y-92632134D02*
X86039718Y-92679753D01*
X86039718Y-92679753D02*
X86087337Y-92727372D01*
X86087337Y-92727372D02*
X86134956Y-92822610D01*
X86134956Y-92822610D02*
X86134956Y-93060705D01*
X86134956Y-93060705D02*
X86087337Y-93155943D01*
X86087337Y-93155943D02*
X86039718Y-93203563D01*
X86039718Y-93203563D02*
X85944480Y-93251182D01*
X85944480Y-93251182D02*
X85706385Y-93251182D01*
X85706385Y-93251182D02*
X85611147Y-93203563D01*
X85611147Y-93203563D02*
X85563528Y-93155943D01*
X88118303Y-92557291D02*
X88118303Y-93223958D01*
X87880208Y-92176339D02*
X87642113Y-92890624D01*
X87642113Y-92890624D02*
X88261160Y-92890624D01*
X92924884Y-93181483D02*
X92353456Y-93181483D01*
X92639170Y-93181483D02*
X92639170Y-92181483D01*
X92639170Y-92181483D02*
X92543932Y-92324340D01*
X92543932Y-92324340D02*
X92448694Y-92419578D01*
X92448694Y-92419578D02*
X92353456Y-92467197D01*
X93877265Y-93181483D02*
X93305837Y-93181483D01*
X93591551Y-93181483D02*
X93591551Y-92181483D01*
X93591551Y-92181483D02*
X93496313Y-92324340D01*
X93496313Y-92324340D02*
X93401075Y-92419578D01*
X93401075Y-92419578D02*
X93305837Y-92467197D01*
X107936796Y-92292861D02*
X107984415Y-92245242D01*
X107984415Y-92245242D02*
X108079653Y-92197623D01*
X108079653Y-92197623D02*
X108317748Y-92197623D01*
X108317748Y-92197623D02*
X108412986Y-92245242D01*
X108412986Y-92245242D02*
X108460605Y-92292861D01*
X108460605Y-92292861D02*
X108508224Y-92388099D01*
X108508224Y-92388099D02*
X108508224Y-92483337D01*
X108508224Y-92483337D02*
X108460605Y-92626194D01*
X108460605Y-92626194D02*
X107889177Y-93197623D01*
X107889177Y-93197623D02*
X108508224Y-93197623D01*
X95473414Y-93168164D02*
X95663890Y-93168164D01*
X95663890Y-93168164D02*
X95759128Y-93120545D01*
X95759128Y-93120545D02*
X95806747Y-93072925D01*
X95806747Y-93072925D02*
X95901985Y-92930068D01*
X95901985Y-92930068D02*
X95949604Y-92739592D01*
X95949604Y-92739592D02*
X95949604Y-92358640D01*
X95949604Y-92358640D02*
X95901985Y-92263402D01*
X95901985Y-92263402D02*
X95854366Y-92215783D01*
X95854366Y-92215783D02*
X95759128Y-92168164D01*
X95759128Y-92168164D02*
X95568652Y-92168164D01*
X95568652Y-92168164D02*
X95473414Y-92215783D01*
X95473414Y-92215783D02*
X95425795Y-92263402D01*
X95425795Y-92263402D02*
X95378176Y-92358640D01*
X95378176Y-92358640D02*
X95378176Y-92596735D01*
X95378176Y-92596735D02*
X95425795Y-92691973D01*
X95425795Y-92691973D02*
X95473414Y-92739592D01*
X95473414Y-92739592D02*
X95568652Y-92787211D01*
X95568652Y-92787211D02*
X95759128Y-92787211D01*
X95759128Y-92787211D02*
X95854366Y-92739592D01*
X95854366Y-92739592D02*
X95901985Y-92691973D01*
X95901985Y-92691973D02*
X95949604Y-92596735D01*
X82922931Y-126762475D02*
X83256264Y-127762475D01*
X83256264Y-127762475D02*
X83589597Y-126762475D01*
X84446740Y-126810094D02*
X84351502Y-126762475D01*
X84351502Y-126762475D02*
X84208645Y-126762475D01*
X84208645Y-126762475D02*
X84065788Y-126810094D01*
X84065788Y-126810094D02*
X83970550Y-126905332D01*
X83970550Y-126905332D02*
X83922931Y-127000570D01*
X83922931Y-127000570D02*
X83875312Y-127191046D01*
X83875312Y-127191046D02*
X83875312Y-127333903D01*
X83875312Y-127333903D02*
X83922931Y-127524379D01*
X83922931Y-127524379D02*
X83970550Y-127619617D01*
X83970550Y-127619617D02*
X84065788Y-127714856D01*
X84065788Y-127714856D02*
X84208645Y-127762475D01*
X84208645Y-127762475D02*
X84303883Y-127762475D01*
X84303883Y-127762475D02*
X84446740Y-127714856D01*
X84446740Y-127714856D02*
X84494359Y-127667236D01*
X84494359Y-127667236D02*
X84494359Y-127333903D01*
X84494359Y-127333903D02*
X84303883Y-127333903D01*
X84875312Y-127476760D02*
X85351502Y-127476760D01*
X84780074Y-127762475D02*
X85113407Y-126762475D01*
X85113407Y-126762475D02*
X85446740Y-127762475D01*
X79684836Y-129324800D02*
X79589598Y-129372419D01*
X79589598Y-129372419D02*
X79399122Y-129372419D01*
X79399122Y-129372419D02*
X79303884Y-129324800D01*
X79303884Y-129324800D02*
X79256265Y-129229561D01*
X79256265Y-129229561D02*
X79256265Y-128848609D01*
X79256265Y-128848609D02*
X79303884Y-128753371D01*
X79303884Y-128753371D02*
X79399122Y-128705752D01*
X79399122Y-128705752D02*
X79589598Y-128705752D01*
X79589598Y-128705752D02*
X79684836Y-128753371D01*
X79684836Y-128753371D02*
X79732455Y-128848609D01*
X79732455Y-128848609D02*
X79732455Y-128943847D01*
X79732455Y-128943847D02*
X79256265Y-129039085D01*
X80065789Y-129372419D02*
X80589598Y-128705752D01*
X80065789Y-128705752D02*
X80589598Y-129372419D01*
X80970551Y-128705752D02*
X80970551Y-129705752D01*
X80970551Y-128753371D02*
X81065789Y-128705752D01*
X81065789Y-128705752D02*
X81256265Y-128705752D01*
X81256265Y-128705752D02*
X81351503Y-128753371D01*
X81351503Y-128753371D02*
X81399122Y-128800990D01*
X81399122Y-128800990D02*
X81446741Y-128896228D01*
X81446741Y-128896228D02*
X81446741Y-129181942D01*
X81446741Y-129181942D02*
X81399122Y-129277180D01*
X81399122Y-129277180D02*
X81351503Y-129324800D01*
X81351503Y-129324800D02*
X81256265Y-129372419D01*
X81256265Y-129372419D02*
X81065789Y-129372419D01*
X81065789Y-129372419D02*
X80970551Y-129324800D01*
X82303884Y-129372419D02*
X82303884Y-128848609D01*
X82303884Y-128848609D02*
X82256265Y-128753371D01*
X82256265Y-128753371D02*
X82161027Y-128705752D01*
X82161027Y-128705752D02*
X81970551Y-128705752D01*
X81970551Y-128705752D02*
X81875313Y-128753371D01*
X82303884Y-129324800D02*
X82208646Y-129372419D01*
X82208646Y-129372419D02*
X81970551Y-129372419D01*
X81970551Y-129372419D02*
X81875313Y-129324800D01*
X81875313Y-129324800D02*
X81827694Y-129229561D01*
X81827694Y-129229561D02*
X81827694Y-129134323D01*
X81827694Y-129134323D02*
X81875313Y-129039085D01*
X81875313Y-129039085D02*
X81970551Y-128991466D01*
X81970551Y-128991466D02*
X82208646Y-128991466D01*
X82208646Y-128991466D02*
X82303884Y-128943847D01*
X82780075Y-128705752D02*
X82780075Y-129372419D01*
X82780075Y-128800990D02*
X82827694Y-128753371D01*
X82827694Y-128753371D02*
X82922932Y-128705752D01*
X82922932Y-128705752D02*
X83065789Y-128705752D01*
X83065789Y-128705752D02*
X83161027Y-128753371D01*
X83161027Y-128753371D02*
X83208646Y-128848609D01*
X83208646Y-128848609D02*
X83208646Y-129372419D01*
X83637218Y-129324800D02*
X83732456Y-129372419D01*
X83732456Y-129372419D02*
X83922932Y-129372419D01*
X83922932Y-129372419D02*
X84018170Y-129324800D01*
X84018170Y-129324800D02*
X84065789Y-129229561D01*
X84065789Y-129229561D02*
X84065789Y-129181942D01*
X84065789Y-129181942D02*
X84018170Y-129086704D01*
X84018170Y-129086704D02*
X83922932Y-129039085D01*
X83922932Y-129039085D02*
X83780075Y-129039085D01*
X83780075Y-129039085D02*
X83684837Y-128991466D01*
X83684837Y-128991466D02*
X83637218Y-128896228D01*
X83637218Y-128896228D02*
X83637218Y-128848609D01*
X83637218Y-128848609D02*
X83684837Y-128753371D01*
X83684837Y-128753371D02*
X83780075Y-128705752D01*
X83780075Y-128705752D02*
X83922932Y-128705752D01*
X83922932Y-128705752D02*
X84018170Y-128753371D01*
X84494361Y-129372419D02*
X84494361Y-128705752D01*
X84494361Y-128372419D02*
X84446742Y-128420038D01*
X84446742Y-128420038D02*
X84494361Y-128467657D01*
X84494361Y-128467657D02*
X84541980Y-128420038D01*
X84541980Y-128420038D02*
X84494361Y-128372419D01*
X84494361Y-128372419D02*
X84494361Y-128467657D01*
X85113408Y-129372419D02*
X85018170Y-129324800D01*
X85018170Y-129324800D02*
X84970551Y-129277180D01*
X84970551Y-129277180D02*
X84922932Y-129181942D01*
X84922932Y-129181942D02*
X84922932Y-128896228D01*
X84922932Y-128896228D02*
X84970551Y-128800990D01*
X84970551Y-128800990D02*
X85018170Y-128753371D01*
X85018170Y-128753371D02*
X85113408Y-128705752D01*
X85113408Y-128705752D02*
X85256265Y-128705752D01*
X85256265Y-128705752D02*
X85351503Y-128753371D01*
X85351503Y-128753371D02*
X85399122Y-128800990D01*
X85399122Y-128800990D02*
X85446741Y-128896228D01*
X85446741Y-128896228D02*
X85446741Y-129181942D01*
X85446741Y-129181942D02*
X85399122Y-129277180D01*
X85399122Y-129277180D02*
X85351503Y-129324800D01*
X85351503Y-129324800D02*
X85256265Y-129372419D01*
X85256265Y-129372419D02*
X85113408Y-129372419D01*
X85875313Y-128705752D02*
X85875313Y-129372419D01*
X85875313Y-128800990D02*
X85922932Y-128753371D01*
X85922932Y-128753371D02*
X86018170Y-128705752D01*
X86018170Y-128705752D02*
X86161027Y-128705752D01*
X86161027Y-128705752D02*
X86256265Y-128753371D01*
X86256265Y-128753371D02*
X86303884Y-128848609D01*
X86303884Y-128848609D02*
X86303884Y-129372419D01*
X87541980Y-128705752D02*
X87541980Y-129705752D01*
X87541980Y-128753371D02*
X87637218Y-128705752D01*
X87637218Y-128705752D02*
X87827694Y-128705752D01*
X87827694Y-128705752D02*
X87922932Y-128753371D01*
X87922932Y-128753371D02*
X87970551Y-128800990D01*
X87970551Y-128800990D02*
X88018170Y-128896228D01*
X88018170Y-128896228D02*
X88018170Y-129181942D01*
X88018170Y-129181942D02*
X87970551Y-129277180D01*
X87970551Y-129277180D02*
X87922932Y-129324800D01*
X87922932Y-129324800D02*
X87827694Y-129372419D01*
X87827694Y-129372419D02*
X87637218Y-129372419D01*
X87637218Y-129372419D02*
X87541980Y-129324800D01*
X88875313Y-129324800D02*
X88780075Y-129372419D01*
X88780075Y-129372419D02*
X88589599Y-129372419D01*
X88589599Y-129372419D02*
X88494361Y-129324800D01*
X88494361Y-129324800D02*
X88446742Y-129277180D01*
X88446742Y-129277180D02*
X88399123Y-129181942D01*
X88399123Y-129181942D02*
X88399123Y-128896228D01*
X88399123Y-128896228D02*
X88446742Y-128800990D01*
X88446742Y-128800990D02*
X88494361Y-128753371D01*
X88494361Y-128753371D02*
X88589599Y-128705752D01*
X88589599Y-128705752D02*
X88780075Y-128705752D01*
X88780075Y-128705752D02*
X88875313Y-128753371D01*
X89303885Y-129372419D02*
X89303885Y-128372419D01*
X89303885Y-128753371D02*
X89399123Y-128705752D01*
X89399123Y-128705752D02*
X89589599Y-128705752D01*
X89589599Y-128705752D02*
X89684837Y-128753371D01*
X89684837Y-128753371D02*
X89732456Y-128800990D01*
X89732456Y-128800990D02*
X89780075Y-128896228D01*
X89780075Y-128896228D02*
X89780075Y-129181942D01*
X89780075Y-129181942D02*
X89732456Y-129277180D01*
X89732456Y-129277180D02*
X89684837Y-129324800D01*
X89684837Y-129324800D02*
X89589599Y-129372419D01*
X89589599Y-129372419D02*
X89399123Y-129372419D01*
X89399123Y-129372419D02*
X89303885Y-129324800D01*
X89271245Y-97512259D02*
X89366483Y-97559878D01*
X89366483Y-97559878D02*
X89556959Y-97559878D01*
X89556959Y-97559878D02*
X89652197Y-97512259D01*
X89652197Y-97512259D02*
X89699816Y-97417020D01*
X89699816Y-97417020D02*
X89699816Y-97369401D01*
X89699816Y-97369401D02*
X89652197Y-97274163D01*
X89652197Y-97274163D02*
X89556959Y-97226544D01*
X89556959Y-97226544D02*
X89414102Y-97226544D01*
X89414102Y-97226544D02*
X89318864Y-97178925D01*
X89318864Y-97178925D02*
X89271245Y-97083687D01*
X89271245Y-97083687D02*
X89271245Y-97036068D01*
X89271245Y-97036068D02*
X89318864Y-96940830D01*
X89318864Y-96940830D02*
X89414102Y-96893211D01*
X89414102Y-96893211D02*
X89556959Y-96893211D01*
X89556959Y-96893211D02*
X89652197Y-96940830D01*
X90556959Y-97559878D02*
X90556959Y-96559878D01*
X90556959Y-97512259D02*
X90461721Y-97559878D01*
X90461721Y-97559878D02*
X90271245Y-97559878D01*
X90271245Y-97559878D02*
X90176007Y-97512259D01*
X90176007Y-97512259D02*
X90128388Y-97464639D01*
X90128388Y-97464639D02*
X90080769Y-97369401D01*
X90080769Y-97369401D02*
X90080769Y-97083687D01*
X90080769Y-97083687D02*
X90128388Y-96988449D01*
X90128388Y-96988449D02*
X90176007Y-96940830D01*
X90176007Y-96940830D02*
X90271245Y-96893211D01*
X90271245Y-96893211D02*
X90461721Y-96893211D01*
X90461721Y-96893211D02*
X90556959Y-96940830D01*
X91461721Y-97559878D02*
X91461721Y-97036068D01*
X91461721Y-97036068D02*
X91414102Y-96940830D01*
X91414102Y-96940830D02*
X91318864Y-96893211D01*
X91318864Y-96893211D02*
X91128388Y-96893211D01*
X91128388Y-96893211D02*
X91033150Y-96940830D01*
X91461721Y-97512259D02*
X91366483Y-97559878D01*
X91366483Y-97559878D02*
X91128388Y-97559878D01*
X91128388Y-97559878D02*
X91033150Y-97512259D01*
X91033150Y-97512259D02*
X90985531Y-97417020D01*
X90985531Y-97417020D02*
X90985531Y-97321782D01*
X90985531Y-97321782D02*
X91033150Y-97226544D01*
X91033150Y-97226544D02*
X91128388Y-97178925D01*
X91128388Y-97178925D02*
X91366483Y-97178925D01*
X91366483Y-97178925D02*
X91461721Y-97131306D01*
X89914103Y-99169822D02*
X89914103Y-98503155D01*
X89914103Y-98169822D02*
X89866484Y-98217441D01*
X89866484Y-98217441D02*
X89914103Y-98265060D01*
X89914103Y-98265060D02*
X89961722Y-98217441D01*
X89961722Y-98217441D02*
X89914103Y-98169822D01*
X89914103Y-98169822D02*
X89914103Y-98265060D01*
X90914102Y-99169822D02*
X90342674Y-99169822D01*
X90628388Y-99169822D02*
X90628388Y-98169822D01*
X90628388Y-98169822D02*
X90533150Y-98312679D01*
X90533150Y-98312679D02*
X90437912Y-98407917D01*
X90437912Y-98407917D02*
X90342674Y-98455536D01*
X92562346Y-97565085D02*
X92562346Y-96898418D01*
X92562346Y-96565085D02*
X92514727Y-96612704D01*
X92514727Y-96612704D02*
X92562346Y-96660323D01*
X92562346Y-96660323D02*
X92609965Y-96612704D01*
X92609965Y-96612704D02*
X92562346Y-96565085D01*
X92562346Y-96565085D02*
X92562346Y-96660323D01*
X93229012Y-96565085D02*
X93324250Y-96565085D01*
X93324250Y-96565085D02*
X93419488Y-96612704D01*
X93419488Y-96612704D02*
X93467107Y-96660323D01*
X93467107Y-96660323D02*
X93514726Y-96755561D01*
X93514726Y-96755561D02*
X93562345Y-96946037D01*
X93562345Y-96946037D02*
X93562345Y-97184132D01*
X93562345Y-97184132D02*
X93514726Y-97374608D01*
X93514726Y-97374608D02*
X93467107Y-97469846D01*
X93467107Y-97469846D02*
X93419488Y-97517466D01*
X93419488Y-97517466D02*
X93324250Y-97565085D01*
X93324250Y-97565085D02*
X93229012Y-97565085D01*
X93229012Y-97565085D02*
X93133774Y-97517466D01*
X93133774Y-97517466D02*
X93086155Y-97469846D01*
X93086155Y-97469846D02*
X93038536Y-97374608D01*
X93038536Y-97374608D02*
X92990917Y-97184132D01*
X92990917Y-97184132D02*
X92990917Y-96946037D01*
X92990917Y-96946037D02*
X93038536Y-96755561D01*
X93038536Y-96755561D02*
X93086155Y-96660323D01*
X93086155Y-96660323D02*
X93133774Y-96612704D01*
X93133774Y-96612704D02*
X93229012Y-96565085D01*
X92562346Y-99175029D02*
X92562346Y-98508362D01*
X92562346Y-98698838D02*
X92609965Y-98603600D01*
X92609965Y-98603600D02*
X92657584Y-98555981D01*
X92657584Y-98555981D02*
X92752822Y-98508362D01*
X92752822Y-98508362D02*
X92848060Y-98508362D01*
X93133775Y-99127410D02*
X93229013Y-99175029D01*
X93229013Y-99175029D02*
X93419489Y-99175029D01*
X93419489Y-99175029D02*
X93514727Y-99127410D01*
X93514727Y-99127410D02*
X93562346Y-99032171D01*
X93562346Y-99032171D02*
X93562346Y-98984552D01*
X93562346Y-98984552D02*
X93514727Y-98889314D01*
X93514727Y-98889314D02*
X93419489Y-98841695D01*
X93419489Y-98841695D02*
X93276632Y-98841695D01*
X93276632Y-98841695D02*
X93181394Y-98794076D01*
X93181394Y-98794076D02*
X93133775Y-98698838D01*
X93133775Y-98698838D02*
X93133775Y-98651219D01*
X93133775Y-98651219D02*
X93181394Y-98555981D01*
X93181394Y-98555981D02*
X93276632Y-98508362D01*
X93276632Y-98508362D02*
X93419489Y-98508362D01*
X93419489Y-98508362D02*
X93514727Y-98555981D01*
X69108711Y-86857074D02*
X68632521Y-86857074D01*
X68632521Y-86857074D02*
X68584902Y-87333264D01*
X68584902Y-87333264D02*
X68632521Y-87285645D01*
X68632521Y-87285645D02*
X68727759Y-87238026D01*
X68727759Y-87238026D02*
X68965854Y-87238026D01*
X68965854Y-87238026D02*
X69061092Y-87285645D01*
X69061092Y-87285645D02*
X69108711Y-87333264D01*
X69108711Y-87333264D02*
X69156330Y-87428502D01*
X69156330Y-87428502D02*
X69156330Y-87666597D01*
X69156330Y-87666597D02*
X69108711Y-87761835D01*
X69108711Y-87761835D02*
X69061092Y-87809455D01*
X69061092Y-87809455D02*
X68965854Y-87857074D01*
X68965854Y-87857074D02*
X68727759Y-87857074D01*
X68727759Y-87857074D02*
X68632521Y-87809455D01*
X68632521Y-87809455D02*
X68584902Y-87761835D01*
X69775378Y-86857074D02*
X69870616Y-86857074D01*
X69870616Y-86857074D02*
X69965854Y-86904693D01*
X69965854Y-86904693D02*
X70013473Y-86952312D01*
X70013473Y-86952312D02*
X70061092Y-87047550D01*
X70061092Y-87047550D02*
X70108711Y-87238026D01*
X70108711Y-87238026D02*
X70108711Y-87476121D01*
X70108711Y-87476121D02*
X70061092Y-87666597D01*
X70061092Y-87666597D02*
X70013473Y-87761835D01*
X70013473Y-87761835D02*
X69965854Y-87809455D01*
X69965854Y-87809455D02*
X69870616Y-87857074D01*
X69870616Y-87857074D02*
X69775378Y-87857074D01*
X69775378Y-87857074D02*
X69680140Y-87809455D01*
X69680140Y-87809455D02*
X69632521Y-87761835D01*
X69632521Y-87761835D02*
X69584902Y-87666597D01*
X69584902Y-87666597D02*
X69537283Y-87476121D01*
X69537283Y-87476121D02*
X69537283Y-87238026D01*
X69537283Y-87238026D02*
X69584902Y-87047550D01*
X69584902Y-87047550D02*
X69632521Y-86952312D01*
X69632521Y-86952312D02*
X69680140Y-86904693D01*
X69680140Y-86904693D02*
X69775378Y-86857074D01*
X70537283Y-87857074D02*
X70537283Y-87190407D01*
X70537283Y-87285645D02*
X70584902Y-87238026D01*
X70584902Y-87238026D02*
X70680140Y-87190407D01*
X70680140Y-87190407D02*
X70822997Y-87190407D01*
X70822997Y-87190407D02*
X70918235Y-87238026D01*
X70918235Y-87238026D02*
X70965854Y-87333264D01*
X70965854Y-87333264D02*
X70965854Y-87857074D01*
X70965854Y-87333264D02*
X71013473Y-87238026D01*
X71013473Y-87238026D02*
X71108711Y-87190407D01*
X71108711Y-87190407D02*
X71251568Y-87190407D01*
X71251568Y-87190407D02*
X71346807Y-87238026D01*
X71346807Y-87238026D02*
X71394426Y-87333264D01*
X71394426Y-87333264D02*
X71394426Y-87857074D01*
X71870616Y-87857074D02*
X71870616Y-87190407D01*
X71870616Y-87285645D02*
X71918235Y-87238026D01*
X71918235Y-87238026D02*
X72013473Y-87190407D01*
X72013473Y-87190407D02*
X72156330Y-87190407D01*
X72156330Y-87190407D02*
X72251568Y-87238026D01*
X72251568Y-87238026D02*
X72299187Y-87333264D01*
X72299187Y-87333264D02*
X72299187Y-87857074D01*
X72299187Y-87333264D02*
X72346806Y-87238026D01*
X72346806Y-87238026D02*
X72442044Y-87190407D01*
X72442044Y-87190407D02*
X72584901Y-87190407D01*
X72584901Y-87190407D02*
X72680140Y-87238026D01*
X72680140Y-87238026D02*
X72727759Y-87333264D01*
X72727759Y-87333264D02*
X72727759Y-87857074D01*
X73108711Y-87857074D02*
X73632520Y-87190407D01*
X73108711Y-87190407D02*
X73632520Y-87857074D01*
X74489663Y-86857074D02*
X74013473Y-86857074D01*
X74013473Y-86857074D02*
X73965854Y-87333264D01*
X73965854Y-87333264D02*
X74013473Y-87285645D01*
X74013473Y-87285645D02*
X74108711Y-87238026D01*
X74108711Y-87238026D02*
X74346806Y-87238026D01*
X74346806Y-87238026D02*
X74442044Y-87285645D01*
X74442044Y-87285645D02*
X74489663Y-87333264D01*
X74489663Y-87333264D02*
X74537282Y-87428502D01*
X74537282Y-87428502D02*
X74537282Y-87666597D01*
X74537282Y-87666597D02*
X74489663Y-87761835D01*
X74489663Y-87761835D02*
X74442044Y-87809455D01*
X74442044Y-87809455D02*
X74346806Y-87857074D01*
X74346806Y-87857074D02*
X74108711Y-87857074D01*
X74108711Y-87857074D02*
X74013473Y-87809455D01*
X74013473Y-87809455D02*
X73965854Y-87761835D01*
X75156330Y-86857074D02*
X75251568Y-86857074D01*
X75251568Y-86857074D02*
X75346806Y-86904693D01*
X75346806Y-86904693D02*
X75394425Y-86952312D01*
X75394425Y-86952312D02*
X75442044Y-87047550D01*
X75442044Y-87047550D02*
X75489663Y-87238026D01*
X75489663Y-87238026D02*
X75489663Y-87476121D01*
X75489663Y-87476121D02*
X75442044Y-87666597D01*
X75442044Y-87666597D02*
X75394425Y-87761835D01*
X75394425Y-87761835D02*
X75346806Y-87809455D01*
X75346806Y-87809455D02*
X75251568Y-87857074D01*
X75251568Y-87857074D02*
X75156330Y-87857074D01*
X75156330Y-87857074D02*
X75061092Y-87809455D01*
X75061092Y-87809455D02*
X75013473Y-87761835D01*
X75013473Y-87761835D02*
X74965854Y-87666597D01*
X74965854Y-87666597D02*
X74918235Y-87476121D01*
X74918235Y-87476121D02*
X74918235Y-87238026D01*
X74918235Y-87238026D02*
X74965854Y-87047550D01*
X74965854Y-87047550D02*
X75013473Y-86952312D01*
X75013473Y-86952312D02*
X75061092Y-86904693D01*
X75061092Y-86904693D02*
X75156330Y-86857074D01*
X75918235Y-87857074D02*
X75918235Y-87190407D01*
X75918235Y-87285645D02*
X75965854Y-87238026D01*
X75965854Y-87238026D02*
X76061092Y-87190407D01*
X76061092Y-87190407D02*
X76203949Y-87190407D01*
X76203949Y-87190407D02*
X76299187Y-87238026D01*
X76299187Y-87238026D02*
X76346806Y-87333264D01*
X76346806Y-87333264D02*
X76346806Y-87857074D01*
X76346806Y-87333264D02*
X76394425Y-87238026D01*
X76394425Y-87238026D02*
X76489663Y-87190407D01*
X76489663Y-87190407D02*
X76632520Y-87190407D01*
X76632520Y-87190407D02*
X76727759Y-87238026D01*
X76727759Y-87238026D02*
X76775378Y-87333264D01*
X76775378Y-87333264D02*
X76775378Y-87857074D01*
X77251568Y-87857074D02*
X77251568Y-87190407D01*
X77251568Y-87285645D02*
X77299187Y-87238026D01*
X77299187Y-87238026D02*
X77394425Y-87190407D01*
X77394425Y-87190407D02*
X77537282Y-87190407D01*
X77537282Y-87190407D02*
X77632520Y-87238026D01*
X77632520Y-87238026D02*
X77680139Y-87333264D01*
X77680139Y-87333264D02*
X77680139Y-87857074D01*
X77680139Y-87333264D02*
X77727758Y-87238026D01*
X77727758Y-87238026D02*
X77822996Y-87190407D01*
X77822996Y-87190407D02*
X77965853Y-87190407D01*
X77965853Y-87190407D02*
X78061092Y-87238026D01*
X78061092Y-87238026D02*
X78108711Y-87333264D01*
X78108711Y-87333264D02*
X78108711Y-87857074D01*
X110740705Y-97699420D02*
X110740705Y-97032753D01*
X110740705Y-97223229D02*
X110788324Y-97127991D01*
X110788324Y-97127991D02*
X110835943Y-97080372D01*
X110835943Y-97080372D02*
X110931181Y-97032753D01*
X110931181Y-97032753D02*
X111026419Y-97032753D01*
D11*
X92624500Y-113293378D02*
X92053072Y-113293378D01*
X92338786Y-113293378D02*
X92338786Y-112293378D01*
X92338786Y-112293378D02*
X92243548Y-112436235D01*
X92243548Y-112436235D02*
X92148310Y-112531473D01*
X92148310Y-112531473D02*
X92053072Y-112579092D01*
X93529262Y-112293378D02*
X93053072Y-112293378D01*
X93053072Y-112293378D02*
X93005453Y-112769568D01*
X93005453Y-112769568D02*
X93053072Y-112721949D01*
X93053072Y-112721949D02*
X93148310Y-112674330D01*
X93148310Y-112674330D02*
X93386405Y-112674330D01*
X93386405Y-112674330D02*
X93481643Y-112721949D01*
X93481643Y-112721949D02*
X93529262Y-112769568D01*
X93529262Y-112769568D02*
X93576881Y-112864806D01*
X93576881Y-112864806D02*
X93576881Y-113102901D01*
X93576881Y-113102901D02*
X93529262Y-113198139D01*
X93529262Y-113198139D02*
X93481643Y-113245759D01*
X93481643Y-113245759D02*
X93386405Y-113293378D01*
X93386405Y-113293378D02*
X93148310Y-113293378D01*
X93148310Y-113293378D02*
X93053072Y-113245759D01*
X93053072Y-113245759D02*
X93005453Y-113198139D01*
X94910214Y-113293378D02*
X94338786Y-113293378D01*
X94624500Y-113293378D02*
X94624500Y-112293378D01*
X94624500Y-112293378D02*
X94529262Y-112436235D01*
X94529262Y-112436235D02*
X94434024Y-112531473D01*
X94434024Y-112531473D02*
X94338786Y-112579092D01*
X95767357Y-112626711D02*
X95767357Y-113293378D01*
X95529262Y-112245759D02*
X95291167Y-112960044D01*
X95291167Y-112960044D02*
X95910214Y-112960044D01*
X97291166Y-113293378D02*
X96719738Y-113293378D01*
X97005452Y-113293378D02*
X97005452Y-112293378D01*
X97005452Y-112293378D02*
X96910214Y-112436235D01*
X96910214Y-112436235D02*
X96814976Y-112531473D01*
X96814976Y-112531473D02*
X96719738Y-112579092D01*
X97624500Y-112293378D02*
X98243547Y-112293378D01*
X98243547Y-112293378D02*
X97910214Y-112674330D01*
X97910214Y-112674330D02*
X98053071Y-112674330D01*
X98053071Y-112674330D02*
X98148309Y-112721949D01*
X98148309Y-112721949D02*
X98195928Y-112769568D01*
X98195928Y-112769568D02*
X98243547Y-112864806D01*
X98243547Y-112864806D02*
X98243547Y-113102901D01*
X98243547Y-113102901D02*
X98195928Y-113198139D01*
X98195928Y-113198139D02*
X98148309Y-113245759D01*
X98148309Y-113245759D02*
X98053071Y-113293378D01*
X98053071Y-113293378D02*
X97767357Y-113293378D01*
X97767357Y-113293378D02*
X97672119Y-113245759D01*
X97672119Y-113245759D02*
X97624500Y-113198139D01*
X99576880Y-113293378D02*
X99005452Y-113293378D01*
X99291166Y-113293378D02*
X99291166Y-112293378D01*
X99291166Y-112293378D02*
X99195928Y-112436235D01*
X99195928Y-112436235D02*
X99100690Y-112531473D01*
X99100690Y-112531473D02*
X99005452Y-112579092D01*
X99957833Y-112388616D02*
X100005452Y-112340997D01*
X100005452Y-112340997D02*
X100100690Y-112293378D01*
X100100690Y-112293378D02*
X100338785Y-112293378D01*
X100338785Y-112293378D02*
X100434023Y-112340997D01*
X100434023Y-112340997D02*
X100481642Y-112388616D01*
X100481642Y-112388616D02*
X100529261Y-112483854D01*
X100529261Y-112483854D02*
X100529261Y-112579092D01*
X100529261Y-112579092D02*
X100481642Y-112721949D01*
X100481642Y-112721949D02*
X99910214Y-113293378D01*
X99910214Y-113293378D02*
X100529261Y-113293378D01*
X101862594Y-113293378D02*
X101291166Y-113293378D01*
X101576880Y-113293378D02*
X101576880Y-112293378D01*
X101576880Y-112293378D02*
X101481642Y-112436235D01*
X101481642Y-112436235D02*
X101386404Y-112531473D01*
X101386404Y-112531473D02*
X101291166Y-112579092D01*
X102814975Y-113293378D02*
X102243547Y-113293378D01*
X102529261Y-113293378D02*
X102529261Y-112293378D01*
X102529261Y-112293378D02*
X102434023Y-112436235D01*
X102434023Y-112436235D02*
X102338785Y-112531473D01*
X102338785Y-112531473D02*
X102243547Y-112579092D01*
D10*
X97413104Y-96658420D02*
X97746437Y-97658420D01*
X97746437Y-97658420D02*
X98079770Y-96658420D01*
X98365485Y-97610801D02*
X98460723Y-97658420D01*
X98460723Y-97658420D02*
X98651199Y-97658420D01*
X98651199Y-97658420D02*
X98746437Y-97610801D01*
X98746437Y-97610801D02*
X98794056Y-97515562D01*
X98794056Y-97515562D02*
X98794056Y-97467943D01*
X98794056Y-97467943D02*
X98746437Y-97372705D01*
X98746437Y-97372705D02*
X98651199Y-97325086D01*
X98651199Y-97325086D02*
X98508342Y-97325086D01*
X98508342Y-97325086D02*
X98413104Y-97277467D01*
X98413104Y-97277467D02*
X98365485Y-97182229D01*
X98365485Y-97182229D02*
X98365485Y-97134610D01*
X98365485Y-97134610D02*
X98413104Y-97039372D01*
X98413104Y-97039372D02*
X98508342Y-96991753D01*
X98508342Y-96991753D02*
X98651199Y-96991753D01*
X98651199Y-96991753D02*
X98746437Y-97039372D01*
X105484415Y-97697623D02*
X105484415Y-96697623D01*
X105484415Y-97078575D02*
X105579653Y-97030956D01*
X105579653Y-97030956D02*
X105770129Y-97030956D01*
X105770129Y-97030956D02*
X105865367Y-97078575D01*
X105865367Y-97078575D02*
X105912986Y-97126194D01*
X105912986Y-97126194D02*
X105960605Y-97221432D01*
X105960605Y-97221432D02*
X105960605Y-97507146D01*
X105960605Y-97507146D02*
X105912986Y-97602384D01*
X105912986Y-97602384D02*
X105865367Y-97650004D01*
X105865367Y-97650004D02*
X105770129Y-97697623D01*
X105770129Y-97697623D02*
X105579653Y-97697623D01*
X105579653Y-97697623D02*
X105484415Y-97650004D01*
X104996525Y-106513031D02*
X104806049Y-106513031D01*
X104806049Y-106513031D02*
X104710811Y-106560650D01*
X104710811Y-106560650D02*
X104663192Y-106608269D01*
X104663192Y-106608269D02*
X104567954Y-106751126D01*
X104567954Y-106751126D02*
X104520335Y-106941602D01*
X104520335Y-106941602D02*
X104520335Y-107322554D01*
X104520335Y-107322554D02*
X104567954Y-107417792D01*
X104567954Y-107417792D02*
X104615573Y-107465412D01*
X104615573Y-107465412D02*
X104710811Y-107513031D01*
X104710811Y-107513031D02*
X104901287Y-107513031D01*
X104901287Y-107513031D02*
X104996525Y-107465412D01*
X104996525Y-107465412D02*
X105044144Y-107417792D01*
X105044144Y-107417792D02*
X105091763Y-107322554D01*
X105091763Y-107322554D02*
X105091763Y-107084459D01*
X105091763Y-107084459D02*
X105044144Y-106989221D01*
X105044144Y-106989221D02*
X104996525Y-106941602D01*
X104996525Y-106941602D02*
X104901287Y-106893983D01*
X104901287Y-106893983D02*
X104710811Y-106893983D01*
X104710811Y-106893983D02*
X104615573Y-106941602D01*
X104615573Y-106941602D02*
X104567954Y-106989221D01*
X104567954Y-106989221D02*
X104520335Y-107084459D01*
D11*
X92977052Y-101196323D02*
X92500862Y-101196323D01*
X92500862Y-101196323D02*
X92453243Y-101672513D01*
X92453243Y-101672513D02*
X92500862Y-101624894D01*
X92500862Y-101624894D02*
X92596100Y-101577275D01*
X92596100Y-101577275D02*
X92834195Y-101577275D01*
X92834195Y-101577275D02*
X92929433Y-101624894D01*
X92929433Y-101624894D02*
X92977052Y-101672513D01*
X92977052Y-101672513D02*
X93024671Y-101767751D01*
X93024671Y-101767751D02*
X93024671Y-102005846D01*
X93024671Y-102005846D02*
X92977052Y-102101084D01*
X92977052Y-102101084D02*
X92929433Y-102148704D01*
X92929433Y-102148704D02*
X92834195Y-102196323D01*
X92834195Y-102196323D02*
X92596100Y-102196323D01*
X92596100Y-102196323D02*
X92500862Y-102148704D01*
X92500862Y-102148704D02*
X92453243Y-102101084D01*
X95215147Y-101529656D02*
X95215147Y-102196323D01*
X94977052Y-101148704D02*
X94738957Y-101862989D01*
X94738957Y-101862989D02*
X95358004Y-101862989D01*
X97167528Y-101196323D02*
X97786575Y-101196323D01*
X97786575Y-101196323D02*
X97453242Y-101577275D01*
X97453242Y-101577275D02*
X97596099Y-101577275D01*
X97596099Y-101577275D02*
X97691337Y-101624894D01*
X97691337Y-101624894D02*
X97738956Y-101672513D01*
X97738956Y-101672513D02*
X97786575Y-101767751D01*
X97786575Y-101767751D02*
X97786575Y-102005846D01*
X97786575Y-102005846D02*
X97738956Y-102101084D01*
X97738956Y-102101084D02*
X97691337Y-102148704D01*
X97691337Y-102148704D02*
X97596099Y-102196323D01*
X97596099Y-102196323D02*
X97310385Y-102196323D01*
X97310385Y-102196323D02*
X97215147Y-102148704D01*
X97215147Y-102148704D02*
X97167528Y-102101084D01*
X99500861Y-101291561D02*
X99548480Y-101243942D01*
X99548480Y-101243942D02*
X99643718Y-101196323D01*
X99643718Y-101196323D02*
X99881813Y-101196323D01*
X99881813Y-101196323D02*
X99977051Y-101243942D01*
X99977051Y-101243942D02*
X100024670Y-101291561D01*
X100024670Y-101291561D02*
X100072289Y-101386799D01*
X100072289Y-101386799D02*
X100072289Y-101482037D01*
X100072289Y-101482037D02*
X100024670Y-101624894D01*
X100024670Y-101624894D02*
X99453242Y-102196323D01*
X99453242Y-102196323D02*
X100072289Y-102196323D01*
X102358003Y-102196323D02*
X101786575Y-102196323D01*
X102072289Y-102196323D02*
X102072289Y-101196323D01*
X102072289Y-101196323D02*
X101977051Y-101339180D01*
X101977051Y-101339180D02*
X101881813Y-101434418D01*
X101881813Y-101434418D02*
X101786575Y-101482037D01*
D10*
X103460605Y-92197623D02*
X102984415Y-92197623D01*
X102984415Y-92197623D02*
X102936796Y-92673813D01*
X102936796Y-92673813D02*
X102984415Y-92626194D01*
X102984415Y-92626194D02*
X103079653Y-92578575D01*
X103079653Y-92578575D02*
X103317748Y-92578575D01*
X103317748Y-92578575D02*
X103412986Y-92626194D01*
X103412986Y-92626194D02*
X103460605Y-92673813D01*
X103460605Y-92673813D02*
X103508224Y-92769051D01*
X103508224Y-92769051D02*
X103508224Y-93007146D01*
X103508224Y-93007146D02*
X103460605Y-93102384D01*
X103460605Y-93102384D02*
X103412986Y-93150004D01*
X103412986Y-93150004D02*
X103317748Y-93197623D01*
X103317748Y-93197623D02*
X103079653Y-93197623D01*
X103079653Y-93197623D02*
X102984415Y-93150004D01*
X102984415Y-93150004D02*
X102936796Y-93102384D01*
X90221964Y-93251182D02*
X89650536Y-93251182D01*
X89936250Y-93251182D02*
X89936250Y-92251182D01*
X89936250Y-92251182D02*
X89841012Y-92394039D01*
X89841012Y-92394039D02*
X89745774Y-92489277D01*
X89745774Y-92489277D02*
X89650536Y-92536896D01*
X90602917Y-92346420D02*
X90650536Y-92298801D01*
X90650536Y-92298801D02*
X90745774Y-92251182D01*
X90745774Y-92251182D02*
X90983869Y-92251182D01*
X90983869Y-92251182D02*
X91079107Y-92298801D01*
X91079107Y-92298801D02*
X91126726Y-92346420D01*
X91126726Y-92346420D02*
X91174345Y-92441658D01*
X91174345Y-92441658D02*
X91174345Y-92536896D01*
X91174345Y-92536896D02*
X91126726Y-92679753D01*
X91126726Y-92679753D02*
X90555298Y-93251182D01*
X90555298Y-93251182D02*
X91174345Y-93251182D01*
X105389177Y-92197623D02*
X106008224Y-92197623D01*
X106008224Y-92197623D02*
X105674891Y-92578575D01*
X105674891Y-92578575D02*
X105817748Y-92578575D01*
X105817748Y-92578575D02*
X105912986Y-92626194D01*
X105912986Y-92626194D02*
X105960605Y-92673813D01*
X105960605Y-92673813D02*
X106008224Y-92769051D01*
X106008224Y-92769051D02*
X106008224Y-93007146D01*
X106008224Y-93007146D02*
X105960605Y-93102384D01*
X105960605Y-93102384D02*
X105912986Y-93150004D01*
X105912986Y-93150004D02*
X105817748Y-93197623D01*
X105817748Y-93197623D02*
X105532034Y-93197623D01*
X105532034Y-93197623D02*
X105436796Y-93150004D01*
X105436796Y-93150004D02*
X105389177Y-93102384D01*
D12*
X72750153Y-104710698D02*
X72416820Y-104710698D01*
X72416820Y-105234508D02*
X72416820Y-104234508D01*
X72416820Y-104234508D02*
X72893010Y-104234508D01*
X73607296Y-104710698D02*
X73750153Y-104758317D01*
X73750153Y-104758317D02*
X73797772Y-104805936D01*
X73797772Y-104805936D02*
X73845391Y-104901174D01*
X73845391Y-104901174D02*
X73845391Y-105044031D01*
X73845391Y-105044031D02*
X73797772Y-105139269D01*
X73797772Y-105139269D02*
X73750153Y-105186889D01*
X73750153Y-105186889D02*
X73654915Y-105234508D01*
X73654915Y-105234508D02*
X73273963Y-105234508D01*
X73273963Y-105234508D02*
X73273963Y-104234508D01*
X73273963Y-104234508D02*
X73607296Y-104234508D01*
X73607296Y-104234508D02*
X73702534Y-104282127D01*
X73702534Y-104282127D02*
X73750153Y-104329746D01*
X73750153Y-104329746D02*
X73797772Y-104424984D01*
X73797772Y-104424984D02*
X73797772Y-104520222D01*
X73797772Y-104520222D02*
X73750153Y-104615460D01*
X73750153Y-104615460D02*
X73702534Y-104663079D01*
X73702534Y-104663079D02*
X73607296Y-104710698D01*
X73607296Y-104710698D02*
X73273963Y-104710698D01*
X74226344Y-104329746D02*
X74273963Y-104282127D01*
X74273963Y-104282127D02*
X74369201Y-104234508D01*
X74369201Y-104234508D02*
X74607296Y-104234508D01*
X74607296Y-104234508D02*
X74702534Y-104282127D01*
X74702534Y-104282127D02*
X74750153Y-104329746D01*
X74750153Y-104329746D02*
X74797772Y-104424984D01*
X74797772Y-104424984D02*
X74797772Y-104520222D01*
X74797772Y-104520222D02*
X74750153Y-104663079D01*
X74750153Y-104663079D02*
X74178725Y-105234508D01*
X74178725Y-105234508D02*
X74797772Y-105234508D01*
X80421015Y-95294023D02*
X79944824Y-95627356D01*
X80421015Y-95865451D02*
X79421015Y-95865451D01*
X79421015Y-95865451D02*
X79421015Y-95484499D01*
X79421015Y-95484499D02*
X79468634Y-95389261D01*
X79468634Y-95389261D02*
X79516253Y-95341642D01*
X79516253Y-95341642D02*
X79611491Y-95294023D01*
X79611491Y-95294023D02*
X79754348Y-95294023D01*
X79754348Y-95294023D02*
X79849586Y-95341642D01*
X79849586Y-95341642D02*
X79897205Y-95389261D01*
X79897205Y-95389261D02*
X79944824Y-95484499D01*
X79944824Y-95484499D02*
X79944824Y-95865451D01*
X80421015Y-94341642D02*
X80421015Y-94913070D01*
X80421015Y-94627356D02*
X79421015Y-94627356D01*
X79421015Y-94627356D02*
X79563872Y-94722594D01*
X79563872Y-94722594D02*
X79659110Y-94817832D01*
X79659110Y-94817832D02*
X79706729Y-94913070D01*
X112650462Y-95277534D02*
X113364747Y-95277534D01*
X113364747Y-95277534D02*
X113507604Y-95325153D01*
X113507604Y-95325153D02*
X113602843Y-95420391D01*
X113602843Y-95420391D02*
X113650462Y-95563248D01*
X113650462Y-95563248D02*
X113650462Y-95658486D01*
X112745700Y-94848962D02*
X112698081Y-94801343D01*
X112698081Y-94801343D02*
X112650462Y-94706105D01*
X112650462Y-94706105D02*
X112650462Y-94468010D01*
X112650462Y-94468010D02*
X112698081Y-94372772D01*
X112698081Y-94372772D02*
X112745700Y-94325153D01*
X112745700Y-94325153D02*
X112840938Y-94277534D01*
X112840938Y-94277534D02*
X112936176Y-94277534D01*
X112936176Y-94277534D02*
X113079033Y-94325153D01*
X113079033Y-94325153D02*
X113650462Y-94896581D01*
X113650462Y-94896581D02*
X113650462Y-94277534D01*
X79937200Y-111333332D02*
X79984819Y-111190475D01*
X79984819Y-111190475D02*
X79984819Y-110952380D01*
X79984819Y-110952380D02*
X79937200Y-110857142D01*
X79937200Y-110857142D02*
X79889580Y-110809523D01*
X79889580Y-110809523D02*
X79794342Y-110761904D01*
X79794342Y-110761904D02*
X79699104Y-110761904D01*
X79699104Y-110761904D02*
X79603866Y-110809523D01*
X79603866Y-110809523D02*
X79556247Y-110857142D01*
X79556247Y-110857142D02*
X79508628Y-110952380D01*
X79508628Y-110952380D02*
X79461009Y-111142856D01*
X79461009Y-111142856D02*
X79413390Y-111238094D01*
X79413390Y-111238094D02*
X79365771Y-111285713D01*
X79365771Y-111285713D02*
X79270533Y-111333332D01*
X79270533Y-111333332D02*
X79175295Y-111333332D01*
X79175295Y-111333332D02*
X79080057Y-111285713D01*
X79080057Y-111285713D02*
X79032438Y-111238094D01*
X79032438Y-111238094D02*
X78984819Y-111142856D01*
X78984819Y-111142856D02*
X78984819Y-110904761D01*
X78984819Y-110904761D02*
X79032438Y-110761904D01*
X78984819Y-110428570D02*
X79984819Y-110190475D01*
X79984819Y-110190475D02*
X79270533Y-109999999D01*
X79270533Y-109999999D02*
X79984819Y-109809523D01*
X79984819Y-109809523D02*
X78984819Y-109571428D01*
X79984819Y-108666666D02*
X79984819Y-109238094D01*
X79984819Y-108952380D02*
X78984819Y-108952380D01*
X78984819Y-108952380D02*
X79127676Y-109047618D01*
X79127676Y-109047618D02*
X79222914Y-109142856D01*
X79222914Y-109142856D02*
X79270533Y-109238094D01*
X114568915Y-105267269D02*
X114568915Y-105600602D01*
X115092725Y-105600602D02*
X114092725Y-105600602D01*
X114092725Y-105600602D02*
X114092725Y-105124412D01*
X114568915Y-104410126D02*
X114616534Y-104267269D01*
X114616534Y-104267269D02*
X114664153Y-104219650D01*
X114664153Y-104219650D02*
X114759391Y-104172031D01*
X114759391Y-104172031D02*
X114902248Y-104172031D01*
X114902248Y-104172031D02*
X114997486Y-104219650D01*
X114997486Y-104219650D02*
X115045106Y-104267269D01*
X115045106Y-104267269D02*
X115092725Y-104362507D01*
X115092725Y-104362507D02*
X115092725Y-104743459D01*
X115092725Y-104743459D02*
X114092725Y-104743459D01*
X114092725Y-104743459D02*
X114092725Y-104410126D01*
X114092725Y-104410126D02*
X114140344Y-104314888D01*
X114140344Y-104314888D02*
X114187963Y-104267269D01*
X114187963Y-104267269D02*
X114283201Y-104219650D01*
X114283201Y-104219650D02*
X114378439Y-104219650D01*
X114378439Y-104219650D02*
X114473677Y-104267269D01*
X114473677Y-104267269D02*
X114521296Y-104314888D01*
X114521296Y-104314888D02*
X114568915Y-104410126D01*
X114568915Y-104410126D02*
X114568915Y-104743459D01*
X115092725Y-103219650D02*
X115092725Y-103791078D01*
X115092725Y-103505364D02*
X114092725Y-103505364D01*
X114092725Y-103505364D02*
X114235582Y-103600602D01*
X114235582Y-103600602D02*
X114330820Y-103695840D01*
X114330820Y-103695840D02*
X114378439Y-103791078D01*
X80367868Y-98417436D02*
X79891677Y-98750769D01*
X80367868Y-98988864D02*
X79367868Y-98988864D01*
X79367868Y-98988864D02*
X79367868Y-98607912D01*
X79367868Y-98607912D02*
X79415487Y-98512674D01*
X79415487Y-98512674D02*
X79463106Y-98465055D01*
X79463106Y-98465055D02*
X79558344Y-98417436D01*
X79558344Y-98417436D02*
X79701201Y-98417436D01*
X79701201Y-98417436D02*
X79796439Y-98465055D01*
X79796439Y-98465055D02*
X79844058Y-98512674D01*
X79844058Y-98512674D02*
X79891677Y-98607912D01*
X79891677Y-98607912D02*
X79891677Y-98988864D01*
X79463106Y-98036483D02*
X79415487Y-97988864D01*
X79415487Y-97988864D02*
X79367868Y-97893626D01*
X79367868Y-97893626D02*
X79367868Y-97655531D01*
X79367868Y-97655531D02*
X79415487Y-97560293D01*
X79415487Y-97560293D02*
X79463106Y-97512674D01*
X79463106Y-97512674D02*
X79558344Y-97465055D01*
X79558344Y-97465055D02*
X79653582Y-97465055D01*
X79653582Y-97465055D02*
X79796439Y-97512674D01*
X79796439Y-97512674D02*
X80367868Y-98084102D01*
X80367868Y-98084102D02*
X80367868Y-97465055D01*
X79045180Y-100166666D02*
X78330895Y-100166666D01*
X78330895Y-100166666D02*
X78188038Y-100119047D01*
X78188038Y-100119047D02*
X78092800Y-100023809D01*
X78092800Y-100023809D02*
X78045180Y-99880952D01*
X78045180Y-99880952D02*
X78045180Y-99785714D01*
X79045180Y-100547619D02*
X79045180Y-101166666D01*
X79045180Y-101166666D02*
X78664228Y-100833333D01*
X78664228Y-100833333D02*
X78664228Y-100976190D01*
X78664228Y-100976190D02*
X78616609Y-101071428D01*
X78616609Y-101071428D02*
X78568990Y-101119047D01*
X78568990Y-101119047D02*
X78473752Y-101166666D01*
X78473752Y-101166666D02*
X78235657Y-101166666D01*
X78235657Y-101166666D02*
X78140419Y-101119047D01*
X78140419Y-101119047D02*
X78092800Y-101071428D01*
X78092800Y-101071428D02*
X78045180Y-100976190D01*
X78045180Y-100976190D02*
X78045180Y-100690476D01*
X78045180Y-100690476D02*
X78092800Y-100595238D01*
X78092800Y-100595238D02*
X78140419Y-100547619D01*
X97418558Y-99257078D02*
X97418558Y-99971363D01*
X97418558Y-99971363D02*
X97370939Y-100114220D01*
X97370939Y-100114220D02*
X97275701Y-100209459D01*
X97275701Y-100209459D02*
X97132844Y-100257078D01*
X97132844Y-100257078D02*
X97037606Y-100257078D01*
X98418558Y-100257078D02*
X97847130Y-100257078D01*
X98132844Y-100257078D02*
X98132844Y-99257078D01*
X98132844Y-99257078D02*
X98037606Y-99399935D01*
X98037606Y-99399935D02*
X97942368Y-99495173D01*
X97942368Y-99495173D02*
X97847130Y-99542792D01*
D13*
%TO.C,FB2*%
X73183865Y-102219689D02*
X73983109Y-102219689D01*
X73183865Y-103339689D02*
X73983109Y-103339689D01*
%TO.C,R1*%
X77943696Y-95364615D02*
X77943696Y-94890099D01*
X78988696Y-95364615D02*
X78988696Y-94890099D01*
%TO.C,J2*%
X84035643Y-93564201D02*
X84035643Y-96324201D01*
X109545643Y-93564201D02*
X84035643Y-93564201D01*
X109545643Y-93564201D02*
X109545643Y-96324201D01*
X109545643Y-96324201D02*
X84035643Y-96324201D01*
X110815643Y-93564201D02*
X112195643Y-93564201D01*
X112195643Y-93564201D02*
X112195643Y-94944201D01*
%TO.C,SW1*%
X73100000Y-108800000D02*
X73100000Y-109700000D01*
X73310000Y-108600000D02*
X73100000Y-108800000D01*
X73310000Y-109900000D02*
X73100000Y-109700000D01*
X73310000Y-109900000D02*
X74600000Y-109900000D01*
X74600000Y-107150000D02*
X74600000Y-112850000D01*
X74600000Y-108600000D02*
X73310000Y-108600000D01*
X75610000Y-113450000D02*
X76400000Y-113450000D01*
X76400000Y-106550000D02*
X75610000Y-106550000D01*
X77450000Y-108400000D02*
X77450000Y-110100000D01*
X77450000Y-111400000D02*
X77450000Y-111600000D01*
%TO.C,FB1*%
X114077906Y-108333558D02*
X114077906Y-107534314D01*
X115197906Y-108333558D02*
X115197906Y-107534314D01*
%TO.C,R2*%
X77960549Y-98013512D02*
X77960549Y-98488028D01*
X79005549Y-98013512D02*
X79005549Y-98488028D01*
%TO.C,J3*%
X73571000Y-91830000D02*
X75271000Y-91830000D01*
X73571000Y-101170000D02*
X75271000Y-101170000D01*
%TO.C,J1*%
X82266892Y-112362259D02*
X82266892Y-101862259D01*
X83326892Y-100802259D02*
X112176892Y-100802259D01*
X90714159Y-109750515D02*
X89885422Y-105050515D01*
X91520203Y-103102259D02*
X103983581Y-103102259D01*
X101816892Y-99907921D02*
X102316892Y-99907921D01*
X102066892Y-100340934D02*
X101816892Y-99907921D01*
X102316892Y-99907921D02*
X102066892Y-100340934D01*
X103154844Y-111122259D02*
X92348940Y-111122259D01*
X105618362Y-105050515D02*
X104789625Y-109750515D01*
X112176892Y-113422259D02*
X83326892Y-113422259D01*
X113236892Y-101862259D02*
X113236892Y-112362259D01*
X82266892Y-101862259D02*
G75*
G02*
X83326892Y-100802259I1060001J-1D01*
G01*
X83326892Y-113422259D02*
G75*
G02*
X82266892Y-112362259I1J1060001D01*
G01*
X89885422Y-105050515D02*
G75*
G02*
X91520203Y-103102259I1634781J288256D01*
G01*
X92348940Y-111122259D02*
G75*
G02*
X90714159Y-109750515I-1J1659999D01*
G01*
X103983581Y-103102259D02*
G75*
G02*
X105618363Y-105050515I1J-1660000D01*
G01*
X104789625Y-109750515D02*
G75*
G02*
X103154844Y-111122259I-1634780J288255D01*
G01*
X112176892Y-100802259D02*
G75*
G02*
X113236892Y-101862259I0J-1060000D01*
G01*
X113236892Y-112362259D02*
G75*
G02*
X112176892Y-113422259I-1060000J0D01*
G01*
%TD*%
M02*
