M48
; DRILL file {KiCad 9.0.5} date 2026-05-30T13:24:25+0530
; FORMAT={-:-/ absolute / metric / decimal}
; #@! TF.CreationDate,2026-05-30T13:24:25+05:30
; #@! TF.GenerationSoftware,Kicad,Pcbnew,9.0.5
; #@! TF.FileFunction,Plated,1,2,PTH
FMAT,2
METRIC
; #@! TA.AperFunction,Plated,PTH,ViaDrill
T1C0.300
; #@! TA.AperFunction,Plated,PTH,ComponentDrill
T2C0.600
; #@! TA.AperFunction,Plated,PTH,ComponentDrill
T3C1.000
; #@! TA.AperFunction,Plated,PTH,ComponentDrill
T4C3.200
%
G90
G05
T1
X74.646Y-102.78
X76.401Y-93.75
X76.401Y-99.25
X78.466Y-94.302
X78.483Y-99.076
X87.095Y-113.139
X90.886Y-111.103
X93.739Y-93.108
X94.069Y-109.779
X94.069Y-111.58
X96.342Y-109.825
X96.965Y-111.042
X114.638Y-108.996
T3
X85.416Y-94.944
X87.956Y-94.944
X90.496Y-94.944
X92.907Y-105.132
X92.907Y-109.092
X93.036Y-94.944
X94.052Y-107.112
X95.197Y-105.132
X95.197Y-109.092
X95.576Y-94.944
X96.342Y-107.112
X97.487Y-105.132
X97.487Y-109.092
X98.116Y-94.944
X98.632Y-107.112
X99.777Y-105.132
X99.777Y-109.092
X100.656Y-94.944
X100.922Y-107.112
X102.067Y-105.132
X102.067Y-109.092
X103.196Y-94.944
X103.212Y-107.112
X105.736Y-94.944
X108.276Y-94.944
X110.816Y-94.944
T4
X85.252Y-107.112
X110.252Y-107.112
T2
G00X72.821Y-92.18
M15
G01X72.221Y-92.18
M16
G05
G00X72.821Y-100.82
M15
G01X72.221Y-100.82
M16
G05
G00X76.621Y-92.18
M15
G01X76.021Y-92.18
M16
G05
G00X76.621Y-100.82
M15
G01X76.021Y-100.82
M16
G05
M30
