%TF.GenerationSoftware,KiCad,Pcbnew,9.0.5*%
%TF.CreationDate,2026-05-30T17:48:04+05:30*%
%TF.ProjectId,vga-breakout,7667612d-6272-4656-916b-6f75742e6b69,rev?*%
%TF.SameCoordinates,Original*%
%TF.FileFunction,Soldermask,Top*%
%TF.FilePolarity,Negative*%
%FSLAX46Y46*%
G04 Gerber Fmt 4.6, Leading zero omitted, Abs format (unit mm)*
G04 Created by KiCad (PCBNEW 9.0.5) date 2026-05-30 17:48:04*
%MOMM*%
%LPD*%
G01*
G04 APERTURE LIST*
G04 Aperture macros list*
%AMRoundRect*
0 Rectangle with rounded corners*
0 $1 Rounding radius*
0 $2 $3 $4 $5 $6 $7 $8 $9 X,Y pos of 4 corners*
0 Add a 4 corners polygon primitive as box body*
4,1,4,$2,$3,$4,$5,$6,$7,$8,$9,$2,$3,0*
0 Add four circle primitives for the rounded corners*
1,1,$1+$1,$2,$3*
1,1,$1+$1,$4,$5*
1,1,$1+$1,$6,$7*
1,1,$1+$1,$8,$9*
0 Add four rect primitives between the rounded corners*
20,1,$1+$1,$2,$3,$4,$5,0*
20,1,$1+$1,$4,$5,$6,$7,0*
20,1,$1+$1,$6,$7,$8,$9,0*
20,1,$1+$1,$8,$9,$2,$3,0*%
G04 Aperture macros list end*
%ADD10C,2.200000*%
%ADD11C,1.700000*%
%ADD12R,1.700000X1.700000*%
%ADD13RoundRect,0.218750X0.381250X-0.218750X0.381250X0.218750X-0.381250X0.218750X-0.381250X-0.218750X0*%
%ADD14RoundRect,0.200000X0.275000X-0.200000X0.275000X0.200000X-0.275000X0.200000X-0.275000X-0.200000X0*%
%ADD15R,0.800000X1.000000*%
%ADD16C,0.900000*%
%ADD17R,1.500000X0.700000*%
%ADD18RoundRect,0.200000X-0.275000X0.200000X-0.275000X-0.200000X0.275000X-0.200000X0.275000X0.200000X0*%
%ADD19O,1.700000X1.100000*%
%ADD20RoundRect,0.200000X-0.400000X0.200000X-0.400000X-0.200000X0.400000X-0.200000X0.400000X0.200000X0*%
%ADD21RoundRect,0.190000X-0.410000X0.190000X-0.410000X-0.190000X0.410000X-0.190000X0.410000X0.190000X0*%
%ADD22RoundRect,0.175000X0.425000X-0.175000X0.425000X0.175000X-0.425000X0.175000X-0.425000X-0.175000X0*%
%ADD23RoundRect,0.200000X0.400000X-0.200000X0.400000X0.200000X-0.400000X0.200000X-0.400000X-0.200000X0*%
%ADD24RoundRect,0.190000X0.410000X-0.190000X0.410000X0.190000X-0.410000X0.190000X-0.410000X-0.190000X0*%
%ADD25RoundRect,0.175000X-0.425000X0.175000X-0.425000X-0.175000X0.425000X-0.175000X0.425000X0.175000X0*%
%ADD26C,4.000000*%
%ADD27R,1.600000X1.600000*%
%ADD28C,1.600000*%
G04 APERTURE END LIST*
D10*
%TO.C,REF\u002A\u002A*%
X113500000Y-92000000D03*
%TD*%
D11*
%TO.C,J2*%
X83100000Y-94944201D03*
X85640000Y-94944201D03*
X88180000Y-94944201D03*
X90720000Y-94944201D03*
X93260000Y-94944201D03*
X95800000Y-94944201D03*
X98340000Y-94944201D03*
X100880000Y-94944201D03*
X103420000Y-94944201D03*
X105960000Y-94944201D03*
D12*
X108500000Y-94944201D03*
%TD*%
D10*
%TO.C,REF\u002A\u002A*%
X72500000Y-92000000D03*
%TD*%
D13*
%TO.C,FB2*%
X71500000Y-111062500D03*
X71500000Y-108937500D03*
%TD*%
D14*
%TO.C,R1*%
X78645196Y-97802357D03*
X78645196Y-99452357D03*
%TD*%
D15*
%TO.C,SW1*%
X77780000Y-106350000D03*
X75570000Y-106350000D03*
D16*
X76670000Y-108500000D03*
X76670000Y-111500000D03*
D15*
X77780000Y-113650000D03*
X75570000Y-113650000D03*
D17*
X78430000Y-107750000D03*
X78430000Y-110750000D03*
X78430000Y-112250000D03*
%TD*%
D18*
%TO.C,R2*%
X78662049Y-102575770D03*
X78662049Y-100925770D03*
%TD*%
D19*
%TO.C,J3*%
X72700000Y-104320000D03*
X76500000Y-104320000D03*
X72700000Y-95680000D03*
X76500000Y-95680000D03*
D20*
X76580000Y-97250000D03*
D21*
X76580000Y-98480000D03*
D22*
X76580000Y-100500000D03*
D23*
X76580000Y-102750000D03*
D24*
X76580000Y-101520000D03*
D25*
X76580000Y-99500000D03*
%TD*%
D26*
%TO.C,J1*%
X85251892Y-107112259D03*
X110251892Y-107112259D03*
D27*
X102066892Y-105132259D03*
D28*
X99776892Y-105132259D03*
X97486892Y-105132259D03*
X95196892Y-105132259D03*
X92906892Y-105132259D03*
X103211892Y-107112259D03*
X100921892Y-107112259D03*
X98631892Y-107112259D03*
X96341892Y-107112259D03*
X94051892Y-107112259D03*
X102066892Y-109092259D03*
X99776892Y-109092259D03*
X97486892Y-109092259D03*
X95196892Y-109092259D03*
X92906892Y-109092259D03*
%TD*%
M02*
