M48
; DRILL file {KiCad 9.0.5} date 2026-05-30T17:48:01+0530
; FORMAT={-:-/ absolute / metric / decimal}
; #@! TF.CreationDate,2026-05-30T17:48:01+05:30
; #@! TF.GenerationSoftware,Kicad,Pcbnew,9.0.5
; #@! TF.FileFunction,Plated,1,2,PTH
FMAT,2
METRIC
; #@! TA.AperFunction,Plated,PTH,ViaDrill
T1C0.300
; #@! TA.AperFunction,Plated,PTH,ComponentDrill
T2C0.600
; #@! TA.AperFunction,Plated,PTH,ComponentDrill
T3C1.000
; #@! TA.AperFunction,Plated,PTH,ComponentDrill
T4C3.200
%
G90
G05
T1
X76.58Y-97.25
X76.58Y-102.75
X78.645Y-97.802
X78.662Y-102.576
X93.226Y-92.647
X102.067Y-111.093
T3
X83.1Y-94.944
X85.64Y-94.944
X88.18Y-94.944
X90.72Y-94.944
X92.907Y-105.132
X92.907Y-109.092
X93.26Y-94.944
X94.052Y-107.112
X95.197Y-105.132
X95.197Y-109.092
X95.8Y-94.944
X96.342Y-107.112
X97.487Y-105.132
X97.487Y-109.092
X98.34Y-94.944
X98.632Y-107.112
X99.777Y-105.132
X99.777Y-109.092
X100.88Y-94.944
X100.922Y-107.112
X102.067Y-105.132
X102.067Y-109.092
X103.212Y-107.112
X103.42Y-94.944
X105.96Y-94.944
X108.5Y-94.944
T4
X85.252Y-107.112
X110.252Y-107.112
T2
G00X73.0Y-95.68
M15
G01X72.4Y-95.68
M16
G05
G00X73.0Y-104.32
M15
G01X72.4Y-104.32
M16
G05
G00X76.8Y-95.68
M15
G01X76.2Y-95.68
M16
G05
G00X76.8Y-104.32
M15
G01X76.2Y-104.32
M16
G05
M30
