M48
; DRILL file {KiCad 9.0.5} date 2026-05-31T10:05:32+0530
; FORMAT={-:-/ absolute / metric / decimal}
; #@! TF.CreationDate,2026-05-31T10:05:32+05:30
; #@! TF.GenerationSoftware,Kicad,Pcbnew,9.0.5
; #@! TF.FileFunction,Plated,1,2,PTH
FMAT,2
METRIC
; #@! TA.AperFunction,Plated,PTH,ViaDrill
T1C0.300
; #@! TA.AperFunction,Plated,PTH,ComponentDrill
T2C0.600
; #@! TA.AperFunction,Plated,PTH,ComponentDrill
T3C1.000
; #@! TA.AperFunction,Plated,PTH,ComponentDrill
T4C3.200
%
G90
G05
T1
X76.58Y-97.25
X76.58Y-102.75
X78.645Y-97.802
X78.662Y-102.576
X93.25Y-92.5
X94.225Y-114.6
X96.416Y-111.326
X98.775Y-114.6
X103.4Y-92.0
X105.8Y-92.0
X108.6Y-92.0
T3
X83.09Y-95.515
X85.63Y-95.515
X88.17Y-95.515
X90.71Y-95.515
X92.907Y-105.132
X92.907Y-109.092
X93.25Y-95.515
X94.052Y-107.112
X95.197Y-105.132
X95.197Y-109.092
X95.79Y-95.515
X96.342Y-107.112
X97.487Y-105.132
X97.487Y-109.092
X98.33Y-95.515
X98.632Y-107.112
X99.777Y-105.132
X99.777Y-109.092
X100.87Y-95.515
X100.922Y-107.112
X102.067Y-105.132
X102.067Y-109.092
X103.212Y-107.112
X103.41Y-95.515
X105.95Y-95.515
X108.49Y-95.515
T4
X85.252Y-107.112
X110.252Y-107.112
T2
G00X73.0Y-95.68
M15
G01X72.4Y-95.68
M16
G05
G00X73.0Y-104.32
M15
G01X72.4Y-104.32
M16
G05
G00X76.8Y-95.68
M15
G01X76.2Y-95.68
M16
G05
G00X76.8Y-104.32
M15
G01X76.2Y-104.32
M16
G05
M30
