%TF.GenerationSoftware,KiCad,Pcbnew,9.0.5*%
%TF.CreationDate,2026-05-30T17:48:04+05:30*%
%TF.ProjectId,vga-breakout,7667612d-6272-4656-916b-6f75742e6b69,rev?*%
%TF.SameCoordinates,Original*%
%TF.FileFunction,Copper,L2,Bot*%
%TF.FilePolarity,Positive*%
%FSLAX46Y46*%
G04 Gerber Fmt 4.6, Leading zero omitted, Abs format (unit mm)*
G04 Created by KiCad (PCBNEW 9.0.5) date 2026-05-30 17:48:04*
%MOMM*%
%LPD*%
G01*
G04 APERTURE LIST*
%TA.AperFunction,ComponentPad*%
%ADD10C,1.700000*%
%TD*%
%TA.AperFunction,ComponentPad*%
%ADD11R,1.700000X1.700000*%
%TD*%
%TA.AperFunction,HeatsinkPad*%
%ADD12O,1.700000X1.100000*%
%TD*%
%TA.AperFunction,ComponentPad*%
%ADD13C,4.000000*%
%TD*%
%TA.AperFunction,ComponentPad*%
%ADD14R,1.600000X1.600000*%
%TD*%
%TA.AperFunction,ComponentPad*%
%ADD15C,1.600000*%
%TD*%
%TA.AperFunction,ViaPad*%
%ADD16C,0.600000*%
%TD*%
%TA.AperFunction,Conductor*%
%ADD17C,1.000000*%
%TD*%
%TA.AperFunction,Conductor*%
%ADD18C,0.250000*%
%TD*%
%TA.AperFunction,Conductor*%
%ADD19C,0.200000*%
%TD*%
G04 APERTURE END LIST*
D10*
%TO.P,J2,11,Pin_11*%
%TO.N,/id3{slash}scl*%
X83100000Y-94944201D03*
%TO.P,J2,10,Pin_10*%
%TO.N,/id2{slash}res*%
X85640000Y-94944201D03*
%TO.P,J2,9,Pin_9*%
%TO.N,/id1{slash}sda*%
X88180000Y-94944201D03*
%TO.P,J2,8,Pin_8*%
%TO.N,/id0{slash}res*%
X90720000Y-94944201D03*
%TO.P,J2,7,Pin_7*%
%TO.N,/h5v*%
X93260000Y-94944201D03*
%TO.P,J2,6,Pin_6*%
%TO.N,/vs*%
X95800000Y-94944201D03*
%TO.P,J2,5,Pin_5*%
%TO.N,/HS*%
X98340000Y-94944201D03*
%TO.P,J2,4,Pin_4*%
%TO.N,GND*%
X100880000Y-94944201D03*
%TO.P,J2,3,Pin_3*%
%TO.N,/blue*%
X103420000Y-94944201D03*
%TO.P,J2,2,Pin_2*%
%TO.N,/green*%
X105960000Y-94944201D03*
D11*
%TO.P,J2,1,Pin_1*%
%TO.N,/red*%
X108500000Y-94944201D03*
%TD*%
D12*
%TO.P,J3,S1,SHIELD*%
%TO.N,GND*%
X72700000Y-104320000D03*
X76500000Y-104320000D03*
X72700000Y-95680000D03*
X76500000Y-95680000D03*
%TD*%
D13*
%TO.P,J1,0*%
%TO.N,GND*%
X85251892Y-107112259D03*
X110251892Y-107112259D03*
D14*
%TO.P,J1,1*%
%TO.N,/red*%
X102066892Y-105132259D03*
D15*
%TO.P,J1,2*%
%TO.N,/green*%
X99776892Y-105132259D03*
%TO.P,J1,3*%
%TO.N,/blue*%
X97486892Y-105132259D03*
%TO.P,J1,4*%
%TO.N,/id2{slash}res*%
X95196892Y-105132259D03*
%TO.P,J1,5*%
%TO.N,GND*%
X92906892Y-105132259D03*
%TO.P,J1,6*%
X103211892Y-107112259D03*
%TO.P,J1,7*%
X100921892Y-107112259D03*
%TO.P,J1,8*%
X98631892Y-107112259D03*
%TO.P,J1,9*%
%TO.N,/5V*%
X96341892Y-107112259D03*
%TO.P,J1,10*%
%TO.N,GND*%
X94051892Y-107112259D03*
%TO.P,J1,11*%
%TO.N,/id0{slash}res*%
X102066892Y-109092259D03*
%TO.P,J1,12*%
%TO.N,/id1{slash}sda*%
X99776892Y-109092259D03*
%TO.P,J1,13*%
%TO.N,/HS*%
X97486892Y-109092259D03*
%TO.P,J1,14*%
%TO.N,/vs*%
X95196892Y-109092259D03*
%TO.P,J1,15*%
%TO.N,/id3{slash}scl*%
X92906892Y-109092259D03*
%TD*%
D16*
%TO.N,/id0{slash}res*%
X102066892Y-111093259D03*
%TO.N,/h5v*%
X93226044Y-92647266D03*
%TO.N,GND*%
X78645194Y-97802357D03*
X78662047Y-102575771D03*
X76580000Y-102750000D03*
X76580000Y-97250000D03*
%TD*%
D17*
%TO.N,/h5v*%
X93260000Y-94944201D02*
X93260000Y-92681222D01*
X93260000Y-92681222D02*
X93226044Y-92647266D01*
D18*
%TO.N,/id0{slash}res*%
X102066892Y-111093259D02*
X102066892Y-109092259D01*
D19*
%TO.N,GND*%
X92906892Y-105887259D02*
X92906892Y-105132259D01*
%TD*%
%TA.AperFunction,Conductor*%
%TO.N,GND*%
G36*
X115442539Y-90020185D02*
G01*
X115488294Y-90072989D01*
X115499500Y-90124500D01*
X115499500Y-114875500D01*
X115479815Y-114942539D01*
X115427011Y-114988294D01*
X115375500Y-114999500D01*
X70624500Y-114999500D01*
X70557461Y-114979815D01*
X70511706Y-114927011D01*
X70500500Y-114875500D01*
X70500500Y-111568995D01*
X75969499Y-111568995D01*
X75996418Y-111704322D01*
X75996421Y-111704332D01*
X76049221Y-111831804D01*
X76049228Y-111831817D01*
X76125885Y-111946541D01*
X76125888Y-111946545D01*
X76223454Y-112044111D01*
X76223458Y-112044114D01*
X76338182Y-112120771D01*
X76338195Y-112120778D01*
X76465667Y-112173578D01*
X76465672Y-112173580D01*
X76465676Y-112173580D01*
X76465677Y-112173581D01*
X76601004Y-112200500D01*
X76601007Y-112200500D01*
X76738995Y-112200500D01*
X76830041Y-112182389D01*
X76874328Y-112173580D01*
X77001811Y-112120775D01*
X77116542Y-112044114D01*
X77214114Y-111946542D01*
X77290775Y-111831811D01*
X77343580Y-111704328D01*
X77370500Y-111568993D01*
X77370500Y-111431007D01*
X77370500Y-111431004D01*
X77343581Y-111295677D01*
X77343580Y-111295676D01*
X77343580Y-111295672D01*
X77343578Y-111295667D01*
X77290778Y-111168195D01*
X77290771Y-111168182D01*
X77214114Y-111053458D01*
X77214111Y-111053454D01*
X77116545Y-110955888D01*
X77116541Y-110955885D01*
X77001817Y-110879228D01*
X77001804Y-110879221D01*
X76874332Y-110826421D01*
X76874322Y-110826418D01*
X76738995Y-110799500D01*
X76738993Y-110799500D01*
X76601007Y-110799500D01*
X76601005Y-110799500D01*
X76465677Y-110826418D01*
X76465667Y-110826421D01*
X76338195Y-110879221D01*
X76338182Y-110879228D01*
X76223458Y-110955885D01*
X76223454Y-110955888D01*
X76125888Y-111053454D01*
X76125885Y-111053458D01*
X76049228Y-111168182D01*
X76049221Y-111168195D01*
X75996421Y-111295667D01*
X75996418Y-111295677D01*
X75969500Y-111431004D01*
X75969500Y-111431007D01*
X75969500Y-111568993D01*
X75969500Y-111568995D01*
X75969499Y-111568995D01*
X70500500Y-111568995D01*
X70500500Y-108568995D01*
X75969499Y-108568995D01*
X75996418Y-108704322D01*
X75996421Y-108704332D01*
X76049221Y-108831804D01*
X76049228Y-108831817D01*
X76125885Y-108946541D01*
X76125888Y-108946545D01*
X76223454Y-109044111D01*
X76223458Y-109044114D01*
X76338182Y-109120771D01*
X76338195Y-109120778D01*
X76465667Y-109173578D01*
X76465672Y-109173580D01*
X76465676Y-109173580D01*
X76465677Y-109173581D01*
X76601004Y-109200500D01*
X76601007Y-109200500D01*
X76738995Y-109200500D01*
X76830041Y-109182389D01*
X76874328Y-109173580D01*
X77001811Y-109120775D01*
X77116542Y-109044114D01*
X77170749Y-108989907D01*
X91606392Y-108989907D01*
X91606392Y-109194610D01*
X91638414Y-109396793D01*
X91701673Y-109591482D01*
X91794607Y-109773872D01*
X91914920Y-109939472D01*
X92059678Y-110084230D01*
X92214641Y-110196815D01*
X92225282Y-110204546D01*
X92341499Y-110263762D01*
X92407668Y-110297477D01*
X92407670Y-110297477D01*
X92407673Y-110297479D01*
X92512029Y-110331386D01*
X92602357Y-110360736D01*
X92703449Y-110376747D01*
X92804540Y-110392759D01*
X92804541Y-110392759D01*
X93009243Y-110392759D01*
X93009244Y-110392759D01*
X93211426Y-110360736D01*
X93406111Y-110297479D01*
X93588502Y-110204546D01*
X93681482Y-110136991D01*
X93754105Y-110084230D01*
X93754107Y-110084227D01*
X93754111Y-110084225D01*
X93898858Y-109939478D01*
X93951573Y-109866920D01*
X94006903Y-109824255D01*
X94076516Y-109818276D01*
X94138312Y-109850881D01*
X94152211Y-109866921D01*
X94204926Y-109939478D01*
X94349678Y-110084230D01*
X94504641Y-110196815D01*
X94515282Y-110204546D01*
X94631499Y-110263762D01*
X94697668Y-110297477D01*
X94697670Y-110297477D01*
X94697673Y-110297479D01*
X94802029Y-110331386D01*
X94892357Y-110360736D01*
X94993449Y-110376747D01*
X95094540Y-110392759D01*
X95094541Y-110392759D01*
X95299243Y-110392759D01*
X95299244Y-110392759D01*
X95501426Y-110360736D01*
X95696111Y-110297479D01*
X95878502Y-110204546D01*
X95971482Y-110136991D01*
X96044105Y-110084230D01*
X96044107Y-110084227D01*
X96044111Y-110084225D01*
X96188858Y-109939478D01*
X96241573Y-109866920D01*
X96296903Y-109824255D01*
X96366516Y-109818276D01*
X96428312Y-109850881D01*
X96442211Y-109866921D01*
X96494926Y-109939478D01*
X96639678Y-110084230D01*
X96794641Y-110196815D01*
X96805282Y-110204546D01*
X96921499Y-110263762D01*
X96987668Y-110297477D01*
X96987670Y-110297477D01*
X96987673Y-110297479D01*
X97092029Y-110331386D01*
X97182357Y-110360736D01*
X97283449Y-110376747D01*
X97384540Y-110392759D01*
X97384541Y-110392759D01*
X97589243Y-110392759D01*
X97589244Y-110392759D01*
X97791426Y-110360736D01*
X97986111Y-110297479D01*
X98168502Y-110204546D01*
X98261482Y-110136991D01*
X98334105Y-110084230D01*
X98334107Y-110084227D01*
X98334111Y-110084225D01*
X98478858Y-109939478D01*
X98531573Y-109866920D01*
X98586903Y-109824255D01*
X98656516Y-109818276D01*
X98718312Y-109850881D01*
X98732211Y-109866921D01*
X98784926Y-109939478D01*
X98929678Y-110084230D01*
X99084641Y-110196815D01*
X99095282Y-110204546D01*
X99211499Y-110263762D01*
X99277668Y-110297477D01*
X99277670Y-110297477D01*
X99277673Y-110297479D01*
X99382029Y-110331386D01*
X99472357Y-110360736D01*
X99573449Y-110376747D01*
X99674540Y-110392759D01*
X99674541Y-110392759D01*
X99879243Y-110392759D01*
X99879244Y-110392759D01*
X100081426Y-110360736D01*
X100276111Y-110297479D01*
X100458502Y-110204546D01*
X100551482Y-110136991D01*
X100624105Y-110084230D01*
X100624107Y-110084227D01*
X100624111Y-110084225D01*
X100768858Y-109939478D01*
X100821573Y-109866920D01*
X100876903Y-109824255D01*
X100946516Y-109818276D01*
X101008312Y-109850881D01*
X101022209Y-109866918D01*
X101074926Y-109939478D01*
X101219673Y-110084225D01*
X101385282Y-110204546D01*
X101385286Y-110204548D01*
X101389224Y-110207409D01*
X101388003Y-110209088D01*
X101389137Y-110210340D01*
X101398595Y-110214660D01*
X101412182Y-110235803D01*
X101429047Y-110254436D01*
X101431751Y-110266253D01*
X101436369Y-110273438D01*
X101441392Y-110308373D01*
X101441392Y-110550909D01*
X101421707Y-110617948D01*
X101420494Y-110619800D01*
X101357501Y-110714074D01*
X101357494Y-110714087D01*
X101297156Y-110859757D01*
X101297153Y-110859769D01*
X101266392Y-111014412D01*
X101266392Y-111172105D01*
X101297153Y-111326748D01*
X101297156Y-111326760D01*
X101357494Y-111472431D01*
X101357501Y-111472444D01*
X101445102Y-111603547D01*
X101445105Y-111603551D01*
X101556599Y-111715045D01*
X101556603Y-111715048D01*
X101687706Y-111802649D01*
X101687719Y-111802656D01*
X101833390Y-111862994D01*
X101833395Y-111862996D01*
X101988045Y-111893758D01*
X101988048Y-111893759D01*
X101988050Y-111893759D01*
X102145736Y-111893759D01*
X102145737Y-111893758D01*
X102300389Y-111862996D01*
X102446071Y-111802653D01*
X102577181Y-111715048D01*
X102688681Y-111603548D01*
X102776286Y-111472438D01*
X102836629Y-111326756D01*
X102867392Y-111172101D01*
X102867392Y-111014417D01*
X102867392Y-111014414D01*
X102867391Y-111014412D01*
X102840500Y-110879225D01*
X102836629Y-110859762D01*
X102776286Y-110714080D01*
X102713289Y-110619798D01*
X102707639Y-110601753D01*
X102697415Y-110585844D01*
X102692963Y-110554882D01*
X102692412Y-110553122D01*
X102692392Y-110550909D01*
X102692392Y-110308373D01*
X102712077Y-110241334D01*
X102745467Y-110208657D01*
X102744560Y-110207409D01*
X102748497Y-110204548D01*
X102748502Y-110204546D01*
X102914111Y-110084225D01*
X103058858Y-109939478D01*
X103058860Y-109939474D01*
X103058863Y-109939472D01*
X103123227Y-109850881D01*
X103179179Y-109773869D01*
X103272112Y-109591478D01*
X103335369Y-109396793D01*
X103367392Y-109194611D01*
X103367392Y-108989907D01*
X103335369Y-108787725D01*
X103272112Y-108593040D01*
X103272110Y-108593037D01*
X103272110Y-108593035D01*
X103238395Y-108526866D01*
X103179179Y-108410649D01*
X103111573Y-108317596D01*
X103058863Y-108245045D01*
X102914105Y-108100287D01*
X102748505Y-107979974D01*
X102748504Y-107979973D01*
X102748502Y-107979972D01*
X102691545Y-107950950D01*
X102566115Y-107887040D01*
X102371426Y-107823781D01*
X102181612Y-107793718D01*
X102169244Y-107791759D01*
X101964540Y-107791759D01*
X101952172Y-107793718D01*
X101762357Y-107823781D01*
X101567668Y-107887040D01*
X101385278Y-107979974D01*
X101219678Y-108100287D01*
X101074924Y-108245041D01*
X101074920Y-108245046D01*
X101022210Y-108317596D01*
X100966880Y-108360262D01*
X100897267Y-108366241D01*
X100835472Y-108333635D01*
X100821574Y-108317596D01*
X100768863Y-108245046D01*
X100768859Y-108245041D01*
X100624105Y-108100287D01*
X100458505Y-107979974D01*
X100458504Y-107979973D01*
X100458502Y-107979972D01*
X100401545Y-107950950D01*
X100276115Y-107887040D01*
X100081426Y-107823781D01*
X99891612Y-107793718D01*
X99879244Y-107791759D01*
X99674540Y-107791759D01*
X99662172Y-107793718D01*
X99472357Y-107823781D01*
X99277668Y-107887040D01*
X99095278Y-107979974D01*
X98929678Y-108100287D01*
X98784924Y-108245041D01*
X98784920Y-108245046D01*
X98732210Y-108317596D01*
X98676880Y-108360262D01*
X98607267Y-108366241D01*
X98545472Y-108333635D01*
X98531574Y-108317596D01*
X98478863Y-108245046D01*
X98478859Y-108245041D01*
X98334105Y-108100287D01*
X98168505Y-107979974D01*
X98168504Y-107979973D01*
X98168502Y-107979972D01*
X98111545Y-107950950D01*
X97986115Y-107887040D01*
X97791427Y-107823782D01*
X97633828Y-107798820D01*
X97570694Y-107768890D01*
X97533763Y-107709579D01*
X97534761Y-107639716D01*
X97542741Y-107620055D01*
X97547112Y-107611478D01*
X97610369Y-107416793D01*
X97642392Y-107214611D01*
X97642392Y-107009907D01*
X97610369Y-106807725D01*
X97547112Y-106613040D01*
X97542746Y-106604471D01*
X97529845Y-106535803D01*
X97556118Y-106471061D01*
X97613222Y-106430801D01*
X97633825Y-106425697D01*
X97791426Y-106400736D01*
X97986111Y-106337479D01*
X98168502Y-106244546D01*
X98334099Y-106124234D01*
X98334105Y-106124230D01*
X98334107Y-106124227D01*
X98334111Y-106124225D01*
X98478858Y-105979478D01*
X98531573Y-105906920D01*
X98586903Y-105864255D01*
X98656516Y-105858276D01*
X98718312Y-105890881D01*
X98732211Y-105906921D01*
X98784926Y-105979478D01*
X98929678Y-106124230D01*
X99084641Y-106236815D01*
X99095282Y-106244546D01*
X99184104Y-106289803D01*
X99277668Y-106337477D01*
X99277670Y-106337477D01*
X99277673Y-106337479D01*
X99382029Y-106371386D01*
X99472357Y-106400736D01*
X99573449Y-106416747D01*
X99674540Y-106432759D01*
X99674541Y-106432759D01*
X99879243Y-106432759D01*
X99879244Y-106432759D01*
X100081426Y-106400736D01*
X100276111Y-106337479D01*
X100458502Y-106244546D01*
X100624111Y-106124225D01*
X100624119Y-106124216D01*
X100625988Y-106122621D01*
X100626855Y-106122232D01*
X100628053Y-106121362D01*
X100628235Y-106121613D01*
X100689746Y-106094042D01*
X100758833Y-106104470D01*
X100811315Y-106150594D01*
X100822712Y-106173564D01*
X100823091Y-106174582D01*
X100823098Y-106174594D01*
X100909344Y-106289803D01*
X100909347Y-106289806D01*
X101024556Y-106376052D01*
X101024563Y-106376056D01*
X101159409Y-106426350D01*
X101159408Y-106426350D01*
X101166336Y-106427094D01*
X101219019Y-106432759D01*
X102914764Y-106432758D01*
X102974375Y-106426350D01*
X103109223Y-106376055D01*
X103224438Y-106289805D01*
X103310688Y-106174590D01*
X103360983Y-106039742D01*
X103367392Y-105980132D01*
X103367391Y-104284387D01*
X103360983Y-104224776D01*
X103310688Y-104089928D01*
X103310687Y-104089927D01*
X103310685Y-104089923D01*
X103224439Y-103974714D01*
X103224436Y-103974711D01*
X103109227Y-103888465D01*
X103109220Y-103888461D01*
X102974374Y-103838167D01*
X102974375Y-103838167D01*
X102914775Y-103831760D01*
X102914773Y-103831759D01*
X102914765Y-103831759D01*
X102914756Y-103831759D01*
X101219021Y-103831759D01*
X101219015Y-103831760D01*
X101159408Y-103838167D01*
X101024563Y-103888461D01*
X101024556Y-103888465D01*
X100909347Y-103974711D01*
X100909344Y-103974714D01*
X100823098Y-104089923D01*
X100823092Y-104089934D01*
X100822711Y-104090957D01*
X100822057Y-104091829D01*
X100818845Y-104097713D01*
X100817998Y-104097250D01*
X100780836Y-104146888D01*
X100715370Y-104171301D01*
X100647098Y-104156444D01*
X100625998Y-104141904D01*
X100624108Y-104140290D01*
X100458505Y-104019974D01*
X100458504Y-104019973D01*
X100458502Y-104019972D01*
X100401545Y-103990950D01*
X100276115Y-103927040D01*
X100081426Y-103863781D01*
X99906887Y-103836137D01*
X99879244Y-103831759D01*
X99674540Y-103831759D01*
X99650221Y-103835610D01*
X99472357Y-103863781D01*
X99277668Y-103927040D01*
X99095278Y-104019974D01*
X98929678Y-104140287D01*
X98784924Y-104285041D01*
X98784920Y-104285046D01*
X98732210Y-104357596D01*
X98676880Y-104400262D01*
X98607267Y-104406241D01*
X98545472Y-104373635D01*
X98531574Y-104357596D01*
X98478863Y-104285046D01*
X98478859Y-104285041D01*
X98334105Y-104140287D01*
X98168505Y-104019974D01*
X98168504Y-104019973D01*
X98168502Y-104019972D01*
X98111545Y-103990950D01*
X97986115Y-103927040D01*
X97791426Y-103863781D01*
X97616887Y-103836137D01*
X97589244Y-103831759D01*
X97384540Y-103831759D01*
X97360221Y-103835610D01*
X97182357Y-103863781D01*
X96987668Y-103927040D01*
X96805278Y-104019974D01*
X96639678Y-104140287D01*
X96494924Y-104285041D01*
X96494920Y-104285046D01*
X96442210Y-104357596D01*
X96386880Y-104400262D01*
X96317267Y-104406241D01*
X96255472Y-104373635D01*
X96241574Y-104357596D01*
X96188863Y-104285046D01*
X96188859Y-104285041D01*
X96044105Y-104140287D01*
X95878505Y-104019974D01*
X95878504Y-104019973D01*
X95878502Y-104019972D01*
X95821545Y-103990950D01*
X95696115Y-103927040D01*
X95501426Y-103863781D01*
X95326887Y-103836137D01*
X95299244Y-103831759D01*
X95094540Y-103831759D01*
X95070221Y-103835610D01*
X94892357Y-103863781D01*
X94697668Y-103927040D01*
X94515278Y-104019974D01*
X94349678Y-104140287D01*
X94204920Y-104285045D01*
X94084607Y-104450645D01*
X93991673Y-104633035D01*
X93928414Y-104827724D01*
X93896392Y-105029907D01*
X93896392Y-105234610D01*
X93928414Y-105436793D01*
X93991673Y-105631482D01*
X94084607Y-105813872D01*
X94204920Y-105979472D01*
X94349678Y-106124230D01*
X94504641Y-106236815D01*
X94515282Y-106244546D01*
X94604104Y-106289803D01*
X94697668Y-106337477D01*
X94697670Y-106337477D01*
X94697673Y-106337479D01*
X94802029Y-106371386D01*
X94892357Y-106400736D01*
X94971423Y-106413258D01*
X95049954Y-106425697D01*
X95113089Y-106455626D01*
X95150020Y-106514938D01*
X95149022Y-106584800D01*
X95141041Y-106604465D01*
X95136674Y-106613035D01*
X95073414Y-106807724D01*
X95041392Y-107009907D01*
X95041392Y-107214610D01*
X95073414Y-107416793D01*
X95136674Y-107611483D01*
X95141039Y-107620049D01*
X95153937Y-107688718D01*
X95127663Y-107753459D01*
X95070558Y-107793718D01*
X95049955Y-107798820D01*
X94892356Y-107823782D01*
X94697668Y-107887040D01*
X94515278Y-107979974D01*
X94349678Y-108100287D01*
X94204924Y-108245041D01*
X94204920Y-108245046D01*
X94152210Y-108317596D01*
X94096880Y-108360262D01*
X94027267Y-108366241D01*
X93965472Y-108333635D01*
X93951574Y-108317596D01*
X93898863Y-108245046D01*
X93898859Y-108245041D01*
X93754105Y-108100287D01*
X93588505Y-107979974D01*
X93588504Y-107979973D01*
X93588502Y-107979972D01*
X93531545Y-107950950D01*
X93406115Y-107887040D01*
X93211426Y-107823781D01*
X93021612Y-107793718D01*
X93009244Y-107791759D01*
X92804540Y-107791759D01*
X92792172Y-107793718D01*
X92602357Y-107823781D01*
X92407668Y-107887040D01*
X92225278Y-107979974D01*
X92059678Y-108100287D01*
X91914920Y-108245045D01*
X91794607Y-108410645D01*
X91701673Y-108593035D01*
X91638414Y-108787724D01*
X91606392Y-108989907D01*
X77170749Y-108989907D01*
X77214114Y-108946542D01*
X77224381Y-108931175D01*
X77234426Y-108916144D01*
X77290771Y-108831817D01*
X77290771Y-108831816D01*
X77290775Y-108831811D01*
X77343580Y-108704328D01*
X77370500Y-108568993D01*
X77370500Y-108431007D01*
X77370500Y-108431004D01*
X77343581Y-108295677D01*
X77343580Y-108295676D01*
X77343580Y-108295672D01*
X77322608Y-108245040D01*
X77290778Y-108168195D01*
X77290771Y-108168182D01*
X77214114Y-108053458D01*
X77214111Y-108053454D01*
X77116545Y-107955888D01*
X77116541Y-107955885D01*
X77001817Y-107879228D01*
X77001804Y-107879221D01*
X76874332Y-107826421D01*
X76874322Y-107826418D01*
X76738995Y-107799500D01*
X76738993Y-107799500D01*
X76601007Y-107799500D01*
X76601005Y-107799500D01*
X76465677Y-107826418D01*
X76465667Y-107826421D01*
X76338195Y-107879221D01*
X76338182Y-107879228D01*
X76223458Y-107955885D01*
X76223454Y-107955888D01*
X76125888Y-108053454D01*
X76125885Y-108053458D01*
X76049228Y-108168182D01*
X76049221Y-108168195D01*
X75996421Y-108295667D01*
X75996418Y-108295677D01*
X75969500Y-108431004D01*
X75969500Y-108431007D01*
X75969500Y-108568993D01*
X75969500Y-108568995D01*
X75969499Y-108568995D01*
X70500500Y-108568995D01*
X70500500Y-94837914D01*
X81749500Y-94837914D01*
X81749500Y-95050487D01*
X81782753Y-95260440D01*
X81848444Y-95462615D01*
X81944951Y-95652021D01*
X82069890Y-95823987D01*
X82220213Y-95974310D01*
X82392179Y-96099249D01*
X82392181Y-96099250D01*
X82392184Y-96099252D01*
X82581588Y-96195758D01*
X82783757Y-96261447D01*
X82993713Y-96294701D01*
X82993714Y-96294701D01*
X83206286Y-96294701D01*
X83206287Y-96294701D01*
X83416243Y-96261447D01*
X83618412Y-96195758D01*
X83807816Y-96099252D01*
X83894138Y-96036536D01*
X83979786Y-95974310D01*
X83979788Y-95974307D01*
X83979792Y-95974305D01*
X84130104Y-95823993D01*
X84130106Y-95823989D01*
X84130109Y-95823987D01*
X84255048Y-95652021D01*
X84255047Y-95652021D01*
X84255051Y-95652017D01*
X84259514Y-95643255D01*
X84307488Y-95592460D01*
X84375308Y-95575664D01*
X84441444Y-95598200D01*
X84480486Y-95643257D01*
X84484951Y-95652021D01*
X84609890Y-95823987D01*
X84760213Y-95974310D01*
X84932179Y-96099249D01*
X84932181Y-96099250D01*
X84932184Y-96099252D01*
X85121588Y-96195758D01*
X85323757Y-96261447D01*
X85533713Y-96294701D01*
X85533714Y-96294701D01*
X85746286Y-96294701D01*
X85746287Y-96294701D01*
X85956243Y-96261447D01*
X86158412Y-96195758D01*
X86347816Y-96099252D01*
X86434138Y-96036536D01*
X86519786Y-95974310D01*
X86519788Y-95974307D01*
X86519792Y-95974305D01*
X86670104Y-95823993D01*
X86670106Y-95823989D01*
X86670109Y-95823987D01*
X86795048Y-95652021D01*
X86795047Y-95652021D01*
X86795051Y-95652017D01*
X86799514Y-95643255D01*
X86847488Y-95592460D01*
X86915308Y-95575664D01*
X86981444Y-95598200D01*
X87020486Y-95643257D01*
X87024951Y-95652021D01*
X87149890Y-95823987D01*
X87300213Y-95974310D01*
X87472179Y-96099249D01*
X87472181Y-96099250D01*
X87472184Y-96099252D01*
X87661588Y-96195758D01*
X87863757Y-96261447D01*
X88073713Y-96294701D01*
X88073714Y-96294701D01*
X88286286Y-96294701D01*
X88286287Y-96294701D01*
X88496243Y-96261447D01*
X88698412Y-96195758D01*
X88887816Y-96099252D01*
X88974138Y-96036536D01*
X89059786Y-95974310D01*
X89059788Y-95974307D01*
X89059792Y-95974305D01*
X89210104Y-95823993D01*
X89210106Y-95823989D01*
X89210109Y-95823987D01*
X89335048Y-95652021D01*
X89335047Y-95652021D01*
X89335051Y-95652017D01*
X89339514Y-95643255D01*
X89387488Y-95592460D01*
X89455308Y-95575664D01*
X89521444Y-95598200D01*
X89560486Y-95643257D01*
X89564951Y-95652021D01*
X89689890Y-95823987D01*
X89840213Y-95974310D01*
X90012179Y-96099249D01*
X90012181Y-96099250D01*
X90012184Y-96099252D01*
X90201588Y-96195758D01*
X90403757Y-96261447D01*
X90613713Y-96294701D01*
X90613714Y-96294701D01*
X90826286Y-96294701D01*
X90826287Y-96294701D01*
X91036243Y-96261447D01*
X91238412Y-96195758D01*
X91427816Y-96099252D01*
X91514138Y-96036536D01*
X91599786Y-95974310D01*
X91599788Y-95974307D01*
X91599792Y-95974305D01*
X91750104Y-95823993D01*
X91750106Y-95823989D01*
X91750109Y-95823987D01*
X91875048Y-95652021D01*
X91875047Y-95652021D01*
X91875051Y-95652017D01*
X91879514Y-95643255D01*
X91927488Y-95592460D01*
X91995308Y-95575664D01*
X92061444Y-95598200D01*
X92100486Y-95643257D01*
X92104951Y-95652021D01*
X92229890Y-95823987D01*
X92380213Y-95974310D01*
X92552179Y-96099249D01*
X92552181Y-96099250D01*
X92552184Y-96099252D01*
X92741588Y-96195758D01*
X92943757Y-96261447D01*
X93153713Y-96294701D01*
X93153714Y-96294701D01*
X93366286Y-96294701D01*
X93366287Y-96294701D01*
X93576243Y-96261447D01*
X93778412Y-96195758D01*
X93967816Y-96099252D01*
X94054138Y-96036536D01*
X94139786Y-95974310D01*
X94139788Y-95974307D01*
X94139792Y-95974305D01*
X94290104Y-95823993D01*
X94290106Y-95823989D01*
X94290109Y-95823987D01*
X94415048Y-95652021D01*
X94415047Y-95652021D01*
X94415051Y-95652017D01*
X94419514Y-95643255D01*
X94467488Y-95592460D01*
X94535308Y-95575664D01*
X94601444Y-95598200D01*
X94640486Y-95643257D01*
X94644951Y-95652021D01*
X94769890Y-95823987D01*
X94920213Y-95974310D01*
X95092179Y-96099249D01*
X95092181Y-96099250D01*
X95092184Y-96099252D01*
X95281588Y-96195758D01*
X95483757Y-96261447D01*
X95693713Y-96294701D01*
X95693714Y-96294701D01*
X95906286Y-96294701D01*
X95906287Y-96294701D01*
X96116243Y-96261447D01*
X96318412Y-96195758D01*
X96507816Y-96099252D01*
X96594138Y-96036536D01*
X96679786Y-95974310D01*
X96679788Y-95974307D01*
X96679792Y-95974305D01*
X96830104Y-95823993D01*
X96830106Y-95823989D01*
X96830109Y-95823987D01*
X96955048Y-95652021D01*
X96955047Y-95652021D01*
X96955051Y-95652017D01*
X96959514Y-95643255D01*
X97007488Y-95592460D01*
X97075308Y-95575664D01*
X97141444Y-95598200D01*
X97180486Y-95643257D01*
X97184951Y-95652021D01*
X97309890Y-95823987D01*
X97460213Y-95974310D01*
X97632179Y-96099249D01*
X97632181Y-96099250D01*
X97632184Y-96099252D01*
X97821588Y-96195758D01*
X98023757Y-96261447D01*
X98233713Y-96294701D01*
X98233714Y-96294701D01*
X98446286Y-96294701D01*
X98446287Y-96294701D01*
X98656243Y-96261447D01*
X98858412Y-96195758D01*
X99047816Y-96099252D01*
X99134138Y-96036536D01*
X99219786Y-95974310D01*
X99219788Y-95974307D01*
X99219792Y-95974305D01*
X99370104Y-95823993D01*
X99370106Y-95823989D01*
X99370109Y-95823987D01*
X99495048Y-95652021D01*
X99495047Y-95652021D01*
X99495051Y-95652017D01*
X99591557Y-95462613D01*
X99657246Y-95260444D01*
X99690500Y-95050488D01*
X99690500Y-94837914D01*
X102069500Y-94837914D01*
X102069500Y-95050487D01*
X102102753Y-95260440D01*
X102168444Y-95462615D01*
X102264951Y-95652021D01*
X102389890Y-95823987D01*
X102540213Y-95974310D01*
X102712179Y-96099249D01*
X102712181Y-96099250D01*
X102712184Y-96099252D01*
X102901588Y-96195758D01*
X103103757Y-96261447D01*
X103313713Y-96294701D01*
X103313714Y-96294701D01*
X103526286Y-96294701D01*
X103526287Y-96294701D01*
X103736243Y-96261447D01*
X103938412Y-96195758D01*
X104127816Y-96099252D01*
X104214138Y-96036536D01*
X104299786Y-95974310D01*
X104299788Y-95974307D01*
X104299792Y-95974305D01*
X104450104Y-95823993D01*
X104450106Y-95823989D01*
X104450109Y-95823987D01*
X104575048Y-95652021D01*
X104575047Y-95652021D01*
X104575051Y-95652017D01*
X104579514Y-95643255D01*
X104627488Y-95592460D01*
X104695308Y-95575664D01*
X104761444Y-95598200D01*
X104800486Y-95643257D01*
X104804951Y-95652021D01*
X104929890Y-95823987D01*
X105080213Y-95974310D01*
X105252179Y-96099249D01*
X105252181Y-96099250D01*
X105252184Y-96099252D01*
X105441588Y-96195758D01*
X105643757Y-96261447D01*
X105853713Y-96294701D01*
X105853714Y-96294701D01*
X106066286Y-96294701D01*
X106066287Y-96294701D01*
X106276243Y-96261447D01*
X106478412Y-96195758D01*
X106667816Y-96099252D01*
X106839792Y-95974305D01*
X106953329Y-95860767D01*
X107014648Y-95827285D01*
X107084340Y-95832269D01*
X107140274Y-95874140D01*
X107157189Y-95905118D01*
X107206202Y-96036529D01*
X107206206Y-96036536D01*
X107292452Y-96151745D01*
X107292455Y-96151748D01*
X107407664Y-96237994D01*
X107407671Y-96237998D01*
X107542517Y-96288292D01*
X107542516Y-96288292D01*
X107549444Y-96289036D01*
X107602127Y-96294701D01*
X109397872Y-96294700D01*
X109457483Y-96288292D01*
X109592331Y-96237997D01*
X109707546Y-96151747D01*
X109793796Y-96036532D01*
X109844091Y-95901684D01*
X109850500Y-95842074D01*
X109850499Y-94046329D01*
X109844091Y-93986718D01*
X109842810Y-93983284D01*
X109793797Y-93851872D01*
X109793793Y-93851865D01*
X109707547Y-93736656D01*
X109707544Y-93736653D01*
X109592335Y-93650407D01*
X109592328Y-93650403D01*
X109457482Y-93600109D01*
X109457483Y-93600109D01*
X109397883Y-93593702D01*
X109397881Y-93593701D01*
X109397873Y-93593701D01*
X109397864Y-93593701D01*
X107602129Y-93593701D01*
X107602123Y-93593702D01*
X107542516Y-93600109D01*
X107407671Y-93650403D01*
X107407664Y-93650407D01*
X107292455Y-93736653D01*
X107292452Y-93736656D01*
X107206206Y-93851865D01*
X107206203Y-93851870D01*
X107157189Y-93983284D01*
X107115317Y-94039217D01*
X107049853Y-94063634D01*
X106981580Y-94048782D01*
X106953326Y-94027631D01*
X106839786Y-93914091D01*
X106667820Y-93789152D01*
X106478414Y-93692645D01*
X106478413Y-93692644D01*
X106478412Y-93692644D01*
X106276243Y-93626955D01*
X106276241Y-93626954D01*
X106276240Y-93626954D01*
X106114957Y-93601409D01*
X106066287Y-93593701D01*
X105853713Y-93593701D01*
X105805042Y-93601409D01*
X105643760Y-93626954D01*
X105441585Y-93692645D01*
X105252179Y-93789152D01*
X105080213Y-93914091D01*
X104929890Y-94064414D01*
X104804949Y-94236383D01*
X104800484Y-94245147D01*
X104752509Y-94295943D01*
X104684688Y-94312737D01*
X104618553Y-94290199D01*
X104579516Y-94245147D01*
X104575050Y-94236383D01*
X104450109Y-94064414D01*
X104299786Y-93914091D01*
X104127820Y-93789152D01*
X103938414Y-93692645D01*
X103938413Y-93692644D01*
X103938412Y-93692644D01*
X103736243Y-93626955D01*
X103736241Y-93626954D01*
X103736240Y-93626954D01*
X103574957Y-93601409D01*
X103526287Y-93593701D01*
X103313713Y-93593701D01*
X103265042Y-93601409D01*
X103103760Y-93626954D01*
X102901585Y-93692645D01*
X102712179Y-93789152D01*
X102540213Y-93914091D01*
X102389890Y-94064414D01*
X102264951Y-94236380D01*
X102168444Y-94425786D01*
X102102753Y-94627961D01*
X102069500Y-94837914D01*
X99690500Y-94837914D01*
X99657246Y-94627958D01*
X99591557Y-94425789D01*
X99495051Y-94236385D01*
X99495049Y-94236382D01*
X99495048Y-94236380D01*
X99370109Y-94064414D01*
X99219786Y-93914091D01*
X99047820Y-93789152D01*
X98858414Y-93692645D01*
X98858413Y-93692644D01*
X98858412Y-93692644D01*
X98656243Y-93626955D01*
X98656241Y-93626954D01*
X98656240Y-93626954D01*
X98494957Y-93601409D01*
X98446287Y-93593701D01*
X98233713Y-93593701D01*
X98185042Y-93601409D01*
X98023760Y-93626954D01*
X97821585Y-93692645D01*
X97632179Y-93789152D01*
X97460213Y-93914091D01*
X97309890Y-94064414D01*
X97184949Y-94236383D01*
X97180484Y-94245147D01*
X97132509Y-94295943D01*
X97064688Y-94312737D01*
X96998553Y-94290199D01*
X96959516Y-94245147D01*
X96955050Y-94236383D01*
X96830109Y-94064414D01*
X96679786Y-93914091D01*
X96507820Y-93789152D01*
X96318414Y-93692645D01*
X96318413Y-93692644D01*
X96318412Y-93692644D01*
X96116243Y-93626955D01*
X96116241Y-93626954D01*
X96116240Y-93626954D01*
X95954957Y-93601409D01*
X95906287Y-93593701D01*
X95693713Y-93593701D01*
X95645042Y-93601409D01*
X95483760Y-93626954D01*
X95281585Y-93692645D01*
X95092179Y-93789152D01*
X94920213Y-93914091D01*
X94769890Y-94064414D01*
X94644949Y-94236383D01*
X94640484Y-94245147D01*
X94592509Y-94295943D01*
X94524688Y-94312737D01*
X94458553Y-94290199D01*
X94419516Y-94245147D01*
X94415050Y-94236383D01*
X94287241Y-94060467D01*
X94288108Y-94059836D01*
X94261641Y-94000782D01*
X94260500Y-93984001D01*
X94260500Y-92582678D01*
X94222052Y-92389392D01*
X94222051Y-92389391D01*
X94222051Y-92389387D01*
X94191754Y-92316243D01*
X94146635Y-92207314D01*
X94146628Y-92207301D01*
X94037139Y-92043440D01*
X94037136Y-92043436D01*
X93970223Y-91976523D01*
X93932440Y-91938741D01*
X93897782Y-91904083D01*
X93897778Y-91904080D01*
X93887411Y-91893713D01*
X112149500Y-91893713D01*
X112149500Y-92106287D01*
X112182754Y-92316243D01*
X112206518Y-92389382D01*
X112248444Y-92518414D01*
X112344951Y-92707820D01*
X112469890Y-92879786D01*
X112620213Y-93030109D01*
X112792179Y-93155048D01*
X112792181Y-93155049D01*
X112792184Y-93155051D01*
X112981588Y-93251557D01*
X113183757Y-93317246D01*
X113393713Y-93350500D01*
X113393714Y-93350500D01*
X113606286Y-93350500D01*
X113606287Y-93350500D01*
X113816243Y-93317246D01*
X114018412Y-93251557D01*
X114207816Y-93155051D01*
X114229789Y-93139086D01*
X114379786Y-93030109D01*
X114379788Y-93030106D01*
X114379792Y-93030104D01*
X114530104Y-92879792D01*
X114530106Y-92879788D01*
X114530109Y-92879786D01*
X114655048Y-92707820D01*
X114655047Y-92707820D01*
X114655051Y-92707816D01*
X114751557Y-92518412D01*
X114817246Y-92316243D01*
X114850500Y-92106287D01*
X114850500Y-91893713D01*
X114817246Y-91683757D01*
X114751557Y-91481588D01*
X114655051Y-91292184D01*
X114655049Y-91292181D01*
X114655048Y-91292179D01*
X114530109Y-91120213D01*
X114379786Y-90969890D01*
X114207820Y-90844951D01*
X114018414Y-90748444D01*
X114018413Y-90748443D01*
X114018412Y-90748443D01*
X113816243Y-90682754D01*
X113816241Y-90682753D01*
X113816240Y-90682753D01*
X113654957Y-90657208D01*
X113606287Y-90649500D01*
X113393713Y-90649500D01*
X113345042Y-90657208D01*
X113183760Y-90682753D01*
X112981585Y-90748444D01*
X112792179Y-90844951D01*
X112620213Y-90969890D01*
X112469890Y-91120213D01*
X112344951Y-91292179D01*
X112248444Y-91481585D01*
X112182753Y-91683760D01*
X112170577Y-91760638D01*
X112149500Y-91893713D01*
X93887411Y-91893713D01*
X93863828Y-91870129D01*
X93863824Y-91870126D01*
X93699964Y-91760638D01*
X93699954Y-91760633D01*
X93517880Y-91685215D01*
X93517872Y-91685213D01*
X93324587Y-91646766D01*
X93324584Y-91646766D01*
X93127504Y-91646766D01*
X93127501Y-91646766D01*
X92934215Y-91685213D01*
X92934207Y-91685215D01*
X92752133Y-91760633D01*
X92752123Y-91760638D01*
X92588263Y-91870126D01*
X92588259Y-91870129D01*
X92448907Y-92009481D01*
X92448904Y-92009485D01*
X92339416Y-92173345D01*
X92339411Y-92173355D01*
X92263993Y-92355429D01*
X92263991Y-92355437D01*
X92225544Y-92548721D01*
X92225544Y-92548726D01*
X92225544Y-92745806D01*
X92225544Y-92745808D01*
X92225543Y-92745808D01*
X92257117Y-92904533D01*
X92259500Y-92928725D01*
X92259500Y-93984001D01*
X92239815Y-94051040D01*
X92230506Y-94063566D01*
X92104949Y-94236383D01*
X92100484Y-94245147D01*
X92052509Y-94295943D01*
X91984688Y-94312737D01*
X91918553Y-94290199D01*
X91879516Y-94245147D01*
X91875050Y-94236383D01*
X91750109Y-94064414D01*
X91599786Y-93914091D01*
X91427820Y-93789152D01*
X91238414Y-93692645D01*
X91238413Y-93692644D01*
X91238412Y-93692644D01*
X91036243Y-93626955D01*
X91036241Y-93626954D01*
X91036240Y-93626954D01*
X90874957Y-93601409D01*
X90826287Y-93593701D01*
X90613713Y-93593701D01*
X90565042Y-93601409D01*
X90403760Y-93626954D01*
X90201585Y-93692645D01*
X90012179Y-93789152D01*
X89840213Y-93914091D01*
X89689890Y-94064414D01*
X89564949Y-94236383D01*
X89560484Y-94245147D01*
X89512509Y-94295943D01*
X89444688Y-94312737D01*
X89378553Y-94290199D01*
X89339516Y-94245147D01*
X89335050Y-94236383D01*
X89210109Y-94064414D01*
X89059786Y-93914091D01*
X88887820Y-93789152D01*
X88698414Y-93692645D01*
X88698413Y-93692644D01*
X88698412Y-93692644D01*
X88496243Y-93626955D01*
X88496241Y-93626954D01*
X88496240Y-93626954D01*
X88334957Y-93601409D01*
X88286287Y-93593701D01*
X88073713Y-93593701D01*
X88025042Y-93601409D01*
X87863760Y-93626954D01*
X87661585Y-93692645D01*
X87472179Y-93789152D01*
X87300213Y-93914091D01*
X87149890Y-94064414D01*
X87024949Y-94236383D01*
X87020484Y-94245147D01*
X86972509Y-94295943D01*
X86904688Y-94312737D01*
X86838553Y-94290199D01*
X86799516Y-94245147D01*
X86795050Y-94236383D01*
X86670109Y-94064414D01*
X86519786Y-93914091D01*
X86347820Y-93789152D01*
X86158414Y-93692645D01*
X86158413Y-93692644D01*
X86158412Y-93692644D01*
X85956243Y-93626955D01*
X85956241Y-93626954D01*
X85956240Y-93626954D01*
X85794957Y-93601409D01*
X85746287Y-93593701D01*
X85533713Y-93593701D01*
X85485042Y-93601409D01*
X85323760Y-93626954D01*
X85121585Y-93692645D01*
X84932179Y-93789152D01*
X84760213Y-93914091D01*
X84609890Y-94064414D01*
X84484949Y-94236383D01*
X84480484Y-94245147D01*
X84432509Y-94295943D01*
X84364688Y-94312737D01*
X84298553Y-94290199D01*
X84259516Y-94245147D01*
X84255050Y-94236383D01*
X84130109Y-94064414D01*
X83979786Y-93914091D01*
X83807820Y-93789152D01*
X83618414Y-93692645D01*
X83618413Y-93692644D01*
X83618412Y-93692644D01*
X83416243Y-93626955D01*
X83416241Y-93626954D01*
X83416240Y-93626954D01*
X83254957Y-93601409D01*
X83206287Y-93593701D01*
X82993713Y-93593701D01*
X82945042Y-93601409D01*
X82783760Y-93626954D01*
X82581585Y-93692645D01*
X82392179Y-93789152D01*
X82220213Y-93914091D01*
X82069890Y-94064414D01*
X81944951Y-94236380D01*
X81848444Y-94425786D01*
X81782753Y-94627961D01*
X81749500Y-94837914D01*
X70500500Y-94837914D01*
X70500500Y-91893713D01*
X71149500Y-91893713D01*
X71149500Y-92106287D01*
X71182754Y-92316243D01*
X71206518Y-92389382D01*
X71248444Y-92518414D01*
X71344951Y-92707820D01*
X71469890Y-92879786D01*
X71620213Y-93030109D01*
X71792179Y-93155048D01*
X71792181Y-93155049D01*
X71792184Y-93155051D01*
X71981588Y-93251557D01*
X72183757Y-93317246D01*
X72393713Y-93350500D01*
X72393714Y-93350500D01*
X72606286Y-93350500D01*
X72606287Y-93350500D01*
X72816243Y-93317246D01*
X73018412Y-93251557D01*
X73207816Y-93155051D01*
X73229789Y-93139086D01*
X73379786Y-93030109D01*
X73379788Y-93030106D01*
X73379792Y-93030104D01*
X73530104Y-92879792D01*
X73530106Y-92879788D01*
X73530109Y-92879786D01*
X73655048Y-92707820D01*
X73655047Y-92707820D01*
X73655051Y-92707816D01*
X73751557Y-92518412D01*
X73817246Y-92316243D01*
X73850500Y-92106287D01*
X73850500Y-91893713D01*
X73817246Y-91683757D01*
X73751557Y-91481588D01*
X73655051Y-91292184D01*
X73655049Y-91292181D01*
X73655048Y-91292179D01*
X73530109Y-91120213D01*
X73379786Y-90969890D01*
X73207820Y-90844951D01*
X73018414Y-90748444D01*
X73018413Y-90748443D01*
X73018412Y-90748443D01*
X72816243Y-90682754D01*
X72816241Y-90682753D01*
X72816240Y-90682753D01*
X72654957Y-90657208D01*
X72606287Y-90649500D01*
X72393713Y-90649500D01*
X72345042Y-90657208D01*
X72183760Y-90682753D01*
X71981585Y-90748444D01*
X71792179Y-90844951D01*
X71620213Y-90969890D01*
X71469890Y-91120213D01*
X71344951Y-91292179D01*
X71248444Y-91481585D01*
X71182753Y-91683760D01*
X71170577Y-91760638D01*
X71149500Y-91893713D01*
X70500500Y-91893713D01*
X70500500Y-90124500D01*
X70520185Y-90057461D01*
X70572989Y-90011706D01*
X70624500Y-90000500D01*
X115375500Y-90000500D01*
X115442539Y-90020185D01*
G37*
%TD.AperFunction*%
%TD*%
M02*
